<?xml version="1.0" encoding="UTF-8" standalone="no"?><!DOCTYPE svg PUBLIC "-//W3C//DTD SVG 1.1//EN" "http://www.w3.org/Graphics/SVG/1.1/DTD/svg11.dtd"><svg width="100%" height="100%" viewBox="0 0 1001 253" version="1.1" xmlns="http://www.w3.org/2000/svg" xmlns:xlink="http://www.w3.org/1999/xlink" xml:space="preserve" xmlns:serif="http://www.serif.com/" style="fill-rule:evenodd;clip-rule:evenodd;stroke-linecap:round;stroke-miterlimit:1.5;"><g id="Honeycombs"><path d="M518.127,81.988l11.765,6.793l-0,13.584l-11.765,6.793l-11.765,-6.793l0,-13.584l11.765,-6.793Z" style="fill:none;stroke:#fff;stroke-width:0.34px;"/><path d="M506.362,102.365l11.765,6.793l0,13.584l-11.765,6.793l-11.764,-6.793l-0,-13.584l11.764,-6.793Z" style="fill:none;stroke:#fff;stroke-width:0.34px;"/><path d="M529.892,102.365l11.764,6.793l0,13.584l-11.764,6.793l-11.765,-6.793l0,-13.584l11.765,-6.793Z" style="fill:none;stroke:#fff;stroke-width:0.34px;"/><path d="M553.421,102.365l11.765,6.793l-0,13.584l-11.765,6.793l-11.765,-6.793l0,-13.584l11.765,-6.793Z" style="fill:none;stroke:#fff;stroke-width:0.34px;"/><path d="M576.951,102.365l11.764,6.793l0,13.584l-11.764,6.793l-11.765,-6.793l-0,-13.584l11.765,-6.793Z" style="fill:none;stroke:#fff;stroke-width:0.34px;"/><path d="M541.656,81.988l11.765,6.793l0,13.584l-11.765,6.793l-11.764,-6.793l-0,-13.584l11.764,-6.793Z" style="fill:none;stroke:#fff;stroke-width:0.34px;"/><path d="M565.186,81.988l11.765,6.793l-0,13.584l-11.765,6.793l-11.765,-6.793l0,-13.584l11.765,-6.793Z" style="fill:none;stroke:#fff;stroke-width:0.34px;"/><path d="M518.127,122.742l11.765,6.793l-0,13.584l-11.765,6.793l-11.765,-6.793l0,-13.584l11.765,-6.793Z" style="fill:none;stroke:#fff;stroke-width:0.34px;"/><path d="M506.362,143.119l11.765,6.793l0,13.585l-11.765,6.792l-11.764,-6.792l-0,-13.585l11.764,-6.793Z" style="fill:none;stroke:#fff;stroke-width:0.34px;"/><path d="M529.892,143.119l11.764,6.793l0,13.585l-11.764,6.792l-11.765,-6.792l0,-13.585l11.765,-6.793Z" style="fill:none;stroke:#fff;stroke-width:0.34px;"/><path d="M553.421,143.119l11.765,6.793l-0,13.585l-11.765,6.792l-11.765,-6.792l0,-13.585l11.765,-6.793Z" style="fill:none;stroke:#fff;stroke-width:0.34px;"/><path d="M576.951,143.119l11.764,6.793l0,13.585l-11.764,6.792l-11.765,-6.792l-0,-13.585l11.765,-6.793Z" style="fill:none;stroke:#fff;stroke-width:0.34px;"/><path d="M541.656,122.742l11.765,6.793l0,13.584l-11.765,6.793l-11.764,-6.793l-0,-13.584l11.764,-6.793Z" style="fill:none;stroke:#fff;stroke-width:0.34px;"/><path d="M565.186,122.742l11.765,6.793l-0,13.584l-11.765,6.793l-11.765,-6.793l0,-13.584l11.765,-6.793Z" style="fill:none;stroke:#fff;stroke-width:0.34px;"/><path d="M600.48,61.611l11.765,6.793l-0,13.584l-11.765,6.793l-11.765,-6.793l0,-13.584l11.765,-6.793Z" style="fill:none;stroke:#fff;stroke-width:0.34px;"/><path d="M588.715,81.988l11.765,6.793l0,13.584l-11.765,6.793l-11.764,-6.793l-0,-13.584l11.764,-6.793Z" style="fill:none;stroke:#fff;stroke-width:0.34px;"/><path d="M612.245,81.988l11.764,6.793l0,13.584l-11.764,6.793l-11.765,-6.793l0,-13.584l11.765,-6.793Z" style="fill:none;stroke:#fff;stroke-width:0.34px;"/><path d="M635.774,81.988l11.765,6.793l-0,13.584l-11.765,6.793l-11.765,-6.793l0,-13.584l11.765,-6.793Z" style="fill:none;stroke:#fff;stroke-width:0.34px;"/><path d="M659.304,81.988l11.764,6.793l0,13.584l-11.764,6.793l-11.765,-6.793l-0,-13.584l11.765,-6.793Z" style="fill:none;stroke:#fff;stroke-width:0.34px;"/><path d="M624.009,61.611l11.765,6.793l0,13.584l-11.765,6.793l-11.764,-6.793l-0,-13.584l11.764,-6.793Z" style="fill:none;stroke:#fff;stroke-width:0.34px;"/><path d="M647.539,61.611l11.765,6.793l-0,13.584l-11.765,6.793l-11.765,-6.793l0,-13.584l11.765,-6.793Z" style="fill:none;stroke:#fff;stroke-width:0.34px;"/><path d="M600.48,102.365l11.765,6.793l-0,13.584l-11.765,6.793l-11.765,-6.793l0,-13.584l11.765,-6.793Z" style="fill:none;stroke:#fff;stroke-width:0.34px;"/><path d="M588.715,122.742l11.765,6.793l0,13.584l-11.765,6.793l-11.764,-6.793l-0,-13.584l11.764,-6.793Z" style="fill:none;stroke:#fff;stroke-width:0.34px;"/><path d="M612.245,122.742l11.764,6.793l0,13.584l-11.764,6.793l-11.765,-6.793l0,-13.584l11.765,-6.793Z" style="fill:none;stroke:#fff;stroke-width:0.34px;"/><path d="M635.774,122.742l11.765,6.793l-0,13.584l-11.765,6.793l-11.765,-6.793l0,-13.584l11.765,-6.793Z" style="fill:none;stroke:#fff;stroke-width:0.34px;"/><path d="M659.304,122.742l11.764,6.793l0,13.584l-11.764,6.793l-11.765,-6.793l-0,-13.584l11.765,-6.793Z" style="fill:none;stroke:#fff;stroke-width:0.34px;"/><path d="M624.009,102.365l11.765,6.793l0,13.584l-11.765,6.793l-11.764,-6.793l-0,-13.584l11.764,-6.793Z" style="fill:none;stroke:#fff;stroke-width:0.34px;"/><path d="M647.539,102.365l11.765,6.793l-0,13.584l-11.765,6.793l-11.765,-6.793l0,-13.584l11.765,-6.793Z" style="fill:none;stroke:#fff;stroke-width:0.34px;"/><path d="M518.127,0.48l11.765,6.792l-0,13.585l-11.765,6.792l-11.765,-6.792l0,-13.585l11.765,-6.792Z" style="fill:none;stroke:#fff;stroke-width:0.34px;"/><path d="M506.362,20.857l11.765,6.792l0,13.585l-11.765,6.792l-11.764,-6.792l-0,-13.585l11.764,-6.792Z" style="fill:none;stroke:#fff;stroke-width:0.34px;"/><path d="M529.892,20.857l11.764,6.792l0,13.585l-11.764,6.792l-11.765,-6.792l0,-13.585l11.765,-6.792Z" style="fill:none;stroke:#fff;stroke-width:0.34px;"/><path d="M553.421,20.857l11.765,6.792l-0,13.585l-11.765,6.792l-11.765,-6.792l0,-13.585l11.765,-6.792Z" style="fill:none;stroke:#fff;stroke-width:0.34px;"/><path d="M576.951,20.857l11.764,6.792l0,13.585l-11.764,6.792l-11.765,-6.792l-0,-13.585l11.765,-6.792Z" style="fill:none;stroke:#fff;stroke-width:0.34px;"/><path d="M541.656,0.48l11.765,6.792l0,13.585l-11.765,6.792l-11.764,-6.792l-0,-13.585l11.764,-6.792Z" style="fill:none;stroke:#fff;stroke-width:0.34px;"/><path d="M565.186,0.48l11.765,6.792l-0,13.585l-11.765,6.792l-11.765,-6.792l0,-13.585l11.765,-6.792Z" style="fill:none;stroke:#fff;stroke-width:0.34px;"/><path d="M518.127,41.234l11.765,6.792l-0,13.585l-11.765,6.793l-11.765,-6.793l0,-13.585l11.765,-6.792Z" style="fill:none;stroke:#fff;stroke-width:0.34px;"/><path d="M506.362,61.611l11.765,6.793l0,13.584l-11.765,6.793l-11.764,-6.793l-0,-13.584l11.764,-6.793Z" style="fill:none;stroke:#fff;stroke-width:0.34px;"/><path d="M529.892,61.611l11.764,6.793l0,13.584l-11.764,6.793l-11.765,-6.793l0,-13.584l11.765,-6.793Z" style="fill:none;stroke:#fff;stroke-width:0.34px;"/><path d="M553.421,61.611l11.765,6.793l-0,13.584l-11.765,6.793l-11.765,-6.793l0,-13.584l11.765,-6.793Z" style="fill:none;stroke:#fff;stroke-width:0.34px;"/><path d="M576.951,61.611l11.764,6.793l0,13.584l-11.764,6.793l-11.765,-6.793l-0,-13.584l11.765,-6.793Z" style="fill:none;stroke:#fff;stroke-width:0.34px;"/><path d="M541.656,41.234l11.765,6.792l0,13.585l-11.765,6.793l-11.764,-6.793l-0,-13.585l11.764,-6.792Z" style="fill:none;stroke:#fff;stroke-width:0.34px;"/><path d="M565.186,41.234l11.765,6.792l-0,13.585l-11.765,6.793l-11.765,-6.793l0,-13.585l11.765,-6.792Z" style="fill:none;stroke:#fff;stroke-width:0.34px;"/><path d="M588.715,0.48l11.765,6.792l0,13.585l-11.765,6.792l-11.764,-6.792l-0,-13.585l11.764,-6.792Z" style="fill:none;stroke:#fff;stroke-width:0.34px;"/><path d="M612.245,0.48l11.764,6.792l0,13.585l-11.764,6.792l-11.765,-6.792l0,-13.585l11.765,-6.792Z" style="fill:none;stroke:#fff;stroke-width:0.34px;"/><path d="M635.774,0.48l11.765,6.792l-0,13.585l-11.765,6.792l-11.765,-6.792l0,-13.585l11.765,-6.792Z" style="fill:none;stroke:#fff;stroke-width:0.34px;"/><path d="M659.304,0.48l11.764,6.792l0,13.585l-11.764,6.792l-11.765,-6.792l-0,-13.585l11.765,-6.792Z" style="fill:none;stroke:#fff;stroke-width:0.34px;"/><path d="M600.48,20.857l11.765,6.792l-0,13.585l-11.765,6.792l-11.765,-6.792l0,-13.585l11.765,-6.792Z" style="fill:none;stroke:#fff;stroke-width:0.34px;"/><path d="M588.715,41.234l11.765,6.792l0,13.585l-11.765,6.793l-11.764,-6.793l-0,-13.585l11.764,-6.792Z" style="fill:none;stroke:#fff;stroke-width:0.34px;"/><path d="M612.245,41.234l11.764,6.792l0,13.585l-11.764,6.793l-11.765,-6.793l0,-13.585l11.765,-6.792Z" style="fill:none;stroke:#fff;stroke-width:0.34px;"/><path d="M635.774,41.234l11.765,6.792l-0,13.585l-11.765,6.793l-11.765,-6.793l0,-13.585l11.765,-6.792Z" style="fill:none;stroke:#fff;stroke-width:0.34px;"/><path d="M659.304,41.234l11.764,6.792l0,13.585l-11.764,6.793l-11.765,-6.793l-0,-13.585l11.765,-6.792Z" style="fill:none;stroke:#fff;stroke-width:0.34px;"/><path d="M624.009,20.857l11.765,6.792l0,13.585l-11.765,6.792l-11.764,-6.792l-0,-13.585l11.764,-6.792Z" style="fill:none;stroke:#fff;stroke-width:0.34px;"/><path d="M647.539,20.857l11.765,6.792l-0,13.585l-11.765,6.792l-11.765,-6.792l0,-13.585l11.765,-6.792Z" style="fill:none;stroke:#fff;stroke-width:0.34px;"/><path d="M424.009,0.48l11.765,6.792l0,13.585l-11.765,6.792l-11.764,-6.792l-0,-13.585l11.764,-6.792Z" style="fill:none;stroke:#fff;stroke-width:0.34px;"/><path d="M447.539,0.48l11.765,6.792l-0,13.585l-11.765,6.792l-11.765,-6.792l0,-13.585l11.765,-6.792Z" style="fill:none;stroke:#fff;stroke-width:0.34px;"/><path d="M471.068,0.48l11.765,6.792l-0,13.585l-11.765,6.792l-11.764,-6.792l-0,-13.585l11.764,-6.792Z" style="fill:none;stroke:#fff;stroke-width:0.34px;"/><path d="M494.598,0.48l11.764,6.792l0,13.585l-11.764,6.792l-11.765,-6.792l-0,-13.585l11.765,-6.792Z" style="fill:none;stroke:#fff;stroke-width:0.34px;"/><path d="M435.774,20.857l11.765,6.792l-0,13.585l-11.765,6.792l-11.765,-6.792l0,-13.585l11.765,-6.792Z" style="fill:none;stroke:#fff;stroke-width:0.34px;"/><path d="M424.009,41.234l11.765,6.792l0,13.585l-11.765,6.793l-11.764,-6.793l-0,-13.585l11.764,-6.792Z" style="fill:none;stroke:#fff;stroke-width:0.34px;"/><path d="M447.539,41.234l11.765,6.792l-0,13.585l-11.765,6.793l-11.765,-6.793l0,-13.585l11.765,-6.792Z" style="fill:none;stroke:#fff;stroke-width:0.34px;"/><path d="M471.068,41.234l11.765,6.792l-0,13.585l-11.765,6.793l-11.764,-6.793l-0,-13.585l11.764,-6.792Z" style="fill:none;stroke:#fff;stroke-width:0.34px;"/><path d="M494.598,41.234l11.764,6.792l0,13.585l-11.764,6.793l-11.765,-6.793l-0,-13.585l11.765,-6.792Z" style="fill:none;stroke:#fff;stroke-width:0.34px;"/><path d="M459.304,20.857l11.764,6.792l0,13.585l-11.764,6.792l-11.765,-6.792l-0,-13.585l11.765,-6.792Z" style="fill:none;stroke:#fff;stroke-width:0.34px;"/><path d="M482.833,20.857l11.765,6.792l-0,13.585l-11.765,6.792l-11.765,-6.792l0,-13.585l11.765,-6.792Z" style="fill:none;stroke:#fff;stroke-width:0.34px;"/><path d="M435.774,61.611l11.765,6.793l-0,13.584l-11.765,6.793l-11.765,-6.793l0,-13.584l11.765,-6.793Z" style="fill:none;stroke:#fff;stroke-width:0.34px;"/><path d="M424.009,81.988l11.765,6.793l0,13.584l-11.765,6.793l-11.764,-6.793l-0,-13.584l11.764,-6.793Z" style="fill:none;stroke:#fff;stroke-width:0.34px;"/><path d="M447.539,81.988l11.765,6.793l-0,13.584l-11.765,6.793l-11.765,-6.793l0,-13.584l11.765,-6.793Z" style="fill:none;stroke:#fff;stroke-width:0.34px;"/><path d="M471.068,81.988l11.765,6.793l-0,13.584l-11.765,6.793l-11.764,-6.793l-0,-13.584l11.764,-6.793Z" style="fill:none;stroke:#fff;stroke-width:0.34px;"/><path d="M494.598,81.988l11.764,6.793l0,13.584l-11.764,6.793l-11.765,-6.793l-0,-13.584l11.765,-6.793Z" style="fill:none;stroke:#fff;stroke-width:0.34px;"/><path d="M459.304,61.611l11.764,6.793l0,13.584l-11.764,6.793l-11.765,-6.793l-0,-13.584l11.765,-6.793Z" style="fill:none;stroke:#fff;stroke-width:0.34px;"/><path d="M482.833,61.611l11.765,6.793l-0,13.584l-11.765,6.793l-11.765,-6.793l0,-13.584l11.765,-6.793Z" style="fill:none;stroke:#fff;stroke-width:0.34px;"/><path d="M435.774,102.365l11.765,6.793l-0,13.584l-11.765,6.793l-11.765,-6.793l0,-13.584l11.765,-6.793Z" style="fill:none;stroke:#fff;stroke-width:0.34px;"/><path d="M424.009,122.742l11.765,6.793l0,13.584l-11.765,6.793l-11.764,-6.793l-0,-13.584l11.764,-6.793Z" style="fill:none;stroke:#fff;stroke-width:0.34px;"/><path d="M447.539,122.742l11.765,6.793l-0,13.584l-11.765,6.793l-11.765,-6.793l0,-13.584l11.765,-6.793Z" style="fill:none;stroke:#fff;stroke-width:0.34px;"/><path d="M471.068,122.742l11.765,6.793l-0,13.584l-11.765,6.793l-11.764,-6.793l-0,-13.584l11.764,-6.793Z" style="fill:none;stroke:#fff;stroke-width:0.34px;"/><path d="M494.598,122.742l11.764,6.793l0,13.584l-11.764,6.793l-11.765,-6.793l-0,-13.584l11.765,-6.793Z" style="fill:none;stroke:#fff;stroke-width:0.34px;"/><path d="M459.304,102.365l11.764,6.793l0,13.584l-11.764,6.793l-11.765,-6.793l-0,-13.584l11.765,-6.793Z" style="fill:none;stroke:#fff;stroke-width:0.34px;"/><path d="M482.833,102.365l11.765,6.793l-0,13.584l-11.765,6.793l-11.765,-6.793l0,-13.584l11.765,-6.793Z" style="fill:none;stroke:#fff;stroke-width:0.34px;"/><path d="M435.774,143.119l11.765,6.793l-0,13.585l-11.765,6.792l-11.765,-6.792l0,-13.585l11.765,-6.793Z" style="fill:none;stroke:#fff;stroke-width:0.34px;"/><path d="M424.009,163.497l11.765,6.792l0,13.585l-11.765,6.792l-11.764,-6.792l-0,-13.585l11.764,-6.792Z" style="fill:none;stroke:#fff;stroke-width:0.34px;"/><path d="M447.539,163.497l11.765,6.792l-0,13.585l-11.765,6.792l-11.765,-6.792l0,-13.585l11.765,-6.792Z" style="fill:none;stroke:#fff;stroke-width:0.34px;"/><path d="M471.068,163.497l11.765,6.792l-0,13.585l-11.765,6.792l-11.764,-6.792l-0,-13.585l11.764,-6.792Z" style="fill:none;stroke:#fff;stroke-width:0.34px;"/><path d="M494.598,163.497l11.764,6.792l0,13.585l-11.764,6.792l-11.765,-6.792l-0,-13.585l11.765,-6.792Z" style="fill:none;stroke:#fff;stroke-width:0.34px;"/><path d="M459.304,143.119l11.764,6.793l0,13.585l-11.764,6.792l-11.765,-6.792l-0,-13.585l11.765,-6.793Z" style="fill:none;stroke:#fff;stroke-width:0.34px;"/><path d="M482.833,143.119l11.765,6.793l-0,13.585l-11.765,6.792l-11.765,-6.792l0,-13.585l11.765,-6.793Z" style="fill:none;stroke:#fff;stroke-width:0.34px;"/><path d="M435.774,183.874l11.765,6.792l-0,13.585l-11.765,6.792l-11.765,-6.792l0,-13.585l11.765,-6.792Z" style="fill:none;stroke:#fff;stroke-width:0.34px;"/><path d="M424.009,204.251l11.765,6.792l0,13.585l-11.765,6.792l-11.764,-6.792l-0,-13.585l11.764,-6.792Z" style="fill:none;stroke:#fff;stroke-width:0.34px;"/><path d="M447.539,204.251l11.765,6.792l-0,13.585l-11.765,6.792l-11.765,-6.792l0,-13.585l11.765,-6.792Z" style="fill:none;stroke:#fff;stroke-width:0.34px;"/><path d="M471.068,204.251l11.765,6.792l-0,13.585l-11.765,6.792l-11.764,-6.792l-0,-13.585l11.764,-6.792Z" style="fill:none;stroke:#fff;stroke-width:0.34px;"/><path d="M494.598,204.251l11.764,6.792l0,13.585l-11.764,6.792l-11.765,-6.792l-0,-13.585l11.765,-6.792Z" style="fill:none;stroke:#fff;stroke-width:0.34px;"/><path d="M459.304,183.874l11.764,6.792l0,13.585l-11.764,6.792l-11.765,-6.792l-0,-13.585l11.765,-6.792Z" style="fill:none;stroke:#fff;stroke-width:0.34px;"/><path d="M482.833,183.874l11.765,6.792l-0,13.585l-11.765,6.792l-11.765,-6.792l0,-13.585l11.765,-6.792Z" style="fill:none;stroke:#fff;stroke-width:0.34px;"/><path d="M518.127,163.497l11.765,6.792l-0,13.585l-11.765,6.792l-11.765,-6.792l0,-13.585l11.765,-6.792Z" style="fill:none;stroke:#fff;stroke-width:0.34px;"/><path d="M506.362,183.874l11.765,6.792l0,13.585l-11.765,6.792l-11.764,-6.792l-0,-13.585l11.764,-6.792Z" style="fill:none;stroke:#fff;stroke-width:0.34px;"/><path d="M529.892,183.874l11.764,6.792l0,13.585l-11.764,6.792l-11.765,-6.792l0,-13.585l11.765,-6.792Z" style="fill:none;stroke:#fff;stroke-width:0.34px;"/><path d="M553.421,183.874l11.765,6.792l-0,13.585l-11.765,6.792l-11.765,-6.792l0,-13.585l11.765,-6.792Z" style="fill:none;stroke:#fff;stroke-width:0.34px;"/><path d="M576.951,183.874l11.764,6.792l0,13.585l-11.764,6.792l-11.765,-6.792l-0,-13.585l11.765,-6.792Z" style="fill:none;stroke:#fff;stroke-width:0.34px;"/><path d="M541.656,163.497l11.765,6.792l0,13.585l-11.765,6.792l-11.764,-6.792l-0,-13.585l11.764,-6.792Z" style="fill:none;stroke:#fff;stroke-width:0.34px;"/><path d="M565.186,163.497l11.765,6.792l-0,13.585l-11.765,6.792l-11.765,-6.792l0,-13.585l11.765,-6.792Z" style="fill:none;stroke:#fff;stroke-width:0.34px;"/><path d="M518.127,204.251l11.765,6.792l-0,13.585l-11.765,6.792l-11.765,-6.792l0,-13.585l11.765,-6.792Z" style="fill:none;stroke:#fff;stroke-width:0.34px;"/><path d="M506.362,224.628l11.765,6.792l0,13.585l-11.765,6.792l-11.764,-6.792l-0,-13.585l11.764,-6.792Z" style="fill:none;stroke:#fff;stroke-width:0.34px;"/><path d="M529.892,224.628l11.764,6.792l0,13.585l-11.764,6.792l-11.765,-6.792l0,-13.585l11.765,-6.792Z" style="fill:none;stroke:#fff;stroke-width:0.34px;"/><path d="M553.421,224.628l11.765,6.792l-0,13.585l-11.765,6.792l-11.765,-6.792l0,-13.585l11.765,-6.792Z" style="fill:none;stroke:#fff;stroke-width:0.34px;"/><path d="M576.951,224.628l11.764,6.792l0,13.585l-11.764,6.792l-11.765,-6.792l-0,-13.585l11.765,-6.792Z" style="fill:none;stroke:#fff;stroke-width:0.34px;"/><path d="M541.656,204.251l11.765,6.792l0,13.585l-11.765,6.792l-11.764,-6.792l-0,-13.585l11.764,-6.792Z" style="fill:none;stroke:#fff;stroke-width:0.34px;"/><path d="M565.186,204.251l11.765,6.792l-0,13.585l-11.765,6.792l-11.765,-6.792l0,-13.585l11.765,-6.792Z" style="fill:none;stroke:#fff;stroke-width:0.34px;"/><path d="M600.48,143.119l11.765,6.793l-0,13.585l-11.765,6.792l-11.765,-6.792l0,-13.585l11.765,-6.793Z" style="fill:none;stroke:#fff;stroke-width:0.34px;"/><path d="M588.715,163.497l11.765,6.792l0,13.585l-11.765,6.792l-11.764,-6.792l-0,-13.585l11.764,-6.792Z" style="fill:none;stroke:#fff;stroke-width:0.34px;"/><path d="M612.245,163.497l11.764,6.792l0,13.585l-11.764,6.792l-11.765,-6.792l0,-13.585l11.765,-6.792Z" style="fill:none;stroke:#fff;stroke-width:0.34px;"/><path d="M635.774,163.497l11.765,6.792l-0,13.585l-11.765,6.792l-11.765,-6.792l0,-13.585l11.765,-6.792Z" style="fill:none;stroke:#fff;stroke-width:0.34px;"/><path d="M659.304,163.497l11.764,6.792l0,13.585l-11.764,6.792l-11.765,-6.792l-0,-13.585l11.765,-6.792Z" style="fill:none;stroke:#fff;stroke-width:0.34px;"/><path d="M624.009,143.119l11.765,6.793l0,13.585l-11.765,6.792l-11.764,-6.792l-0,-13.585l11.764,-6.793Z" style="fill:none;stroke:#fff;stroke-width:0.34px;"/><path d="M647.539,143.119l11.765,6.793l-0,13.585l-11.765,6.792l-11.765,-6.792l0,-13.585l11.765,-6.793Z" style="fill:none;stroke:#fff;stroke-width:0.34px;"/><path d="M600.48,183.874l11.765,6.792l-0,13.585l-11.765,6.792l-11.765,-6.792l0,-13.585l11.765,-6.792Z" style="fill:none;stroke:#fff;stroke-width:0.34px;"/><path d="M588.715,204.251l11.765,6.792l0,13.585l-11.765,6.792l-11.764,-6.792l-0,-13.585l11.764,-6.792Z" style="fill:none;stroke:#fff;stroke-width:0.34px;"/><path d="M612.245,204.251l11.764,6.792l0,13.585l-11.764,6.792l-11.765,-6.792l0,-13.585l11.765,-6.792Z" style="fill:none;stroke:#fff;stroke-width:0.34px;"/><path d="M635.774,204.251l11.765,6.792l-0,13.585l-11.765,6.792l-11.765,-6.792l0,-13.585l11.765,-6.792Z" style="fill:none;stroke:#fff;stroke-width:0.34px;"/><path d="M659.304,204.251l11.764,6.792l0,13.585l-11.764,6.792l-11.765,-6.792l-0,-13.585l11.765,-6.792Z" style="fill:none;stroke:#fff;stroke-width:0.34px;"/><path d="M624.009,183.874l11.765,6.792l0,13.585l-11.765,6.792l-11.764,-6.792l-0,-13.585l11.764,-6.792Z" style="fill:none;stroke:#fff;stroke-width:0.34px;"/><path d="M647.539,183.874l11.765,6.792l-0,13.585l-11.765,6.792l-11.765,-6.792l0,-13.585l11.765,-6.792Z" style="fill:none;stroke:#fff;stroke-width:0.34px;"/><path d="M353.421,0.48l11.765,6.792l-0,13.585l-11.765,6.792l-11.765,-6.792l0,-13.585l11.765,-6.792Z" style="fill:none;stroke:#fff;stroke-width:0.34px;"/><path d="M341.656,20.857l11.765,6.792l0,13.585l-11.765,6.792l-11.764,-6.792l-0,-13.585l11.764,-6.792Z" style="fill:none;stroke:#fff;stroke-width:0.34px;"/><path d="M365.186,20.857l11.765,6.792l-0,13.585l-11.765,6.792l-11.765,-6.792l0,-13.585l11.765,-6.792Z" style="fill:none;stroke:#fff;stroke-width:0.34px;"/><path d="M388.715,20.857l11.765,6.792l0,13.585l-11.765,6.792l-11.764,-6.792l-0,-13.585l11.764,-6.792Z" style="fill:none;stroke:#fff;stroke-width:0.34px;"/><path d="M412.245,20.857l11.764,6.792l0,13.585l-11.764,6.792l-11.765,-6.792l0,-13.585l11.765,-6.792Z" style="fill:none;stroke:#fff;stroke-width:0.34px;"/><path d="M376.951,0.48l11.764,6.792l0,13.585l-11.764,6.792l-11.765,-6.792l-0,-13.585l11.765,-6.792Z" style="fill:none;stroke:#fff;stroke-width:0.34px;"/><path d="M400.48,0.48l11.765,6.792l-0,13.585l-11.765,6.792l-11.765,-6.792l0,-13.585l11.765,-6.792Z" style="fill:none;stroke:#fff;stroke-width:0.34px;"/><path d="M353.421,41.234l11.765,6.792l-0,13.585l-11.765,6.793l-11.765,-6.793l0,-13.585l11.765,-6.792Z" style="fill:none;stroke:#fff;stroke-width:0.34px;"/><path d="M341.656,61.611l11.765,6.793l0,13.584l-11.765,6.793l-11.764,-6.793l-0,-13.584l11.764,-6.793Z" style="fill:none;stroke:#fff;stroke-width:0.34px;"/><path d="M365.186,61.611l11.765,6.793l-0,13.584l-11.765,6.793l-11.765,-6.793l0,-13.584l11.765,-6.793Z" style="fill:none;stroke:#fff;stroke-width:0.34px;"/><path d="M388.715,61.611l11.765,6.793l0,13.584l-11.765,6.793l-11.764,-6.793l-0,-13.584l11.764,-6.793Z" style="fill:none;stroke:#fff;stroke-width:0.34px;"/><path d="M412.245,61.611l11.764,6.793l0,13.584l-11.764,6.793l-11.765,-6.793l0,-13.584l11.765,-6.793Z" style="fill:none;stroke:#fff;stroke-width:0.34px;"/><path d="M376.951,41.234l11.764,6.792l0,13.585l-11.764,6.793l-11.765,-6.793l-0,-13.585l11.765,-6.792Z" style="fill:none;stroke:#fff;stroke-width:0.34px;"/><path d="M400.48,41.234l11.765,6.792l-0,13.585l-11.765,6.793l-11.765,-6.793l0,-13.585l11.765,-6.792Z" style="fill:none;stroke:#fff;stroke-width:0.34px;"/><path d="M353.421,81.988l11.765,6.793l-0,13.584l-11.765,6.793l-11.765,-6.793l0,-13.584l11.765,-6.793Z" style="fill:none;stroke:#fff;stroke-width:0.34px;"/><path d="M341.656,102.365l11.765,6.793l0,13.584l-11.765,6.793l-11.764,-6.793l-0,-13.584l11.764,-6.793Z" style="fill:none;stroke:#fff;stroke-width:0.34px;"/><path d="M365.186,102.365l11.765,6.793l-0,13.584l-11.765,6.793l-11.765,-6.793l0,-13.584l11.765,-6.793Z" style="fill:none;stroke:#fff;stroke-width:0.34px;"/><path d="M388.715,102.365l11.765,6.793l0,13.584l-11.765,6.793l-11.764,-6.793l-0,-13.584l11.764,-6.793Z" style="fill:none;stroke:#fff;stroke-width:0.34px;"/><path d="M412.245,102.365l11.764,6.793l0,13.584l-11.764,6.793l-11.765,-6.793l0,-13.584l11.765,-6.793Z" style="fill:none;stroke:#fff;stroke-width:0.34px;"/><path d="M376.951,81.988l11.764,6.793l0,13.584l-11.764,6.793l-11.765,-6.793l-0,-13.584l11.765,-6.793Z" style="fill:none;stroke:#fff;stroke-width:0.34px;"/><path d="M400.48,81.988l11.765,6.793l-0,13.584l-11.765,6.793l-11.765,-6.793l0,-13.584l11.765,-6.793Z" style="fill:none;stroke:#fff;stroke-width:0.34px;"/><path d="M353.421,122.742l11.765,6.793l-0,13.584l-11.765,6.793l-11.765,-6.793l0,-13.584l11.765,-6.793Z" style="fill:none;stroke:#fff;stroke-width:0.34px;"/><path d="M341.656,143.119l11.765,6.793l0,13.585l-11.765,6.792l-11.764,-6.792l-0,-13.585l11.764,-6.793Z" style="fill:none;stroke:#fff;stroke-width:0.34px;"/><path d="M365.186,143.119l11.765,6.793l-0,13.585l-11.765,6.792l-11.765,-6.792l0,-13.585l11.765,-6.793Z" style="fill:none;stroke:#fff;stroke-width:0.34px;"/><path d="M388.715,143.119l11.765,6.793l0,13.585l-11.765,6.792l-11.764,-6.792l-0,-13.585l11.764,-6.793Z" style="fill:none;stroke:#fff;stroke-width:0.34px;"/><path d="M412.245,143.119l11.764,6.793l0,13.585l-11.764,6.792l-11.765,-6.792l0,-13.585l11.765,-6.793Z" style="fill:none;stroke:#fff;stroke-width:0.34px;"/><path d="M376.951,122.742l11.764,6.793l0,13.584l-11.764,6.793l-11.765,-6.793l-0,-13.584l11.765,-6.793Z" style="fill:none;stroke:#fff;stroke-width:0.34px;"/><path d="M400.48,122.742l11.765,6.793l-0,13.584l-11.765,6.793l-11.765,-6.793l0,-13.584l11.765,-6.793Z" style="fill:none;stroke:#fff;stroke-width:0.34px;"/><path d="M353.421,163.497l11.765,6.792l-0,13.585l-11.765,6.792l-11.765,-6.792l0,-13.585l11.765,-6.792Z" style="fill:none;stroke:#fff;stroke-width:0.34px;"/><path d="M341.656,183.874l11.765,6.792l0,13.585l-11.765,6.792l-11.764,-6.792l-0,-13.585l11.764,-6.792Z" style="fill:none;stroke:#fff;stroke-width:0.34px;"/><path d="M365.186,183.874l11.765,6.792l-0,13.585l-11.765,6.792l-11.765,-6.792l0,-13.585l11.765,-6.792Z" style="fill:none;stroke:#fff;stroke-width:0.34px;"/><path d="M388.715,183.874l11.765,6.792l0,13.585l-11.765,6.792l-11.764,-6.792l-0,-13.585l11.764,-6.792Z" style="fill:none;stroke:#fff;stroke-width:0.34px;"/><path d="M412.245,183.874l11.764,6.792l0,13.585l-11.764,6.792l-11.765,-6.792l0,-13.585l11.765,-6.792Z" style="fill:none;stroke:#fff;stroke-width:0.34px;"/><path d="M376.951,163.497l11.764,6.792l0,13.585l-11.764,6.792l-11.765,-6.792l-0,-13.585l11.765,-6.792Z" style="fill:none;stroke:#fff;stroke-width:0.34px;"/><path d="M400.48,163.497l11.765,6.792l-0,13.585l-11.765,6.792l-11.765,-6.792l0,-13.585l11.765,-6.792Z" style="fill:none;stroke:#fff;stroke-width:0.34px;"/><path d="M353.421,204.251l11.765,6.792l-0,13.585l-11.765,6.792l-11.765,-6.792l0,-13.585l11.765,-6.792Z" style="fill:none;stroke:#fff;stroke-width:0.34px;"/><path d="M341.656,224.628l11.765,6.792l0,13.585l-11.765,6.792l-11.764,-6.792l-0,-13.585l11.764,-6.792Z" style="fill:none;stroke:#fff;stroke-width:0.34px;"/><path d="M365.186,224.628l11.765,6.792l-0,13.585l-11.765,6.792l-11.765,-6.792l0,-13.585l11.765,-6.792Z" style="fill:none;stroke:#fff;stroke-width:0.34px;"/><path d="M388.715,224.628l11.765,6.792l0,13.585l-11.765,6.792l-11.764,-6.792l-0,-13.585l11.764,-6.792Z" style="fill:none;stroke:#fff;stroke-width:0.34px;"/><path d="M412.245,224.628l11.764,6.792l0,13.585l-11.764,6.792l-11.765,-6.792l0,-13.585l11.765,-6.792Z" style="fill:none;stroke:#fff;stroke-width:0.34px;"/><path d="M376.951,204.251l11.764,6.792l0,13.585l-11.764,6.792l-11.765,-6.792l-0,-13.585l11.765,-6.792Z" style="fill:none;stroke:#fff;stroke-width:0.34px;"/><path d="M400.48,204.251l11.765,6.792l-0,13.585l-11.765,6.792l-11.765,-6.792l0,-13.585l11.765,-6.792Z" style="fill:none;stroke:#fff;stroke-width:0.34px;"/><path d="M435.774,224.628l11.765,6.792l-0,13.585l-11.765,6.792l-11.765,-6.792l0,-13.585l11.765,-6.792Z" style="fill:none;stroke:#fff;stroke-width:0.34px;"/><path d="M459.304,224.628l11.764,6.792l0,13.585l-11.764,6.792l-11.765,-6.792l-0,-13.585l11.765,-6.792Z" style="fill:none;stroke:#fff;stroke-width:0.34px;"/><path d="M482.833,224.628l11.765,6.792l-0,13.585l-11.765,6.792l-11.765,-6.792l0,-13.585l11.765,-6.792Z" style="fill:none;stroke:#fff;stroke-width:0.34px;"/><path d="M600.48,224.628l11.765,6.792l-0,13.585l-11.765,6.792l-11.765,-6.792l0,-13.585l11.765,-6.792Z" style="fill:none;stroke:#fff;stroke-width:0.34px;"/><path d="M624.009,224.628l11.765,6.792l0,13.585l-11.765,6.792l-11.764,-6.792l-0,-13.585l11.764,-6.792Z" style="fill:none;stroke:#fff;stroke-width:0.34px;"/><path d="M647.539,224.628l11.765,6.792l-0,13.585l-11.765,6.792l-11.765,-6.792l0,-13.585l11.765,-6.792Z" style="fill:none;stroke:#fff;stroke-width:0.34px;"/><path d="M847.539,81.988l11.765,6.793l-0,13.584l-11.765,6.793l-11.765,-6.793l0,-13.584l11.765,-6.793Z" style="fill:none;stroke:#fff;stroke-width:0.34px;"/><path d="M835.774,102.365l11.765,6.793l-0,13.584l-11.765,6.793l-11.765,-6.793l0,-13.584l11.765,-6.793Z" style="fill:none;stroke:#fff;stroke-width:0.34px;"/><path d="M859.304,102.365l11.764,6.793l0,13.584l-11.764,6.793l-11.765,-6.793l-0,-13.584l11.765,-6.793Z" style="fill:none;stroke:#fff;stroke-width:0.34px;"/><path d="M882.833,102.365l11.765,6.793l-0,13.584l-11.765,6.793l-11.765,-6.793l0,-13.584l11.765,-6.793Z" style="fill:none;stroke:#fff;stroke-width:0.34px;"/><path d="M906.362,102.365l11.765,6.793l0,13.584l-11.765,6.793l-11.764,-6.793l-0,-13.584l11.764,-6.793Z" style="fill:none;stroke:#fff;stroke-width:0.34px;"/><path d="M871.068,81.988l11.765,6.793l-0,13.584l-11.765,6.793l-11.764,-6.793l-0,-13.584l11.764,-6.793Z" style="fill:none;stroke:#fff;stroke-width:0.34px;"/><path d="M894.598,81.988l11.764,6.793l0,13.584l-11.764,6.793l-11.765,-6.793l-0,-13.584l11.765,-6.793Z" style="fill:none;stroke:#fff;stroke-width:0.34px;"/><path d="M847.539,122.742l11.765,6.793l-0,13.584l-11.765,6.793l-11.765,-6.793l0,-13.584l11.765,-6.793Z" style="fill:none;stroke:#fff;stroke-width:0.34px;"/><path d="M835.774,143.119l11.765,6.793l-0,13.585l-11.765,6.792l-11.765,-6.792l0,-13.585l11.765,-6.793Z" style="fill:none;stroke:#fff;stroke-width:0.34px;"/><path d="M859.304,143.119l11.764,6.793l0,13.585l-11.764,6.792l-11.765,-6.792l-0,-13.585l11.765,-6.793Z" style="fill:none;stroke:#fff;stroke-width:0.34px;"/><path d="M882.833,143.119l11.765,6.793l-0,13.585l-11.765,6.792l-11.765,-6.792l0,-13.585l11.765,-6.793Z" style="fill:none;stroke:#fff;stroke-width:0.34px;"/><path d="M906.362,143.119l11.765,6.793l0,13.585l-11.765,6.792l-11.764,-6.792l-0,-13.585l11.764,-6.793Z" style="fill:none;stroke:#fff;stroke-width:0.34px;"/><path d="M871.068,122.742l11.765,6.793l-0,13.584l-11.765,6.793l-11.764,-6.793l-0,-13.584l11.764,-6.793Z" style="fill:none;stroke:#fff;stroke-width:0.34px;"/><path d="M894.598,122.742l11.764,6.793l0,13.584l-11.764,6.793l-11.765,-6.793l-0,-13.584l11.765,-6.793Z" style="fill:none;stroke:#fff;stroke-width:0.34px;"/><path d="M929.892,61.611l11.764,6.793l0,13.584l-11.764,6.793l-11.765,-6.793l0,-13.584l11.765,-6.793Z" style="fill:none;stroke:#fff;stroke-width:0.34px;"/><path d="M918.127,81.988l11.765,6.793l-0,13.584l-11.765,6.793l-11.765,-6.793l0,-13.584l11.765,-6.793Z" style="fill:none;stroke:#fff;stroke-width:0.34px;"/><path d="M941.656,81.988l11.765,6.793l0,13.584l-11.765,6.793l-11.764,-6.793l-0,-13.584l11.764,-6.793Z" style="fill:none;stroke:#fff;stroke-width:0.34px;"/><path d="M965.186,81.988l11.765,6.793l-0,13.584l-11.765,6.793l-11.765,-6.793l0,-13.584l11.765,-6.793Z" style="fill:none;stroke:#fff;stroke-width:0.34px;"/><path d="M988.715,81.988l11.765,6.793l0,13.584l-11.765,6.793l-11.764,-6.793l-0,-13.584l11.764,-6.793Z" style="fill:none;stroke:#fff;stroke-width:0.34px;"/><path d="M953.421,61.611l11.765,6.793l-0,13.584l-11.765,6.793l-11.765,-6.793l0,-13.584l11.765,-6.793Z" style="fill:none;stroke:#fff;stroke-width:0.34px;"/><path d="M976.951,61.611l11.764,6.793l0,13.584l-11.764,6.793l-11.765,-6.793l-0,-13.584l11.765,-6.793Z" style="fill:none;stroke:#fff;stroke-width:0.34px;"/><path d="M929.892,102.365l11.764,6.793l0,13.584l-11.764,6.793l-11.765,-6.793l0,-13.584l11.765,-6.793Z" style="fill:none;stroke:#fff;stroke-width:0.34px;"/><path d="M918.127,122.742l11.765,6.793l-0,13.584l-11.765,6.793l-11.765,-6.793l0,-13.584l11.765,-6.793Z" style="fill:none;stroke:#fff;stroke-width:0.34px;"/><path d="M941.656,122.742l11.765,6.793l0,13.584l-11.765,6.793l-11.764,-6.793l-0,-13.584l11.764,-6.793Z" style="fill:none;stroke:#fff;stroke-width:0.34px;"/><path d="M965.186,122.742l11.765,6.793l-0,13.584l-11.765,6.793l-11.765,-6.793l0,-13.584l11.765,-6.793Z" style="fill:none;stroke:#fff;stroke-width:0.34px;"/><path d="M988.715,122.742l11.765,6.793l0,13.584l-11.765,6.793l-11.764,-6.793l-0,-13.584l11.764,-6.793Z" style="fill:none;stroke:#fff;stroke-width:0.34px;"/><path d="M953.421,102.365l11.765,6.793l-0,13.584l-11.765,6.793l-11.765,-6.793l0,-13.584l11.765,-6.793Z" style="fill:none;stroke:#fff;stroke-width:0.34px;"/><path d="M976.951,102.365l11.764,6.793l0,13.584l-11.764,6.793l-11.765,-6.793l-0,-13.584l11.765,-6.793Z" style="fill:none;stroke:#fff;stroke-width:0.34px;"/><path d="M847.539,0.48l11.765,6.792l-0,13.585l-11.765,6.792l-11.765,-6.792l0,-13.585l11.765,-6.792Z" style="fill:none;stroke:#fff;stroke-width:0.34px;"/><path d="M835.774,20.857l11.765,6.792l-0,13.585l-11.765,6.792l-11.765,-6.792l0,-13.585l11.765,-6.792Z" style="fill:none;stroke:#fff;stroke-width:0.34px;"/><path d="M859.304,20.857l11.764,6.792l0,13.585l-11.764,6.792l-11.765,-6.792l-0,-13.585l11.765,-6.792Z" style="fill:none;stroke:#fff;stroke-width:0.34px;"/><path d="M882.833,20.857l11.765,6.792l-0,13.585l-11.765,6.792l-11.765,-6.792l0,-13.585l11.765,-6.792Z" style="fill:none;stroke:#fff;stroke-width:0.34px;"/><path d="M906.362,20.857l11.765,6.792l0,13.585l-11.765,6.792l-11.764,-6.792l-0,-13.585l11.764,-6.792Z" style="fill:none;stroke:#fff;stroke-width:0.34px;"/><path d="M871.068,0.48l11.765,6.792l-0,13.585l-11.765,6.792l-11.764,-6.792l-0,-13.585l11.764,-6.792Z" style="fill:none;stroke:#fff;stroke-width:0.34px;"/><path d="M894.598,0.48l11.764,6.792l0,13.585l-11.764,6.792l-11.765,-6.792l-0,-13.585l11.765,-6.792Z" style="fill:none;stroke:#fff;stroke-width:0.34px;"/><path d="M847.539,41.234l11.765,6.792l-0,13.585l-11.765,6.793l-11.765,-6.793l0,-13.585l11.765,-6.792Z" style="fill:none;stroke:#fff;stroke-width:0.34px;"/><path d="M835.774,61.611l11.765,6.793l-0,13.584l-11.765,6.793l-11.765,-6.793l0,-13.584l11.765,-6.793Z" style="fill:none;stroke:#fff;stroke-width:0.34px;"/><path d="M859.304,61.611l11.764,6.793l0,13.584l-11.764,6.793l-11.765,-6.793l-0,-13.584l11.765,-6.793Z" style="fill:none;stroke:#fff;stroke-width:0.34px;"/><path d="M882.833,61.611l11.765,6.793l-0,13.584l-11.765,6.793l-11.765,-6.793l0,-13.584l11.765,-6.793Z" style="fill:none;stroke:#fff;stroke-width:0.34px;"/><path d="M906.362,61.611l11.765,6.793l0,13.584l-11.765,6.793l-11.764,-6.793l-0,-13.584l11.764,-6.793Z" style="fill:none;stroke:#fff;stroke-width:0.34px;"/><path d="M871.068,41.234l11.765,6.792l-0,13.585l-11.765,6.793l-11.764,-6.793l-0,-13.585l11.764,-6.792Z" style="fill:none;stroke:#fff;stroke-width:0.34px;"/><path d="M894.598,41.234l11.764,6.792l0,13.585l-11.764,6.793l-11.765,-6.793l-0,-13.585l11.765,-6.792Z" style="fill:none;stroke:#fff;stroke-width:0.34px;"/><path d="M918.127,0.48l11.765,6.792l-0,13.585l-11.765,6.792l-11.765,-6.792l0,-13.585l11.765,-6.792Z" style="fill:none;stroke:#fff;stroke-width:0.34px;"/><path d="M941.656,0.48l11.765,6.792l0,13.585l-11.765,6.792l-11.764,-6.792l-0,-13.585l11.764,-6.792Z" style="fill:none;stroke:#fff;stroke-width:0.34px;"/><path d="M965.186,0.48l11.765,6.792l-0,13.585l-11.765,6.792l-11.765,-6.792l0,-13.585l11.765,-6.792Z" style="fill:none;stroke:#fff;stroke-width:0.34px;"/><path d="M988.715,0.48l11.765,6.792l0,13.585l-11.765,6.792l-11.764,-6.792l-0,-13.585l11.764,-6.792Z" style="fill:none;stroke:#fff;stroke-width:0.34px;"/><path d="M929.892,20.857l11.764,6.792l0,13.585l-11.764,6.792l-11.765,-6.792l0,-13.585l11.765,-6.792Z" style="fill:none;stroke:#fff;stroke-width:0.34px;"/><path d="M918.127,41.234l11.765,6.792l-0,13.585l-11.765,6.793l-11.765,-6.793l0,-13.585l11.765,-6.792Z" style="fill:none;stroke:#fff;stroke-width:0.34px;"/><path d="M941.656,41.234l11.765,6.792l0,13.585l-11.765,6.793l-11.764,-6.793l-0,-13.585l11.764,-6.792Z" style="fill:none;stroke:#fff;stroke-width:0.34px;"/><path d="M965.186,41.234l11.765,6.792l-0,13.585l-11.765,6.793l-11.765,-6.793l0,-13.585l11.765,-6.792Z" style="fill:none;stroke:#fff;stroke-width:0.34px;"/><path d="M988.715,41.234l11.765,6.792l0,13.585l-11.765,6.793l-11.764,-6.793l-0,-13.585l11.764,-6.792Z" style="fill:none;stroke:#fff;stroke-width:0.34px;"/><path d="M953.421,20.857l11.765,6.792l-0,13.585l-11.765,6.792l-11.765,-6.792l0,-13.585l11.765,-6.792Z" style="fill:none;stroke:#fff;stroke-width:0.34px;"/><path d="M976.951,20.857l11.764,6.792l0,13.585l-11.764,6.792l-11.765,-6.792l-0,-13.585l11.765,-6.792Z" style="fill:none;stroke:#fff;stroke-width:0.34px;"/><path d="M753.421,0.48l11.765,6.792l-0,13.585l-11.765,6.792l-11.765,-6.792l0,-13.585l11.765,-6.792Z" style="fill:none;stroke:#fff;stroke-width:0.34px;"/><path d="M776.951,0.48l11.764,6.792l0,13.585l-11.764,6.792l-11.765,-6.792l-0,-13.585l11.765,-6.792Z" style="fill:none;stroke:#fff;stroke-width:0.34px;"/><path d="M800.48,0.48l11.765,6.792l-0,13.585l-11.765,6.792l-11.765,-6.792l0,-13.585l11.765,-6.792Z" style="fill:none;stroke:#fff;stroke-width:0.34px;"/><path d="M824.009,0.48l11.765,6.792l0,13.585l-11.765,6.792l-11.764,-6.792l-0,-13.585l11.764,-6.792Z" style="fill:none;stroke:#fff;stroke-width:0.34px;"/><path d="M765.186,20.857l11.765,6.792l-0,13.585l-11.765,6.792l-11.765,-6.792l0,-13.585l11.765,-6.792Z" style="fill:none;stroke:#fff;stroke-width:0.34px;"/><path d="M753.421,41.234l11.765,6.792l-0,13.585l-11.765,6.793l-11.765,-6.793l0,-13.585l11.765,-6.792Z" style="fill:none;stroke:#fff;stroke-width:0.34px;"/><path d="M776.951,41.234l11.764,6.792l0,13.585l-11.764,6.793l-11.765,-6.793l-0,-13.585l11.765,-6.792Z" style="fill:none;stroke:#fff;stroke-width:0.34px;"/><path d="M800.48,41.234l11.765,6.792l-0,13.585l-11.765,6.793l-11.765,-6.793l0,-13.585l11.765,-6.792Z" style="fill:none;stroke:#fff;stroke-width:0.34px;"/><path d="M824.009,41.234l11.765,6.792l0,13.585l-11.765,6.793l-11.764,-6.793l-0,-13.585l11.764,-6.792Z" style="fill:none;stroke:#fff;stroke-width:0.34px;"/><path d="M788.715,20.857l11.765,6.792l0,13.585l-11.765,6.792l-11.764,-6.792l-0,-13.585l11.764,-6.792Z" style="fill:none;stroke:#fff;stroke-width:0.34px;"/><path d="M812.245,20.857l11.764,6.792l0,13.585l-11.764,6.792l-11.765,-6.792l0,-13.585l11.765,-6.792Z" style="fill:none;stroke:#fff;stroke-width:0.34px;"/><path d="M765.186,61.611l11.765,6.793l-0,13.584l-11.765,6.793l-11.765,-6.793l0,-13.584l11.765,-6.793Z" style="fill:none;stroke:#fff;stroke-width:0.34px;"/><path d="M753.421,81.988l11.765,6.793l-0,13.584l-11.765,6.793l-11.765,-6.793l0,-13.584l11.765,-6.793Z" style="fill:none;stroke:#fff;stroke-width:0.34px;"/><path d="M776.951,81.988l11.764,6.793l0,13.584l-11.764,6.793l-11.765,-6.793l-0,-13.584l11.765,-6.793Z" style="fill:none;stroke:#fff;stroke-width:0.34px;"/><path d="M800.48,81.988l11.765,6.793l-0,13.584l-11.765,6.793l-11.765,-6.793l0,-13.584l11.765,-6.793Z" style="fill:none;stroke:#fff;stroke-width:0.34px;"/><path d="M824.009,81.988l11.765,6.793l0,13.584l-11.765,6.793l-11.764,-6.793l-0,-13.584l11.764,-6.793Z" style="fill:none;stroke:#fff;stroke-width:0.34px;"/><path d="M788.715,61.611l11.765,6.793l0,13.584l-11.765,6.793l-11.764,-6.793l-0,-13.584l11.764,-6.793Z" style="fill:none;stroke:#fff;stroke-width:0.34px;"/><path d="M812.245,61.611l11.764,6.793l0,13.584l-11.764,6.793l-11.765,-6.793l0,-13.584l11.765,-6.793Z" style="fill:none;stroke:#fff;stroke-width:0.34px;"/><path d="M765.186,102.365l11.765,6.793l-0,13.584l-11.765,6.793l-11.765,-6.793l0,-13.584l11.765,-6.793Z" style="fill:none;stroke:#fff;stroke-width:0.34px;"/><path d="M753.421,122.742l11.765,6.793l-0,13.584l-11.765,6.793l-11.765,-6.793l0,-13.584l11.765,-6.793Z" style="fill:none;stroke:#fff;stroke-width:0.34px;"/><path d="M776.951,122.742l11.764,6.793l0,13.584l-11.764,6.793l-11.765,-6.793l-0,-13.584l11.765,-6.793Z" style="fill:none;stroke:#fff;stroke-width:0.34px;"/><path d="M800.48,122.742l11.765,6.793l-0,13.584l-11.765,6.793l-11.765,-6.793l0,-13.584l11.765,-6.793Z" style="fill:none;stroke:#fff;stroke-width:0.34px;"/><path d="M824.009,122.742l11.765,6.793l0,13.584l-11.765,6.793l-11.764,-6.793l-0,-13.584l11.764,-6.793Z" style="fill:none;stroke:#fff;stroke-width:0.34px;"/><path d="M788.715,102.365l11.765,6.793l0,13.584l-11.765,6.793l-11.764,-6.793l-0,-13.584l11.764,-6.793Z" style="fill:none;stroke:#fff;stroke-width:0.34px;"/><path d="M812.245,102.365l11.764,6.793l0,13.584l-11.764,6.793l-11.765,-6.793l0,-13.584l11.765,-6.793Z" style="fill:none;stroke:#fff;stroke-width:0.34px;"/><path d="M765.186,143.119l11.765,6.793l-0,13.585l-11.765,6.792l-11.765,-6.792l0,-13.585l11.765,-6.793Z" style="fill:none;stroke:#fff;stroke-width:0.34px;"/><path d="M753.421,163.497l11.765,6.792l-0,13.585l-11.765,6.792l-11.765,-6.792l0,-13.585l11.765,-6.792Z" style="fill:none;stroke:#fff;stroke-width:0.34px;"/><path d="M776.951,163.497l11.764,6.792l0,13.585l-11.764,6.792l-11.765,-6.792l-0,-13.585l11.765,-6.792Z" style="fill:none;stroke:#fff;stroke-width:0.34px;"/><path d="M800.48,163.497l11.765,6.792l-0,13.585l-11.765,6.792l-11.765,-6.792l0,-13.585l11.765,-6.792Z" style="fill:none;stroke:#fff;stroke-width:0.34px;"/><path d="M824.009,163.497l11.765,6.792l0,13.585l-11.765,6.792l-11.764,-6.792l-0,-13.585l11.764,-6.792Z" style="fill:none;stroke:#fff;stroke-width:0.34px;"/><path d="M788.715,143.119l11.765,6.793l0,13.585l-11.765,6.792l-11.764,-6.792l-0,-13.585l11.764,-6.793Z" style="fill:none;stroke:#fff;stroke-width:0.34px;"/><path d="M812.245,143.119l11.764,6.793l0,13.585l-11.764,6.792l-11.765,-6.792l0,-13.585l11.765,-6.793Z" style="fill:none;stroke:#fff;stroke-width:0.34px;"/><path d="M765.186,183.874l11.765,6.792l-0,13.585l-11.765,6.792l-11.765,-6.792l0,-13.585l11.765,-6.792Z" style="fill:none;stroke:#fff;stroke-width:0.34px;"/><path d="M753.421,204.251l11.765,6.792l-0,13.585l-11.765,6.792l-11.765,-6.792l0,-13.585l11.765,-6.792Z" style="fill:none;stroke:#fff;stroke-width:0.34px;"/><path d="M776.951,204.251l11.764,6.792l0,13.585l-11.764,6.792l-11.765,-6.792l-0,-13.585l11.765,-6.792Z" style="fill:none;stroke:#fff;stroke-width:0.34px;"/><path d="M800.48,204.251l11.765,6.792l-0,13.585l-11.765,6.792l-11.765,-6.792l0,-13.585l11.765,-6.792Z" style="fill:none;stroke:#fff;stroke-width:0.34px;"/><path d="M824.009,204.251l11.765,6.792l0,13.585l-11.765,6.792l-11.764,-6.792l-0,-13.585l11.764,-6.792Z" style="fill:none;stroke:#fff;stroke-width:0.34px;"/><path d="M788.715,183.874l11.765,6.792l0,13.585l-11.765,6.792l-11.764,-6.792l-0,-13.585l11.764,-6.792Z" style="fill:none;stroke:#fff;stroke-width:0.34px;"/><path d="M812.245,183.874l11.764,6.792l0,13.585l-11.764,6.792l-11.765,-6.792l0,-13.585l11.765,-6.792Z" style="fill:none;stroke:#fff;stroke-width:0.34px;"/><path d="M847.539,163.497l11.765,6.792l-0,13.585l-11.765,6.792l-11.765,-6.792l0,-13.585l11.765,-6.792Z" style="fill:none;stroke:#fff;stroke-width:0.34px;"/><path d="M835.774,183.874l11.765,6.792l-0,13.585l-11.765,6.792l-11.765,-6.792l0,-13.585l11.765,-6.792Z" style="fill:none;stroke:#fff;stroke-width:0.34px;"/><path d="M859.304,183.874l11.764,6.792l0,13.585l-11.764,6.792l-11.765,-6.792l-0,-13.585l11.765,-6.792Z" style="fill:none;stroke:#fff;stroke-width:0.34px;"/><path d="M882.833,183.874l11.765,6.792l-0,13.585l-11.765,6.792l-11.765,-6.792l0,-13.585l11.765,-6.792Z" style="fill:none;stroke:#fff;stroke-width:0.34px;"/><path d="M906.362,183.874l11.765,6.792l0,13.585l-11.765,6.792l-11.764,-6.792l-0,-13.585l11.764,-6.792Z" style="fill:none;stroke:#fff;stroke-width:0.34px;"/><path d="M871.068,163.497l11.765,6.792l-0,13.585l-11.765,6.792l-11.764,-6.792l-0,-13.585l11.764,-6.792Z" style="fill:none;stroke:#fff;stroke-width:0.34px;"/><path d="M894.598,163.497l11.764,6.792l0,13.585l-11.764,6.792l-11.765,-6.792l-0,-13.585l11.765,-6.792Z" style="fill:none;stroke:#fff;stroke-width:0.34px;"/><path d="M847.539,204.251l11.765,6.792l-0,13.585l-11.765,6.792l-11.765,-6.792l0,-13.585l11.765,-6.792Z" style="fill:none;stroke:#fff;stroke-width:0.34px;"/><path d="M835.774,224.628l11.765,6.792l-0,13.585l-11.765,6.792l-11.765,-6.792l0,-13.585l11.765,-6.792Z" style="fill:none;stroke:#fff;stroke-width:0.34px;"/><path d="M859.304,224.628l11.764,6.792l0,13.585l-11.764,6.792l-11.765,-6.792l-0,-13.585l11.765,-6.792Z" style="fill:none;stroke:#fff;stroke-width:0.34px;"/><path d="M882.833,224.628l11.765,6.792l-0,13.585l-11.765,6.792l-11.765,-6.792l0,-13.585l11.765,-6.792Z" style="fill:none;stroke:#fff;stroke-width:0.34px;"/><path d="M906.362,224.628l11.765,6.792l0,13.585l-11.765,6.792l-11.764,-6.792l-0,-13.585l11.764,-6.792Z" style="fill:none;stroke:#fff;stroke-width:0.34px;"/><path d="M871.068,204.251l11.765,6.792l-0,13.585l-11.765,6.792l-11.764,-6.792l-0,-13.585l11.764,-6.792Z" style="fill:none;stroke:#fff;stroke-width:0.34px;"/><path d="M894.598,204.251l11.764,6.792l0,13.585l-11.764,6.792l-11.765,-6.792l-0,-13.585l11.765,-6.792Z" style="fill:none;stroke:#fff;stroke-width:0.34px;"/><path d="M929.892,143.119l11.764,6.793l0,13.585l-11.764,6.792l-11.765,-6.792l0,-13.585l11.765,-6.793Z" style="fill:none;stroke:#fff;stroke-width:0.34px;"/><path d="M918.127,163.497l11.765,6.792l-0,13.585l-11.765,6.792l-11.765,-6.792l0,-13.585l11.765,-6.792Z" style="fill:none;stroke:#fff;stroke-width:0.34px;"/><path d="M941.656,163.497l11.765,6.792l0,13.585l-11.765,6.792l-11.764,-6.792l-0,-13.585l11.764,-6.792Z" style="fill:none;stroke:#fff;stroke-width:0.34px;"/><path d="M965.186,163.497l11.765,6.792l-0,13.585l-11.765,6.792l-11.765,-6.792l0,-13.585l11.765,-6.792Z" style="fill:none;stroke:#fff;stroke-width:0.34px;"/><path d="M988.715,163.497l11.765,6.792l0,13.585l-11.765,6.792l-11.764,-6.792l-0,-13.585l11.764,-6.792Z" style="fill:none;stroke:#fff;stroke-width:0.34px;"/><path d="M953.421,143.119l11.765,6.793l-0,13.585l-11.765,6.792l-11.765,-6.792l0,-13.585l11.765,-6.793Z" style="fill:none;stroke:#fff;stroke-width:0.34px;"/><path d="M976.951,143.119l11.764,6.793l0,13.585l-11.764,6.792l-11.765,-6.792l-0,-13.585l11.765,-6.793Z" style="fill:none;stroke:#fff;stroke-width:0.34px;"/><path d="M929.892,183.874l11.764,6.792l0,13.585l-11.764,6.792l-11.765,-6.792l0,-13.585l11.765,-6.792Z" style="fill:none;stroke:#fff;stroke-width:0.34px;"/><path d="M918.127,204.251l11.765,6.792l-0,13.585l-11.765,6.792l-11.765,-6.792l0,-13.585l11.765,-6.792Z" style="fill:none;stroke:#fff;stroke-width:0.34px;"/><path d="M941.656,204.251l11.765,6.792l0,13.585l-11.765,6.792l-11.764,-6.792l-0,-13.585l11.764,-6.792Z" style="fill:none;stroke:#fff;stroke-width:0.34px;"/><path d="M965.186,204.251l11.765,6.792l-0,13.585l-11.765,6.792l-11.765,-6.792l0,-13.585l11.765,-6.792Z" style="fill:none;stroke:#fff;stroke-width:0.34px;"/><path d="M988.715,204.251l11.765,6.792l0,13.585l-11.765,6.792l-11.764,-6.792l-0,-13.585l11.764,-6.792Z" style="fill:none;stroke:#fff;stroke-width:0.34px;"/><path d="M953.421,183.874l11.765,6.792l-0,13.585l-11.765,6.792l-11.765,-6.792l0,-13.585l11.765,-6.792Z" style="fill:none;stroke:#fff;stroke-width:0.34px;"/><path d="M976.951,183.874l11.764,6.792l0,13.585l-11.764,6.792l-11.765,-6.792l-0,-13.585l11.765,-6.792Z" style="fill:none;stroke:#fff;stroke-width:0.34px;"/><path d="M682.833,0.48l11.765,6.792l-0,13.585l-11.765,6.792l-11.765,-6.792l0,-13.585l11.765,-6.792Z" style="fill:none;stroke:#fff;stroke-width:0.34px;"/><path d="M671.068,20.857l11.765,6.792l-0,13.585l-11.765,6.792l-11.764,-6.792l-0,-13.585l11.764,-6.792Z" style="fill:none;stroke:#fff;stroke-width:0.34px;"/><path d="M694.598,20.857l11.764,6.792l0,13.585l-11.764,6.792l-11.765,-6.792l-0,-13.585l11.765,-6.792Z" style="fill:none;stroke:#fff;stroke-width:0.34px;"/><path d="M718.127,20.857l11.765,6.792l-0,13.585l-11.765,6.792l-11.765,-6.792l0,-13.585l11.765,-6.792Z" style="fill:none;stroke:#fff;stroke-width:0.34px;"/><path d="M741.656,20.857l11.765,6.792l0,13.585l-11.765,6.792l-11.764,-6.792l-0,-13.585l11.764,-6.792Z" style="fill:none;stroke:#fff;stroke-width:0.34px;"/><path d="M706.362,0.48l11.765,6.792l0,13.585l-11.765,6.792l-11.764,-6.792l-0,-13.585l11.764,-6.792Z" style="fill:none;stroke:#fff;stroke-width:0.34px;"/><path d="M729.892,0.48l11.764,6.792l0,13.585l-11.764,6.792l-11.765,-6.792l0,-13.585l11.765,-6.792Z" style="fill:none;stroke:#fff;stroke-width:0.34px;"/><path d="M682.833,41.234l11.765,6.792l-0,13.585l-11.765,6.793l-11.765,-6.793l0,-13.585l11.765,-6.792Z" style="fill:none;stroke:#fff;stroke-width:0.34px;"/><path d="M671.068,61.611l11.765,6.793l-0,13.584l-11.765,6.793l-11.764,-6.793l-0,-13.584l11.764,-6.793Z" style="fill:none;stroke:#fff;stroke-width:0.34px;"/><path d="M694.598,61.611l11.764,6.793l0,13.584l-11.764,6.793l-11.765,-6.793l-0,-13.584l11.765,-6.793Z" style="fill:none;stroke:#fff;stroke-width:0.34px;"/><path d="M718.127,61.611l11.765,6.793l-0,13.584l-11.765,6.793l-11.765,-6.793l0,-13.584l11.765,-6.793Z" style="fill:none;stroke:#fff;stroke-width:0.34px;"/><path d="M741.656,61.611l11.765,6.793l0,13.584l-11.765,6.793l-11.764,-6.793l-0,-13.584l11.764,-6.793Z" style="fill:none;stroke:#fff;stroke-width:0.34px;"/><path d="M706.362,41.234l11.765,6.792l0,13.585l-11.765,6.793l-11.764,-6.793l-0,-13.585l11.764,-6.792Z" style="fill:none;stroke:#fff;stroke-width:0.34px;"/><path d="M729.892,41.234l11.764,6.792l0,13.585l-11.764,6.793l-11.765,-6.793l0,-13.585l11.765,-6.792Z" style="fill:none;stroke:#fff;stroke-width:0.34px;"/><path d="M682.833,81.988l11.765,6.793l-0,13.584l-11.765,6.793l-11.765,-6.793l0,-13.584l11.765,-6.793Z" style="fill:none;stroke:#fff;stroke-width:0.34px;"/><path d="M671.068,102.365l11.765,6.793l-0,13.584l-11.765,6.793l-11.764,-6.793l-0,-13.584l11.764,-6.793Z" style="fill:none;stroke:#fff;stroke-width:0.34px;"/><path d="M694.598,102.365l11.764,6.793l0,13.584l-11.764,6.793l-11.765,-6.793l-0,-13.584l11.765,-6.793Z" style="fill:none;stroke:#fff;stroke-width:0.34px;"/><path d="M718.127,102.365l11.765,6.793l-0,13.584l-11.765,6.793l-11.765,-6.793l0,-13.584l11.765,-6.793Z" style="fill:none;stroke:#fff;stroke-width:0.34px;"/><path d="M741.656,102.365l11.765,6.793l0,13.584l-11.765,6.793l-11.764,-6.793l-0,-13.584l11.764,-6.793Z" style="fill:none;stroke:#fff;stroke-width:0.34px;"/><path d="M706.362,81.988l11.765,6.793l0,13.584l-11.765,6.793l-11.764,-6.793l-0,-13.584l11.764,-6.793Z" style="fill:none;stroke:#fff;stroke-width:0.34px;"/><path d="M729.892,81.988l11.764,6.793l0,13.584l-11.764,6.793l-11.765,-6.793l0,-13.584l11.765,-6.793Z" style="fill:none;stroke:#fff;stroke-width:0.34px;"/><path d="M682.833,122.742l11.765,6.793l-0,13.584l-11.765,6.793l-11.765,-6.793l0,-13.584l11.765,-6.793Z" style="fill:none;stroke:#fff;stroke-width:0.34px;"/><path d="M671.068,143.119l11.765,6.793l-0,13.585l-11.765,6.792l-11.764,-6.792l-0,-13.585l11.764,-6.793Z" style="fill:none;stroke:#fff;stroke-width:0.34px;"/><path d="M694.598,143.119l11.764,6.793l0,13.585l-11.764,6.792l-11.765,-6.792l-0,-13.585l11.765,-6.793Z" style="fill:none;stroke:#fff;stroke-width:0.34px;"/><path d="M718.127,143.119l11.765,6.793l-0,13.585l-11.765,6.792l-11.765,-6.792l0,-13.585l11.765,-6.793Z" style="fill:none;stroke:#fff;stroke-width:0.34px;"/><path d="M741.656,143.119l11.765,6.793l0,13.585l-11.765,6.792l-11.764,-6.792l-0,-13.585l11.764,-6.793Z" style="fill:none;stroke:#fff;stroke-width:0.34px;"/><path d="M706.362,122.742l11.765,6.793l0,13.584l-11.765,6.793l-11.764,-6.793l-0,-13.584l11.764,-6.793Z" style="fill:none;stroke:#fff;stroke-width:0.34px;"/><path d="M729.892,122.742l11.764,6.793l0,13.584l-11.764,6.793l-11.765,-6.793l0,-13.584l11.765,-6.793Z" style="fill:none;stroke:#fff;stroke-width:0.34px;"/><path d="M682.833,163.497l11.765,6.792l-0,13.585l-11.765,6.792l-11.765,-6.792l0,-13.585l11.765,-6.792Z" style="fill:none;stroke:#fff;stroke-width:0.34px;"/><path d="M671.068,183.874l11.765,6.792l-0,13.585l-11.765,6.792l-11.764,-6.792l-0,-13.585l11.764,-6.792Z" style="fill:none;stroke:#fff;stroke-width:0.34px;"/><path d="M694.598,183.874l11.764,6.792l0,13.585l-11.764,6.792l-11.765,-6.792l-0,-13.585l11.765,-6.792Z" style="fill:none;stroke:#fff;stroke-width:0.34px;"/><path d="M718.127,183.874l11.765,6.792l-0,13.585l-11.765,6.792l-11.765,-6.792l0,-13.585l11.765,-6.792Z" style="fill:none;stroke:#fff;stroke-width:0.34px;"/><path d="M741.656,183.874l11.765,6.792l0,13.585l-11.765,6.792l-11.764,-6.792l-0,-13.585l11.764,-6.792Z" style="fill:none;stroke:#fff;stroke-width:0.34px;"/><path d="M706.362,163.497l11.765,6.792l0,13.585l-11.765,6.792l-11.764,-6.792l-0,-13.585l11.764,-6.792Z" style="fill:none;stroke:#fff;stroke-width:0.34px;"/><path d="M729.892,163.497l11.764,6.792l0,13.585l-11.764,6.792l-11.765,-6.792l0,-13.585l11.765,-6.792Z" style="fill:none;stroke:#fff;stroke-width:0.34px;"/><path d="M682.833,204.251l11.765,6.792l-0,13.585l-11.765,6.792l-11.765,-6.792l0,-13.585l11.765,-6.792Z" style="fill:none;stroke:#fff;stroke-width:0.34px;"/><path d="M671.068,224.628l11.765,6.792l-0,13.585l-11.765,6.792l-11.764,-6.792l-0,-13.585l11.764,-6.792Z" style="fill:none;stroke:#fff;stroke-width:0.34px;"/><path d="M694.598,224.628l11.764,6.792l0,13.585l-11.764,6.792l-11.765,-6.792l-0,-13.585l11.765,-6.792Z" style="fill:none;stroke:#fff;stroke-width:0.34px;"/><path d="M718.127,224.628l11.765,6.792l-0,13.585l-11.765,6.792l-11.765,-6.792l0,-13.585l11.765,-6.792Z" style="fill:none;stroke:#fff;stroke-width:0.34px;"/><path d="M741.656,224.628l11.765,6.792l0,13.585l-11.765,6.792l-11.764,-6.792l-0,-13.585l11.764,-6.792Z" style="fill:none;stroke:#fff;stroke-width:0.34px;"/><path d="M706.362,204.251l11.765,6.792l0,13.585l-11.765,6.792l-11.764,-6.792l-0,-13.585l11.764,-6.792Z" style="fill:none;stroke:#fff;stroke-width:0.34px;"/><path d="M729.892,204.251l11.764,6.792l0,13.585l-11.764,6.792l-11.765,-6.792l0,-13.585l11.765,-6.792Z" style="fill:none;stroke:#fff;stroke-width:0.34px;"/><path d="M765.186,224.628l11.765,6.792l-0,13.585l-11.765,6.792l-11.765,-6.792l0,-13.585l11.765,-6.792Z" style="fill:none;stroke:#fff;stroke-width:0.34px;"/><path d="M788.715,224.628l11.765,6.792l0,13.585l-11.765,6.792l-11.764,-6.792l-0,-13.585l11.764,-6.792Z" style="fill:none;stroke:#fff;stroke-width:0.34px;"/><path d="M812.245,224.628l11.764,6.792l0,13.585l-11.764,6.792l-11.765,-6.792l0,-13.585l11.765,-6.792Z" style="fill:none;stroke:#fff;stroke-width:0.34px;"/><path d="M929.892,224.628l11.764,6.792l0,13.585l-11.764,6.792l-11.765,-6.792l0,-13.585l11.765,-6.792Z" style="fill:none;stroke:#fff;stroke-width:0.34px;"/><path d="M953.421,224.628l11.765,6.792l-0,13.585l-11.765,6.792l-11.765,-6.792l0,-13.585l11.765,-6.792Z" style="fill:none;stroke:#fff;stroke-width:0.34px;"/><path d="M976.951,224.628l11.764,6.792l0,13.585l-11.764,6.792l-11.765,-6.792l-0,-13.585l11.765,-6.792Z" style="fill:none;stroke:#fff;stroke-width:0.34px;"/><path d="M188.715,81.988l11.765,6.793l0,13.584l-11.765,6.793l-11.764,-6.793l-0,-13.584l11.764,-6.793Z" style="fill:none;stroke:#fff;stroke-width:0.34px;"/><path d="M176.951,102.365l11.764,6.793l0,13.584l-11.764,6.793l-11.765,-6.793l-0,-13.584l11.765,-6.793Z" style="fill:none;stroke:#fff;stroke-width:0.34px;"/><path d="M200.48,102.365l11.765,6.793l-0,13.584l-11.765,6.793l-11.765,-6.793l0,-13.584l11.765,-6.793Z" style="fill:none;stroke:#fff;stroke-width:0.34px;"/><path d="M224.009,102.365l11.765,6.793l0,13.584l-11.765,6.793l-11.764,-6.793l-0,-13.584l11.764,-6.793Z" style="fill:none;stroke:#fff;stroke-width:0.34px;"/><path d="M247.539,102.365l11.765,6.793l-0,13.584l-11.765,6.793l-11.765,-6.793l0,-13.584l11.765,-6.793Z" style="fill:none;stroke:#fff;stroke-width:0.34px;"/><path d="M212.245,81.988l11.764,6.793l0,13.584l-11.764,6.793l-11.765,-6.793l0,-13.584l11.765,-6.793Z" style="fill:none;stroke:#fff;stroke-width:0.34px;"/><path d="M235.774,81.988l11.765,6.793l-0,13.584l-11.765,6.793l-11.765,-6.793l0,-13.584l11.765,-6.793Z" style="fill:none;stroke:#fff;stroke-width:0.34px;"/><path d="M188.715,122.742l11.765,6.793l0,13.584l-11.765,6.793l-11.764,-6.793l-0,-13.584l11.764,-6.793Z" style="fill:none;stroke:#fff;stroke-width:0.34px;"/><path d="M176.951,143.119l11.764,6.793l0,13.585l-11.764,6.792l-11.765,-6.792l-0,-13.585l11.765,-6.793Z" style="fill:none;stroke:#fff;stroke-width:0.34px;"/><path d="M200.48,143.119l11.765,6.793l-0,13.585l-11.765,6.792l-11.765,-6.792l0,-13.585l11.765,-6.793Z" style="fill:none;stroke:#fff;stroke-width:0.34px;"/><path d="M224.009,143.119l11.765,6.793l0,13.585l-11.765,6.792l-11.764,-6.792l-0,-13.585l11.764,-6.793Z" style="fill:none;stroke:#fff;stroke-width:0.34px;"/><path d="M247.539,143.119l11.765,6.793l-0,13.585l-11.765,6.792l-11.765,-6.792l0,-13.585l11.765,-6.793Z" style="fill:none;stroke:#fff;stroke-width:0.34px;"/><path d="M212.245,122.742l11.764,6.793l0,13.584l-11.764,6.793l-11.765,-6.793l0,-13.584l11.765,-6.793Z" style="fill:none;stroke:#fff;stroke-width:0.34px;"/><path d="M235.774,122.742l11.765,6.793l-0,13.584l-11.765,6.793l-11.765,-6.793l0,-13.584l11.765,-6.793Z" style="fill:none;stroke:#fff;stroke-width:0.34px;"/><path d="M271.068,61.611l11.765,6.793l-0,13.584l-11.765,6.793l-11.764,-6.793l-0,-13.584l11.764,-6.793Z" style="fill:none;stroke:#fff;stroke-width:0.34px;"/><path d="M259.304,81.988l11.764,6.793l0,13.584l-11.764,6.793l-11.765,-6.793l-0,-13.584l11.765,-6.793Z" style="fill:none;stroke:#fff;stroke-width:0.34px;"/><path d="M282.833,81.988l11.765,6.793l-0,13.584l-11.765,6.793l-11.765,-6.793l0,-13.584l11.765,-6.793Z" style="fill:none;stroke:#fff;stroke-width:0.34px;"/><path d="M306.362,81.988l11.765,6.793l0,13.584l-11.765,6.793l-11.764,-6.793l-0,-13.584l11.764,-6.793Z" style="fill:none;stroke:#fff;stroke-width:0.34px;"/><path d="M329.892,81.988l11.764,6.793l0,13.584l-11.764,6.793l-11.765,-6.793l0,-13.584l11.765,-6.793Z" style="fill:none;stroke:#fff;stroke-width:0.34px;"/><path d="M294.598,61.611l11.764,6.793l0,13.584l-11.764,6.793l-11.765,-6.793l-0,-13.584l11.765,-6.793Z" style="fill:none;stroke:#fff;stroke-width:0.34px;"/><path d="M318.127,61.611l11.765,6.793l-0,13.584l-11.765,6.793l-11.765,-6.793l0,-13.584l11.765,-6.793Z" style="fill:none;stroke:#fff;stroke-width:0.34px;"/><path d="M271.068,102.365l11.765,6.793l-0,13.584l-11.765,6.793l-11.764,-6.793l-0,-13.584l11.764,-6.793Z" style="fill:none;stroke:#fff;stroke-width:0.34px;"/><path d="M259.304,122.742l11.764,6.793l0,13.584l-11.764,6.793l-11.765,-6.793l-0,-13.584l11.765,-6.793Z" style="fill:none;stroke:#fff;stroke-width:0.34px;"/><path d="M282.833,122.742l11.765,6.793l-0,13.584l-11.765,6.793l-11.765,-6.793l0,-13.584l11.765,-6.793Z" style="fill:none;stroke:#fff;stroke-width:0.34px;"/><path d="M306.362,122.742l11.765,6.793l0,13.584l-11.765,6.793l-11.764,-6.793l-0,-13.584l11.764,-6.793Z" style="fill:none;stroke:#fff;stroke-width:0.34px;"/><path d="M329.892,122.742l11.764,6.793l0,13.584l-11.764,6.793l-11.765,-6.793l0,-13.584l11.765,-6.793Z" style="fill:none;stroke:#fff;stroke-width:0.34px;"/><path d="M294.598,102.365l11.764,6.793l0,13.584l-11.764,6.793l-11.765,-6.793l-0,-13.584l11.765,-6.793Z" style="fill:none;stroke:#fff;stroke-width:0.34px;"/><path d="M318.127,102.365l11.765,6.793l-0,13.584l-11.765,6.793l-11.765,-6.793l0,-13.584l11.765,-6.793Z" style="fill:none;stroke:#fff;stroke-width:0.34px;"/><path d="M188.715,0.48l11.765,6.792l0,13.585l-11.765,6.792l-11.764,-6.792l-0,-13.585l11.764,-6.792Z" style="fill:none;stroke:#fff;stroke-width:0.34px;"/><path d="M176.951,20.857l11.764,6.792l0,13.585l-11.764,6.792l-11.765,-6.792l-0,-13.585l11.765,-6.792Z" style="fill:none;stroke:#fff;stroke-width:0.34px;"/><path d="M200.48,20.857l11.765,6.792l-0,13.585l-11.765,6.792l-11.765,-6.792l0,-13.585l11.765,-6.792Z" style="fill:none;stroke:#fff;stroke-width:0.34px;"/><path d="M224.009,20.857l11.765,6.792l0,13.585l-11.765,6.792l-11.764,-6.792l-0,-13.585l11.764,-6.792Z" style="fill:none;stroke:#fff;stroke-width:0.34px;"/><path d="M247.539,20.857l11.765,6.792l-0,13.585l-11.765,6.792l-11.765,-6.792l0,-13.585l11.765,-6.792Z" style="fill:none;stroke:#fff;stroke-width:0.34px;"/><path d="M212.245,0.48l11.764,6.792l0,13.585l-11.764,6.792l-11.765,-6.792l0,-13.585l11.765,-6.792Z" style="fill:none;stroke:#fff;stroke-width:0.34px;"/><path d="M235.774,0.48l11.765,6.792l-0,13.585l-11.765,6.792l-11.765,-6.792l0,-13.585l11.765,-6.792Z" style="fill:none;stroke:#fff;stroke-width:0.34px;"/><path d="M188.715,41.234l11.765,6.792l0,13.585l-11.765,6.793l-11.764,-6.793l-0,-13.585l11.764,-6.792Z" style="fill:none;stroke:#fff;stroke-width:0.34px;"/><path d="M176.951,61.611l11.764,6.793l0,13.584l-11.764,6.793l-11.765,-6.793l-0,-13.584l11.765,-6.793Z" style="fill:none;stroke:#fff;stroke-width:0.34px;"/><path d="M200.48,61.611l11.765,6.793l-0,13.584l-11.765,6.793l-11.765,-6.793l0,-13.584l11.765,-6.793Z" style="fill:none;stroke:#fff;stroke-width:0.34px;"/><path d="M224.009,61.611l11.765,6.793l0,13.584l-11.765,6.793l-11.764,-6.793l-0,-13.584l11.764,-6.793Z" style="fill:none;stroke:#fff;stroke-width:0.34px;"/><path d="M247.539,61.611l11.765,6.793l-0,13.584l-11.765,6.793l-11.765,-6.793l0,-13.584l11.765,-6.793Z" style="fill:none;stroke:#fff;stroke-width:0.34px;"/><path d="M212.245,41.234l11.764,6.792l0,13.585l-11.764,6.793l-11.765,-6.793l0,-13.585l11.765,-6.792Z" style="fill:none;stroke:#fff;stroke-width:0.34px;"/><path d="M235.774,41.234l11.765,6.792l-0,13.585l-11.765,6.793l-11.765,-6.793l0,-13.585l11.765,-6.792Z" style="fill:none;stroke:#fff;stroke-width:0.34px;"/><path d="M259.304,0.48l11.764,6.792l0,13.585l-11.764,6.792l-11.765,-6.792l-0,-13.585l11.765,-6.792Z" style="fill:none;stroke:#fff;stroke-width:0.34px;"/><path d="M282.833,0.48l11.765,6.792l-0,13.585l-11.765,6.792l-11.765,-6.792l0,-13.585l11.765,-6.792Z" style="fill:none;stroke:#fff;stroke-width:0.34px;"/><path d="M306.362,0.48l11.765,6.792l0,13.585l-11.765,6.792l-11.764,-6.792l-0,-13.585l11.764,-6.792Z" style="fill:none;stroke:#fff;stroke-width:0.34px;"/><path d="M329.892,0.48l11.764,6.792l0,13.585l-11.764,6.792l-11.765,-6.792l0,-13.585l11.765,-6.792Z" style="fill:none;stroke:#fff;stroke-width:0.34px;"/><path d="M271.068,20.857l11.765,6.792l-0,13.585l-11.765,6.792l-11.764,-6.792l-0,-13.585l11.764,-6.792Z" style="fill:none;stroke:#fff;stroke-width:0.34px;"/><path d="M259.304,41.234l11.764,6.792l0,13.585l-11.764,6.793l-11.765,-6.793l-0,-13.585l11.765,-6.792Z" style="fill:none;stroke:#fff;stroke-width:0.34px;"/><path d="M282.833,41.234l11.765,6.792l-0,13.585l-11.765,6.793l-11.765,-6.793l0,-13.585l11.765,-6.792Z" style="fill:none;stroke:#fff;stroke-width:0.34px;"/><path d="M306.362,41.234l11.765,6.792l0,13.585l-11.765,6.793l-11.764,-6.793l-0,-13.585l11.764,-6.792Z" style="fill:none;stroke:#fff;stroke-width:0.34px;"/><path d="M329.892,41.234l11.764,6.792l0,13.585l-11.764,6.793l-11.765,-6.793l0,-13.585l11.765,-6.792Z" style="fill:none;stroke:#fff;stroke-width:0.34px;"/><path d="M294.598,20.857l11.764,6.792l0,13.585l-11.764,6.792l-11.765,-6.792l-0,-13.585l11.765,-6.792Z" style="fill:none;stroke:#fff;stroke-width:0.34px;"/><path d="M318.127,20.857l11.765,6.792l-0,13.585l-11.765,6.792l-11.765,-6.792l0,-13.585l11.765,-6.792Z" style="fill:none;stroke:#fff;stroke-width:0.34px;"/><path d="M94.598,0.48l11.764,6.792l0,13.585l-11.764,6.792l-11.765,-6.792l-0,-13.585l11.765,-6.792Z" style="fill:none;stroke:#fff;stroke-width:0.34px;"/><path d="M118.127,0.48l11.765,6.792l-0,13.585l-11.765,6.792l-11.765,-6.792l0,-13.585l11.765,-6.792Z" style="fill:none;stroke:#fff;stroke-width:0.34px;"/><path d="M141.656,0.48l11.765,6.792l0,13.585l-11.765,6.792l-11.764,-6.792l-0,-13.585l11.764,-6.792Z" style="fill:none;stroke:#fff;stroke-width:0.34px;"/><path d="M165.186,0.48l11.765,6.792l-0,13.585l-11.765,6.792l-11.765,-6.792l0,-13.585l11.765,-6.792Z" style="fill:none;stroke:#fff;stroke-width:0.34px;"/><path d="M106.362,20.857l11.765,6.792l0,13.585l-11.765,6.792l-11.764,-6.792l-0,-13.585l11.764,-6.792Z" style="fill:none;stroke:#fff;stroke-width:0.34px;"/><path d="M94.598,41.234l11.764,6.792l0,13.585l-11.764,6.793l-11.765,-6.793l-0,-13.585l11.765,-6.792Z" style="fill:none;stroke:#fff;stroke-width:0.34px;"/><path d="M118.127,41.234l11.765,6.792l-0,13.585l-11.765,6.793l-11.765,-6.793l0,-13.585l11.765,-6.792Z" style="fill:none;stroke:#fff;stroke-width:0.34px;"/><path d="M141.656,41.234l11.765,6.792l0,13.585l-11.765,6.793l-11.764,-6.793l-0,-13.585l11.764,-6.792Z" style="fill:none;stroke:#fff;stroke-width:0.34px;"/><path d="M165.186,41.234l11.765,6.792l-0,13.585l-11.765,6.793l-11.765,-6.793l0,-13.585l11.765,-6.792Z" style="fill:none;stroke:#fff;stroke-width:0.34px;"/><path d="M129.892,20.857l11.764,6.792l0,13.585l-11.764,6.792l-11.765,-6.792l0,-13.585l11.765,-6.792Z" style="fill:none;stroke:#fff;stroke-width:0.34px;"/><path d="M153.421,20.857l11.765,6.792l-0,13.585l-11.765,6.792l-11.765,-6.792l0,-13.585l11.765,-6.792Z" style="fill:none;stroke:#fff;stroke-width:0.34px;"/><path d="M106.362,61.611l11.765,6.793l0,13.584l-11.765,6.793l-11.764,-6.793l-0,-13.584l11.764,-6.793Z" style="fill:none;stroke:#fff;stroke-width:0.34px;"/><path d="M94.598,81.988l11.764,6.793l0,13.584l-11.764,6.793l-11.765,-6.793l-0,-13.584l11.765,-6.793Z" style="fill:none;stroke:#fff;stroke-width:0.34px;"/><path d="M118.127,81.988l11.765,6.793l-0,13.584l-11.765,6.793l-11.765,-6.793l0,-13.584l11.765,-6.793Z" style="fill:none;stroke:#fff;stroke-width:0.34px;"/><path d="M141.656,81.988l11.765,6.793l0,13.584l-11.765,6.793l-11.764,-6.793l-0,-13.584l11.764,-6.793Z" style="fill:none;stroke:#fff;stroke-width:0.34px;"/><path d="M165.186,81.988l11.765,6.793l-0,13.584l-11.765,6.793l-11.765,-6.793l0,-13.584l11.765,-6.793Z" style="fill:none;stroke:#fff;stroke-width:0.34px;"/><path d="M129.892,61.611l11.764,6.793l0,13.584l-11.764,6.793l-11.765,-6.793l0,-13.584l11.765,-6.793Z" style="fill:none;stroke:#fff;stroke-width:0.34px;"/><path d="M153.421,61.611l11.765,6.793l-0,13.584l-11.765,6.793l-11.765,-6.793l0,-13.584l11.765,-6.793Z" style="fill:none;stroke:#fff;stroke-width:0.34px;"/><path d="M106.362,102.365l11.765,6.793l0,13.584l-11.765,6.793l-11.764,-6.793l-0,-13.584l11.764,-6.793Z" style="fill:none;stroke:#fff;stroke-width:0.34px;"/><path d="M94.598,122.742l11.764,6.793l0,13.584l-11.764,6.793l-11.765,-6.793l-0,-13.584l11.765,-6.793Z" style="fill:none;stroke:#fff;stroke-width:0.34px;"/><path d="M118.127,122.742l11.765,6.793l-0,13.584l-11.765,6.793l-11.765,-6.793l0,-13.584l11.765,-6.793Z" style="fill:none;stroke:#fff;stroke-width:0.34px;"/><path d="M141.656,122.742l11.765,6.793l0,13.584l-11.765,6.793l-11.764,-6.793l-0,-13.584l11.764,-6.793Z" style="fill:none;stroke:#fff;stroke-width:0.34px;"/><path d="M165.186,122.742l11.765,6.793l-0,13.584l-11.765,6.793l-11.765,-6.793l0,-13.584l11.765,-6.793Z" style="fill:none;stroke:#fff;stroke-width:0.34px;"/><path d="M129.892,102.365l11.764,6.793l0,13.584l-11.764,6.793l-11.765,-6.793l0,-13.584l11.765,-6.793Z" style="fill:none;stroke:#fff;stroke-width:0.34px;"/><path d="M153.421,102.365l11.765,6.793l-0,13.584l-11.765,6.793l-11.765,-6.793l0,-13.584l11.765,-6.793Z" style="fill:none;stroke:#fff;stroke-width:0.34px;"/><path d="M106.362,143.119l11.765,6.793l0,13.585l-11.765,6.792l-11.764,-6.792l-0,-13.585l11.764,-6.793Z" style="fill:none;stroke:#fff;stroke-width:0.34px;"/><path d="M94.598,163.497l11.764,6.792l0,13.585l-11.764,6.792l-11.765,-6.792l-0,-13.585l11.765,-6.792Z" style="fill:none;stroke:#fff;stroke-width:0.34px;"/><path d="M118.127,163.497l11.765,6.792l-0,13.585l-11.765,6.792l-11.765,-6.792l0,-13.585l11.765,-6.792Z" style="fill:none;stroke:#fff;stroke-width:0.34px;"/><path d="M141.656,163.497l11.765,6.792l0,13.585l-11.765,6.792l-11.764,-6.792l-0,-13.585l11.764,-6.792Z" style="fill:none;stroke:#fff;stroke-width:0.34px;"/><path d="M165.186,163.497l11.765,6.792l-0,13.585l-11.765,6.792l-11.765,-6.792l0,-13.585l11.765,-6.792Z" style="fill:none;stroke:#fff;stroke-width:0.34px;"/><path d="M129.892,143.119l11.764,6.793l0,13.585l-11.764,6.792l-11.765,-6.792l0,-13.585l11.765,-6.793Z" style="fill:none;stroke:#fff;stroke-width:0.34px;"/><path d="M153.421,143.119l11.765,6.793l-0,13.585l-11.765,6.792l-11.765,-6.792l0,-13.585l11.765,-6.793Z" style="fill:none;stroke:#fff;stroke-width:0.34px;"/><path d="M106.362,183.874l11.765,6.792l0,13.585l-11.765,6.792l-11.764,-6.792l-0,-13.585l11.764,-6.792Z" style="fill:none;stroke:#fff;stroke-width:0.34px;"/><path d="M94.598,204.251l11.764,6.792l0,13.585l-11.764,6.792l-11.765,-6.792l-0,-13.585l11.765,-6.792Z" style="fill:none;stroke:#fff;stroke-width:0.34px;"/><path d="M118.127,204.251l11.765,6.792l-0,13.585l-11.765,6.792l-11.765,-6.792l0,-13.585l11.765,-6.792Z" style="fill:none;stroke:#fff;stroke-width:0.34px;"/><path d="M141.656,204.251l11.765,6.792l0,13.585l-11.765,6.792l-11.764,-6.792l-0,-13.585l11.764,-6.792Z" style="fill:none;stroke:#fff;stroke-width:0.34px;"/><path d="M165.186,204.251l11.765,6.792l-0,13.585l-11.765,6.792l-11.765,-6.792l0,-13.585l11.765,-6.792Z" style="fill:none;stroke:#fff;stroke-width:0.34px;"/><path d="M129.892,183.874l11.764,6.792l0,13.585l-11.764,6.792l-11.765,-6.792l0,-13.585l11.765,-6.792Z" style="fill:none;stroke:#fff;stroke-width:0.34px;"/><path d="M153.421,183.874l11.765,6.792l-0,13.585l-11.765,6.792l-11.765,-6.792l0,-13.585l11.765,-6.792Z" style="fill:none;stroke:#fff;stroke-width:0.34px;"/><path d="M188.715,163.497l11.765,6.792l0,13.585l-11.765,6.792l-11.764,-6.792l-0,-13.585l11.764,-6.792Z" style="fill:none;stroke:#fff;stroke-width:0.34px;"/><path d="M176.951,183.874l11.764,6.792l0,13.585l-11.764,6.792l-11.765,-6.792l-0,-13.585l11.765,-6.792Z" style="fill:none;stroke:#fff;stroke-width:0.34px;"/><path d="M200.48,183.874l11.765,6.792l-0,13.585l-11.765,6.792l-11.765,-6.792l0,-13.585l11.765,-6.792Z" style="fill:none;stroke:#fff;stroke-width:0.34px;"/><path d="M224.009,183.874l11.765,6.792l0,13.585l-11.765,6.792l-11.764,-6.792l-0,-13.585l11.764,-6.792Z" style="fill:none;stroke:#fff;stroke-width:0.34px;"/><path d="M247.539,183.874l11.765,6.792l-0,13.585l-11.765,6.792l-11.765,-6.792l0,-13.585l11.765,-6.792Z" style="fill:none;stroke:#fff;stroke-width:0.34px;"/><path d="M212.245,163.497l11.764,6.792l0,13.585l-11.764,6.792l-11.765,-6.792l0,-13.585l11.765,-6.792Z" style="fill:none;stroke:#fff;stroke-width:0.34px;"/><path d="M235.774,163.497l11.765,6.792l-0,13.585l-11.765,6.792l-11.765,-6.792l0,-13.585l11.765,-6.792Z" style="fill:none;stroke:#fff;stroke-width:0.34px;"/><path d="M188.715,204.251l11.765,6.792l0,13.585l-11.765,6.792l-11.764,-6.792l-0,-13.585l11.764,-6.792Z" style="fill:none;stroke:#fff;stroke-width:0.34px;"/><path d="M176.951,224.628l11.764,6.792l0,13.585l-11.764,6.792l-11.765,-6.792l-0,-13.585l11.765,-6.792Z" style="fill:none;stroke:#fff;stroke-width:0.34px;"/><path d="M200.48,224.628l11.765,6.792l-0,13.585l-11.765,6.792l-11.765,-6.792l0,-13.585l11.765,-6.792Z" style="fill:none;stroke:#fff;stroke-width:0.34px;"/><path d="M224.009,224.628l11.765,6.792l0,13.585l-11.765,6.792l-11.764,-6.792l-0,-13.585l11.764,-6.792Z" style="fill:none;stroke:#fff;stroke-width:0.34px;"/><path d="M247.539,224.628l11.765,6.792l-0,13.585l-11.765,6.792l-11.765,-6.792l0,-13.585l11.765,-6.792Z" style="fill:none;stroke:#fff;stroke-width:0.34px;"/><path d="M212.245,204.251l11.764,6.792l0,13.585l-11.764,6.792l-11.765,-6.792l0,-13.585l11.765,-6.792Z" style="fill:none;stroke:#fff;stroke-width:0.34px;"/><path d="M235.774,204.251l11.765,6.792l-0,13.585l-11.765,6.792l-11.765,-6.792l0,-13.585l11.765,-6.792Z" style="fill:none;stroke:#fff;stroke-width:0.34px;"/><path d="M271.068,143.119l11.765,6.793l-0,13.585l-11.765,6.792l-11.764,-6.792l-0,-13.585l11.764,-6.793Z" style="fill:none;stroke:#fff;stroke-width:0.34px;"/><path d="M259.304,163.497l11.764,6.792l0,13.585l-11.764,6.792l-11.765,-6.792l-0,-13.585l11.765,-6.792Z" style="fill:none;stroke:#fff;stroke-width:0.34px;"/><path d="M282.833,163.497l11.765,6.792l-0,13.585l-11.765,6.792l-11.765,-6.792l0,-13.585l11.765,-6.792Z" style="fill:none;stroke:#fff;stroke-width:0.34px;"/><path d="M306.362,163.497l11.765,6.792l0,13.585l-11.765,6.792l-11.764,-6.792l-0,-13.585l11.764,-6.792Z" style="fill:none;stroke:#fff;stroke-width:0.34px;"/><path d="M329.892,163.497l11.764,6.792l0,13.585l-11.764,6.792l-11.765,-6.792l0,-13.585l11.765,-6.792Z" style="fill:none;stroke:#fff;stroke-width:0.34px;"/><path d="M294.598,143.119l11.764,6.793l0,13.585l-11.764,6.792l-11.765,-6.792l-0,-13.585l11.765,-6.793Z" style="fill:none;stroke:#fff;stroke-width:0.34px;"/><path d="M318.127,143.119l11.765,6.793l-0,13.585l-11.765,6.792l-11.765,-6.792l0,-13.585l11.765,-6.793Z" style="fill:none;stroke:#fff;stroke-width:0.34px;"/><path d="M271.068,183.874l11.765,6.792l-0,13.585l-11.765,6.792l-11.764,-6.792l-0,-13.585l11.764,-6.792Z" style="fill:none;stroke:#fff;stroke-width:0.34px;"/><path d="M259.304,204.251l11.764,6.792l0,13.585l-11.764,6.792l-11.765,-6.792l-0,-13.585l11.765,-6.792Z" style="fill:none;stroke:#fff;stroke-width:0.34px;"/><path d="M282.833,204.251l11.765,6.792l-0,13.585l-11.765,6.792l-11.765,-6.792l0,-13.585l11.765,-6.792Z" style="fill:none;stroke:#fff;stroke-width:0.34px;"/><path d="M306.362,204.251l11.765,6.792l0,13.585l-11.765,6.792l-11.764,-6.792l-0,-13.585l11.764,-6.792Z" style="fill:none;stroke:#fff;stroke-width:0.34px;"/><path d="M329.892,204.251l11.764,6.792l0,13.585l-11.764,6.792l-11.765,-6.792l0,-13.585l11.765,-6.792Z" style="fill:none;stroke:#fff;stroke-width:0.34px;"/><path d="M294.598,183.874l11.764,6.792l0,13.585l-11.764,6.792l-11.765,-6.792l-0,-13.585l11.765,-6.792Z" style="fill:none;stroke:#fff;stroke-width:0.34px;"/><path d="M318.127,183.874l11.765,6.792l-0,13.585l-11.765,6.792l-11.765,-6.792l0,-13.585l11.765,-6.792Z" style="fill:none;stroke:#fff;stroke-width:0.34px;"/><path d="M24.009,0.48l11.765,6.792l0,13.585l-11.765,6.792l-11.764,-6.792l-0,-13.585l11.764,-6.792Z" style="fill:none;stroke:#fff;stroke-width:0.34px;"/><path d="M12.245,20.857l11.764,6.792l0,13.585l-11.764,6.792l-11.765,-6.792l0,-13.585l11.765,-6.792Z" style="fill:none;stroke:#fff;stroke-width:0.34px;"/><path d="M35.774,20.857l11.765,6.792l-0,13.585l-11.765,6.792l-11.765,-6.792l0,-13.585l11.765,-6.792Z" style="fill:none;stroke:#fff;stroke-width:0.34px;"/><path d="M59.304,20.857l11.764,6.792l0,13.585l-11.764,6.792l-11.765,-6.792l-0,-13.585l11.765,-6.792Z" style="fill:none;stroke:#fff;stroke-width:0.34px;"/><path d="M82.833,20.857l11.765,6.792l-0,13.585l-11.765,6.792l-11.765,-6.792l0,-13.585l11.765,-6.792Z" style="fill:none;stroke:#fff;stroke-width:0.34px;"/><path d="M47.539,0.48l11.765,6.792l-0,13.585l-11.765,6.792l-11.765,-6.792l0,-13.585l11.765,-6.792Z" style="fill:none;stroke:#fff;stroke-width:0.34px;"/><path d="M71.068,0.48l11.765,6.792l-0,13.585l-11.765,6.792l-11.764,-6.792l-0,-13.585l11.764,-6.792Z" style="fill:none;stroke:#fff;stroke-width:0.34px;"/><path d="M24.009,41.234l11.765,6.792l0,13.585l-11.765,6.793l-11.764,-6.793l-0,-13.585l11.764,-6.792Z" style="fill:none;stroke:#fff;stroke-width:0.34px;"/><path d="M12.245,61.611l11.764,6.793l0,13.584l-11.764,6.793l-11.765,-6.793l0,-13.584l11.765,-6.793Z" style="fill:none;stroke:#fff;stroke-width:0.34px;"/><path d="M35.774,61.611l11.765,6.793l-0,13.584l-11.765,6.793l-11.765,-6.793l0,-13.584l11.765,-6.793Z" style="fill:none;stroke:#fff;stroke-width:0.34px;"/><path d="M59.304,61.611l11.764,6.793l0,13.584l-11.764,6.793l-11.765,-6.793l-0,-13.584l11.765,-6.793Z" style="fill:none;stroke:#fff;stroke-width:0.34px;"/><path d="M82.833,61.611l11.765,6.793l-0,13.584l-11.765,6.793l-11.765,-6.793l0,-13.584l11.765,-6.793Z" style="fill:none;stroke:#fff;stroke-width:0.34px;"/><path d="M47.539,41.234l11.765,6.792l-0,13.585l-11.765,6.793l-11.765,-6.793l0,-13.585l11.765,-6.792Z" style="fill:none;stroke:#fff;stroke-width:0.34px;"/><path d="M71.068,41.234l11.765,6.792l-0,13.585l-11.765,6.793l-11.764,-6.793l-0,-13.585l11.764,-6.792Z" style="fill:none;stroke:#fff;stroke-width:0.34px;"/><path d="M24.009,81.988l11.765,6.793l0,13.584l-11.765,6.793l-11.764,-6.793l-0,-13.584l11.764,-6.793Z" style="fill:none;stroke:#fff;stroke-width:0.34px;"/><path d="M12.245,102.365l11.764,6.793l0,13.584l-11.764,6.793l-11.765,-6.793l0,-13.584l11.765,-6.793Z" style="fill:none;stroke:#fff;stroke-width:0.34px;"/><path d="M35.774,102.365l11.765,6.793l-0,13.584l-11.765,6.793l-11.765,-6.793l0,-13.584l11.765,-6.793Z" style="fill:none;stroke:#fff;stroke-width:0.34px;"/><path d="M59.304,102.365l11.764,6.793l0,13.584l-11.764,6.793l-11.765,-6.793l-0,-13.584l11.765,-6.793Z" style="fill:none;stroke:#fff;stroke-width:0.34px;"/><path d="M82.833,102.365l11.765,6.793l-0,13.584l-11.765,6.793l-11.765,-6.793l0,-13.584l11.765,-6.793Z" style="fill:none;stroke:#fff;stroke-width:0.34px;"/><path d="M47.539,81.988l11.765,6.793l-0,13.584l-11.765,6.793l-11.765,-6.793l0,-13.584l11.765,-6.793Z" style="fill:none;stroke:#fff;stroke-width:0.34px;"/><path d="M71.068,81.988l11.765,6.793l-0,13.584l-11.765,6.793l-11.764,-6.793l-0,-13.584l11.764,-6.793Z" style="fill:none;stroke:#fff;stroke-width:0.34px;"/><path d="M24.009,122.742l11.765,6.793l0,13.584l-11.765,6.793l-11.764,-6.793l-0,-13.584l11.764,-6.793Z" style="fill:none;stroke:#fff;stroke-width:0.34px;"/><path d="M12.245,143.119l11.764,6.793l0,13.585l-11.764,6.792l-11.765,-6.792l0,-13.585l11.765,-6.793Z" style="fill:none;stroke:#fff;stroke-width:0.34px;"/><path d="M35.774,143.119l11.765,6.793l-0,13.585l-11.765,6.792l-11.765,-6.792l0,-13.585l11.765,-6.793Z" style="fill:none;stroke:#fff;stroke-width:0.34px;"/><path d="M59.304,143.119l11.764,6.793l0,13.585l-11.764,6.792l-11.765,-6.792l-0,-13.585l11.765,-6.793Z" style="fill:none;stroke:#fff;stroke-width:0.34px;"/><path d="M82.833,143.119l11.765,6.793l-0,13.585l-11.765,6.792l-11.765,-6.792l0,-13.585l11.765,-6.793Z" style="fill:none;stroke:#fff;stroke-width:0.34px;"/><path d="M47.539,122.742l11.765,6.793l-0,13.584l-11.765,6.793l-11.765,-6.793l0,-13.584l11.765,-6.793Z" style="fill:none;stroke:#fff;stroke-width:0.34px;"/><path d="M71.068,122.742l11.765,6.793l-0,13.584l-11.765,6.793l-11.764,-6.793l-0,-13.584l11.764,-6.793Z" style="fill:none;stroke:#fff;stroke-width:0.34px;"/><path d="M24.009,163.497l11.765,6.792l0,13.585l-11.765,6.792l-11.764,-6.792l-0,-13.585l11.764,-6.792Z" style="fill:none;stroke:#fff;stroke-width:0.34px;"/><path d="M12.245,183.874l11.764,6.792l0,13.585l-11.764,6.792l-11.765,-6.792l0,-13.585l11.765,-6.792Z" style="fill:none;stroke:#fff;stroke-width:0.34px;"/><path d="M35.774,183.874l11.765,6.792l-0,13.585l-11.765,6.792l-11.765,-6.792l0,-13.585l11.765,-6.792Z" style="fill:none;stroke:#fff;stroke-width:0.34px;"/><path d="M59.304,183.874l11.764,6.792l0,13.585l-11.764,6.792l-11.765,-6.792l-0,-13.585l11.765,-6.792Z" style="fill:none;stroke:#fff;stroke-width:0.34px;"/><path d="M82.833,183.874l11.765,6.792l-0,13.585l-11.765,6.792l-11.765,-6.792l0,-13.585l11.765,-6.792Z" style="fill:none;stroke:#fff;stroke-width:0.34px;"/><path d="M47.539,163.497l11.765,6.792l-0,13.585l-11.765,6.792l-11.765,-6.792l0,-13.585l11.765,-6.792Z" style="fill:none;stroke:#fff;stroke-width:0.34px;"/><path d="M71.068,163.497l11.765,6.792l-0,13.585l-11.765,6.792l-11.764,-6.792l-0,-13.585l11.764,-6.792Z" style="fill:none;stroke:#fff;stroke-width:0.34px;"/><path d="M24.009,204.251l11.765,6.792l0,13.585l-11.765,6.792l-11.764,-6.792l-0,-13.585l11.764,-6.792Z" style="fill:none;stroke:#fff;stroke-width:0.34px;"/><path d="M12.245,224.628l11.764,6.792l0,13.585l-11.764,6.792l-11.765,-6.792l0,-13.585l11.765,-6.792Z" style="fill:none;stroke:#fff;stroke-width:0.34px;"/><path d="M35.774,224.628l11.765,6.792l-0,13.585l-11.765,6.792l-11.765,-6.792l0,-13.585l11.765,-6.792Z" style="fill:none;stroke:#fff;stroke-width:0.34px;"/><path d="M59.304,224.628l11.764,6.792l0,13.585l-11.764,6.792l-11.765,-6.792l-0,-13.585l11.765,-6.792Z" style="fill:none;stroke:#fff;stroke-width:0.34px;"/><path d="M82.833,224.628l11.765,6.792l-0,13.585l-11.765,6.792l-11.765,-6.792l0,-13.585l11.765,-6.792Z" style="fill:none;stroke:#fff;stroke-width:0.34px;"/><path d="M47.539,204.251l11.765,6.792l-0,13.585l-11.765,6.792l-11.765,-6.792l0,-13.585l11.765,-6.792Z" style="fill:none;stroke:#fff;stroke-width:0.34px;"/><path d="M71.068,204.251l11.765,6.792l-0,13.585l-11.765,6.792l-11.764,-6.792l-0,-13.585l11.764,-6.792Z" style="fill:none;stroke:#fff;stroke-width:0.34px;"/><path d="M106.362,224.628l11.765,6.792l0,13.585l-11.765,6.792l-11.764,-6.792l-0,-13.585l11.764,-6.792Z" style="fill:none;stroke:#fff;stroke-width:0.34px;"/><path d="M129.892,224.628l11.764,6.792l0,13.585l-11.764,6.792l-11.765,-6.792l0,-13.585l11.765,-6.792Z" style="fill:none;stroke:#fff;stroke-width:0.34px;"/><path d="M153.421,224.628l11.765,6.792l-0,13.585l-11.765,6.792l-11.765,-6.792l0,-13.585l11.765,-6.792Z" style="fill:none;stroke:#fff;stroke-width:0.34px;"/><path d="M271.068,224.628l11.765,6.792l-0,13.585l-11.765,6.792l-11.764,-6.792l-0,-13.585l11.764,-6.792Z" style="fill:none;stroke:#fff;stroke-width:0.34px;"/><path d="M294.598,224.628l11.764,6.792l0,13.585l-11.764,6.792l-11.765,-6.792l-0,-13.585l11.765,-6.792Z" style="fill:none;stroke:#fff;stroke-width:0.34px;"/><path d="M318.127,224.628l11.765,6.792l-0,13.585l-11.765,6.792l-11.765,-6.792l0,-13.585l11.765,-6.792Z" style="fill:none;stroke:#fff;stroke-width:0.34px;"/><path d="M1000.48,251.797l-11.765,-6.792l0,-13.585l11.765,-6.792" style="fill:none;stroke:#fff;stroke-width:0.34px;"/><path d="M0.48,0.48l11.765,6.792l-0,13.585l-11.765,6.792" style="fill:none;stroke:#fff;stroke-width:0.34px;"/></g></svg>