<?xml version="1.0" encoding="UTF-8" standalone="no"?><!DOCTYPE svg PUBLIC "-//W3C//DTD SVG 1.1//EN" "http://www.w3.org/Graphics/SVG/1.1/DTD/svg11.dtd"><svg width="100%" height="100%" viewBox="0 0 48 18" version="1.1" xmlns="http://www.w3.org/2000/svg" xmlns:xlink="http://www.w3.org/1999/xlink" xml:space="preserve" xmlns:serif="http://www.serif.com/" style="fill-rule:evenodd;clip-rule:evenodd;stroke-linecap:round;stroke-linejoin:round;stroke-miterlimit:1.5;"><g><g id="ASOT"><g><g><path d="M5.726,14.966l1.101,-2.494l0.695,-0l1.103,2.494l-0.733,0l-0.861,-2.149l0.277,-0l-0.862,2.149l-0.72,0Zm0.602,-0.485l0.181,-0.52l1.219,0l0.183,0.52l-1.583,-0Z" style="fill:#fff;fill-rule:nonzero;"/><path d="M9.923,15.016c-0.367,-0 -0.654,-0.101 -0.861,-0.303c-0.206,-0.201 -0.31,-0.487 -0.31,-0.857l0,-1.384l0.707,-0l-0,1.362c-0,0.214 0.041,0.367 0.125,0.46c0.084,0.093 0.199,0.14 0.345,0.14c0.149,-0 0.264,-0.047 0.347,-0.14c0.083,-0.093 0.124,-0.246 0.124,-0.46l0,-1.362l0.694,-0l0,1.384c0,0.37 -0.103,0.656 -0.309,0.857c-0.207,0.202 -0.494,0.303 -0.862,0.303Z" style="fill:#fff;fill-rule:nonzero;"/><path d="M12.448,15.016c-0.203,-0 -0.4,-0.025 -0.589,-0.076c-0.189,-0.05 -0.342,-0.116 -0.461,-0.196l0.232,-0.523c0.112,0.073 0.242,0.132 0.388,0.177c0.147,0.045 0.292,0.068 0.435,0.068c0.099,0 0.177,-0.008 0.236,-0.025c0.058,-0.017 0.101,-0.041 0.128,-0.072c0.028,-0.03 0.041,-0.065 0.041,-0.106c0,-0.056 -0.025,-0.101 -0.077,-0.134c-0.051,-0.033 -0.119,-0.06 -0.202,-0.082c-0.084,-0.021 -0.176,-0.043 -0.277,-0.064c-0.1,-0.021 -0.201,-0.048 -0.302,-0.081c-0.101,-0.033 -0.194,-0.076 -0.277,-0.13c-0.084,-0.053 -0.152,-0.124 -0.203,-0.212c-0.051,-0.087 -0.077,-0.198 -0.077,-0.331c-0,-0.147 0.041,-0.282 0.122,-0.404c0.082,-0.122 0.204,-0.22 0.368,-0.293c0.164,-0.073 0.369,-0.109 0.615,-0.109c0.162,-0 0.322,0.018 0.48,0.054c0.158,0.037 0.299,0.091 0.422,0.164l-0.215,0.521c-0.119,-0.064 -0.237,-0.112 -0.353,-0.143c-0.117,-0.031 -0.23,-0.047 -0.34,-0.047c-0.097,0 -0.175,0.01 -0.234,0.031c-0.06,0.02 -0.102,0.046 -0.128,0.08c-0.027,0.033 -0.04,0.07 -0.04,0.111c0,0.055 0.026,0.098 0.077,0.131c0.052,0.032 0.119,0.058 0.203,0.079c0.084,0.02 0.177,0.041 0.278,0.061c0.101,0.021 0.202,0.048 0.302,0.08c0.1,0.033 0.192,0.076 0.276,0.129c0.084,0.053 0.152,0.123 0.203,0.21c0.051,0.087 0.077,0.195 0.077,0.326c0,0.146 -0.041,0.279 -0.123,0.401c-0.082,0.122 -0.204,0.22 -0.368,0.294c-0.163,0.074 -0.369,0.111 -0.617,0.111Z" style="fill:#fff;fill-rule:nonzero;"/><path d="M14.373,14.966l0,-1.935l-0.765,0l0,-0.559l2.236,-0l0,0.559l-0.765,0l0,1.935l-0.706,0Z" style="fill:#fff;fill-rule:nonzero;"/><path d="M16.108,14.966l-0,-2.494l1.138,-0c0.228,-0 0.425,0.037 0.591,0.111c0.166,0.074 0.294,0.181 0.384,0.319c0.09,0.139 0.135,0.302 0.135,0.492c-0,0.189 -0.045,0.351 -0.135,0.488c-0.09,0.136 -0.218,0.241 -0.384,0.313c-0.166,0.073 -0.363,0.109 -0.591,0.109l-0.747,-0l0.315,-0.297l-0,0.959l-0.706,0Zm1.541,0l-0.619,-0.907l0.75,-0l0.626,0.907l-0.757,0Zm-0.835,-0.882l-0.315,-0.325l0.705,0c0.148,0 0.258,-0.032 0.331,-0.097c0.072,-0.065 0.109,-0.154 0.109,-0.268c-0,-0.115 -0.037,-0.204 -0.109,-0.269c-0.073,-0.064 -0.183,-0.096 -0.331,-0.096l-0.705,-0l0.315,-0.326l-0,1.381Z" style="fill:#fff;fill-rule:nonzero;"/><path d="M18.444,14.966l1.102,-2.494l0.695,-0l1.102,2.494l-0.732,0l-0.862,-2.149l0.277,-0l-0.862,2.149l-0.72,0Zm0.602,-0.485l0.182,-0.52l1.218,0l0.183,0.52l-1.583,-0Z" style="fill:#fff;fill-rule:nonzero;"/><path d="M21.546,14.966l-0,-2.494l0.706,-0l-0,1.935l1.189,0l-0,0.559l-1.895,0Z" style="fill:#fff;fill-rule:nonzero;"/><rect x="23.72" y="12.472" width="0.706" height="2.495" style="fill:#fff;fill-rule:nonzero;"/><path d="M24.627,14.966l1.101,-2.494l0.696,-0l1.102,2.494l-0.732,0l-0.862,-2.149l0.277,-0l-0.862,2.149l-0.72,0Zm0.602,-0.485l0.182,-0.52l1.218,0l0.183,0.52l-1.583,-0Z" style="fill:#fff;fill-rule:nonzero;"/><path d="M27.729,14.966l-0,-2.494l0.58,-0l1.374,1.662l-0.274,-0l-0,-1.662l0.691,-0l0,2.494l-0.581,0l-1.373,-1.661l0.274,-0l-0,1.661l-0.691,0Z" style="fill:#fff;fill-rule:nonzero;"/></g><g><path d="M32.512,15.016c-0.204,-0 -0.401,-0.025 -0.59,-0.076c-0.189,-0.05 -0.342,-0.116 -0.461,-0.196l0.232,-0.523c0.112,0.073 0.242,0.132 0.388,0.177c0.147,0.045 0.292,0.068 0.435,0.068c0.099,0 0.177,-0.008 0.236,-0.025c0.058,-0.017 0.101,-0.041 0.129,-0.072c0.027,-0.03 0.04,-0.065 0.04,-0.106c0,-0.056 -0.025,-0.101 -0.077,-0.134c-0.051,-0.033 -0.119,-0.06 -0.202,-0.082c-0.084,-0.021 -0.176,-0.043 -0.277,-0.064c-0.1,-0.021 -0.201,-0.048 -0.302,-0.081c-0.101,-0.033 -0.194,-0.076 -0.277,-0.13c-0.084,-0.053 -0.152,-0.124 -0.203,-0.212c-0.051,-0.087 -0.077,-0.198 -0.077,-0.331c-0,-0.147 0.041,-0.282 0.122,-0.404c0.082,-0.122 0.204,-0.22 0.368,-0.293c0.164,-0.073 0.369,-0.109 0.615,-0.109c0.162,-0 0.322,0.018 0.48,0.054c0.158,0.037 0.299,0.091 0.422,0.164l-0.215,0.521c-0.119,-0.064 -0.237,-0.112 -0.353,-0.143c-0.117,-0.031 -0.23,-0.047 -0.34,-0.047c-0.097,0 -0.175,0.01 -0.234,0.031c-0.06,0.02 -0.102,0.046 -0.128,0.08c-0.026,0.033 -0.04,0.07 -0.04,0.111c0,0.055 0.026,0.098 0.078,0.131c0.051,0.032 0.118,0.058 0.202,0.079c0.084,0.02 0.177,0.041 0.278,0.061c0.101,0.021 0.202,0.048 0.302,0.08c0.1,0.033 0.192,0.076 0.276,0.129c0.084,0.053 0.152,0.123 0.203,0.21c0.051,0.087 0.077,0.195 0.077,0.326c0,0.146 -0.041,0.279 -0.123,0.401c-0.082,0.122 -0.204,0.22 -0.368,0.294c-0.163,0.074 -0.369,0.111 -0.616,0.111Z" style="fill:#fff;fill-rule:nonzero;"/><path d="M33.943,14.966l0,-2.494l1.138,-0c0.229,-0 0.426,0.037 0.592,0.111c0.165,0.074 0.293,0.181 0.383,0.319c0.091,0.139 0.136,0.302 0.136,0.492c-0,0.189 -0.045,0.352 -0.136,0.489c-0.09,0.138 -0.218,0.244 -0.383,0.319c-0.166,0.075 -0.363,0.113 -0.592,0.113l-0.746,-0l0.315,-0.308l-0,0.959l-0.707,0Zm0.707,-0.882l-0.315,-0.326l0.705,0c0.147,0 0.258,-0.032 0.33,-0.097c0.073,-0.064 0.109,-0.153 0.109,-0.267c0,-0.115 -0.036,-0.204 -0.109,-0.269c-0.072,-0.064 -0.183,-0.096 -0.33,-0.096l-0.705,-0l0.315,-0.326l-0,1.381Z" style="fill:#fff;fill-rule:nonzero;"/><path d="M37.181,13.438l1.159,0l-0,0.525l-1.159,0l0,-0.525Zm0.049,0.982l1.305,-0l0,0.546l-2.001,0l0,-2.494l1.954,-0l-0,0.547l-1.258,-0l0,1.401Z" style="fill:#fff;fill-rule:nonzero;"/><path d="M40.17,15.016c-0.196,-0 -0.378,-0.032 -0.546,-0.095c-0.167,-0.063 -0.312,-0.152 -0.435,-0.268c-0.123,-0.116 -0.218,-0.253 -0.286,-0.411c-0.068,-0.158 -0.103,-0.333 -0.103,-0.523c0,-0.19 0.035,-0.364 0.103,-0.522c0.068,-0.158 0.164,-0.295 0.287,-0.411c0.123,-0.116 0.268,-0.206 0.436,-0.269c0.167,-0.063 0.349,-0.094 0.545,-0.094c0.23,-0 0.436,0.04 0.618,0.12c0.182,0.08 0.333,0.196 0.454,0.349l-0.448,0.406c-0.08,-0.095 -0.168,-0.167 -0.265,-0.218c-0.098,-0.05 -0.205,-0.075 -0.324,-0.075c-0.102,-0 -0.196,0.017 -0.28,0.05c-0.085,0.034 -0.158,0.082 -0.219,0.146c-0.062,0.063 -0.109,0.138 -0.143,0.226c-0.034,0.088 -0.051,0.185 -0.051,0.292c-0,0.107 0.017,0.204 0.051,0.292c0.034,0.088 0.081,0.164 0.143,0.227c0.061,0.063 0.134,0.111 0.219,0.145c0.084,0.034 0.178,0.051 0.28,0.051c0.119,-0 0.226,-0.026 0.324,-0.076c0.097,-0.05 0.185,-0.123 0.265,-0.219l0.448,0.407c-0.121,0.151 -0.272,0.267 -0.454,0.348c-0.182,0.081 -0.388,0.122 -0.619,0.122Z" style="fill:#fff;fill-rule:nonzero;"/><rect x="41.559" y="12.472" width="0.706" height="2.495" style="fill:#fff;fill-rule:nonzero;"/><path d="M42.466,14.966l1.102,-2.494l0.695,-0l1.103,2.494l-0.733,0l-0.862,-2.149l0.277,-0l-0.861,2.149l-0.721,0Zm0.602,-0.485l0.182,-0.52l1.218,0l0.183,0.52l-1.583,-0Z" style="fill:#fff;fill-rule:nonzero;"/><path d="M45.568,14.966l-0,-2.494l0.706,-0l0,1.935l1.189,0l0,0.559l-1.895,0Z" style="fill:#fff;fill-rule:nonzero;"/></g><g><path d="M6.407,17.525c-0.173,-0 -0.334,-0.028 -0.481,-0.084c-0.148,-0.055 -0.275,-0.134 -0.383,-0.236c-0.108,-0.101 -0.192,-0.221 -0.252,-0.358c-0.06,-0.137 -0.09,-0.287 -0.09,-0.45c0,-0.163 0.03,-0.313 0.09,-0.449c0.06,-0.136 0.144,-0.255 0.252,-0.357c0.108,-0.102 0.236,-0.181 0.383,-0.237c0.147,-0.055 0.307,-0.083 0.48,-0.083c0.174,-0 0.334,0.028 0.481,0.083c0.146,0.056 0.273,0.134 0.381,0.236c0.107,0.102 0.191,0.221 0.251,0.358c0.06,0.136 0.09,0.286 0.09,0.449c0,0.163 -0.03,0.313 -0.09,0.451c-0.06,0.137 -0.144,0.257 -0.251,0.358c-0.108,0.102 -0.235,0.18 -0.381,0.236c-0.147,0.055 -0.306,0.083 -0.48,0.083Zm-0.001,-0.506c0.083,-0 0.159,-0.015 0.23,-0.044c0.071,-0.03 0.133,-0.071 0.186,-0.126c0.053,-0.054 0.094,-0.12 0.124,-0.196c0.029,-0.076 0.044,-0.161 0.044,-0.255c0,-0.094 -0.015,-0.18 -0.044,-0.256c-0.03,-0.076 -0.071,-0.141 -0.124,-0.195c-0.053,-0.055 -0.115,-0.097 -0.186,-0.126c-0.07,-0.029 -0.147,-0.044 -0.23,-0.044c-0.083,-0 -0.16,0.015 -0.231,0.044c-0.071,0.029 -0.133,0.071 -0.186,0.126c-0.053,0.054 -0.095,0.12 -0.124,0.196c-0.03,0.076 -0.045,0.161 -0.045,0.255c0,0.093 0.015,0.178 0.045,0.255c0.029,0.076 0.071,0.142 0.124,0.196c0.053,0.055 0.115,0.097 0.186,0.126c0.071,0.029 0.148,0.044 0.231,0.044Z" style="fill:#fff;fill-rule:nonzero;"/><path d="M7.934,17.482l-0,-2.168l0.989,-0c0.199,-0 0.37,0.032 0.514,0.096c0.144,0.065 0.255,0.157 0.334,0.278c0.078,0.12 0.117,0.262 0.117,0.427c0,0.164 -0.039,0.306 -0.117,0.426c-0.079,0.119 -0.19,0.212 -0.334,0.277c-0.144,0.065 -0.315,0.098 -0.514,0.098l-0.649,-0l0.274,-0.268l-0,0.834l-0.614,0Zm0.614,-0.767l-0.274,-0.283l0.613,-0c0.128,-0 0.224,-0.028 0.287,-0.084c0.063,-0.056 0.095,-0.134 0.095,-0.233c0,-0.099 -0.032,-0.177 -0.095,-0.233c-0.063,-0.056 -0.159,-0.084 -0.287,-0.084l-0.613,-0l0.274,-0.284l-0,1.201Z" style="fill:#fff;fill-rule:nonzero;"/><path d="M10.748,16.154l1.007,-0l0,0.456l-1.007,0l0,-0.456Zm0.043,0.853l1.134,-0l0,0.475l-1.739,0l-0,-2.168l1.698,-0l0,0.475l-1.093,0l0,1.218Z" style="fill:#fff;fill-rule:nonzero;"/><path d="M12.268,17.482l-0,-2.168l0.989,-0c0.198,-0 0.37,0.032 0.514,0.096c0.144,0.065 0.255,0.157 0.333,0.278c0.079,0.12 0.118,0.262 0.118,0.427c-0,0.164 -0.039,0.306 -0.118,0.424c-0.078,0.119 -0.189,0.209 -0.333,0.273c-0.144,0.063 -0.316,0.094 -0.514,0.094l-0.649,0l0.273,-0.258l0,0.834l-0.613,0Zm1.34,0l-0.539,-0.789l0.653,0l0.544,0.789l-0.658,0Zm-0.727,-0.767l-0.273,-0.282l0.613,-0c0.128,-0 0.224,-0.029 0.287,-0.085c0.063,-0.056 0.095,-0.134 0.095,-0.233c-0,-0.099 -0.032,-0.177 -0.095,-0.233c-0.063,-0.056 -0.159,-0.084 -0.287,-0.084l-0.613,-0l0.273,-0.284l0,1.201Z" style="fill:#fff;fill-rule:nonzero;"/><path d="M14.299,17.482l0.957,-2.168l0.604,-0l0.959,2.168l-0.637,0l-0.749,-1.868l0.241,-0l-0.749,1.868l-0.626,0Zm0.523,-0.422l0.158,-0.452l1.059,0l0.159,0.452l-1.376,-0Z" style="fill:#fff;fill-rule:nonzero;"/><path d="M17.346,17.482l-0,-1.682l-0.665,-0l-0,-0.486l1.943,-0l0,0.486l-0.664,-0l-0,1.682l-0.614,0Z" style="fill:#fff;fill-rule:nonzero;"/><rect x="18.854" y="15.314" width="0.614" height="2.168" style="fill:#fff;fill-rule:nonzero;"/><path d="M20.998,17.525c-0.174,-0 -0.334,-0.028 -0.482,-0.084c-0.147,-0.055 -0.275,-0.134 -0.382,-0.236c-0.108,-0.101 -0.192,-0.221 -0.252,-0.358c-0.06,-0.137 -0.09,-0.287 -0.09,-0.45c-0,-0.163 0.03,-0.313 0.09,-0.449c0.06,-0.136 0.144,-0.255 0.252,-0.357c0.108,-0.102 0.235,-0.181 0.382,-0.237c0.147,-0.055 0.307,-0.083 0.48,-0.083c0.175,-0 0.335,0.028 0.481,0.083c0.146,0.056 0.273,0.134 0.381,0.236c0.108,0.102 0.192,0.221 0.252,0.358c0.06,0.136 0.09,0.286 0.09,0.449c-0,0.163 -0.03,0.313 -0.09,0.451c-0.06,0.137 -0.144,0.257 -0.252,0.358c-0.108,0.102 -0.235,0.18 -0.381,0.236c-0.146,0.055 -0.306,0.083 -0.479,0.083Zm-0.002,-0.506c0.083,-0 0.16,-0.015 0.231,-0.044c0.071,-0.03 0.132,-0.071 0.185,-0.126c0.053,-0.054 0.095,-0.12 0.124,-0.196c0.03,-0.076 0.045,-0.161 0.045,-0.255c-0,-0.094 -0.015,-0.18 -0.045,-0.256c-0.029,-0.076 -0.07,-0.141 -0.123,-0.195c-0.053,-0.055 -0.115,-0.097 -0.186,-0.126c-0.071,-0.029 -0.148,-0.044 -0.231,-0.044c-0.083,-0 -0.159,0.015 -0.23,0.044c-0.071,0.029 -0.133,0.071 -0.187,0.126c-0.053,0.054 -0.094,0.12 -0.124,0.196c-0.029,0.076 -0.044,0.161 -0.044,0.255c-0,0.093 0.015,0.178 0.044,0.255c0.03,0.076 0.071,0.142 0.124,0.196c0.053,0.055 0.115,0.097 0.186,0.126c0.071,0.029 0.148,0.044 0.231,0.044Z" style="fill:#fff;fill-rule:nonzero;"/><path d="M22.524,17.482l0,-2.168l0.505,-0l1.194,1.444l-0.238,0l-0,-1.444l0.601,-0l-0,2.168l-0.505,0l-1.194,-1.445l0.238,0l0,1.445l-0.601,0Z" style="fill:#fff;fill-rule:nonzero;"/><path d="M25.781,17.525c-0.178,-0 -0.348,-0.022 -0.513,-0.066c-0.164,-0.044 -0.297,-0.101 -0.4,-0.171l0.201,-0.454c0.098,0.064 0.21,0.115 0.338,0.154c0.127,0.039 0.253,0.059 0.378,0.059c0.086,0 0.154,-0.007 0.205,-0.022c0.05,-0.015 0.088,-0.035 0.111,-0.062c0.024,-0.026 0.036,-0.057 0.036,-0.092c0,-0.049 -0.022,-0.088 -0.067,-0.117c-0.045,-0.028 -0.103,-0.052 -0.176,-0.071c-0.073,-0.019 -0.153,-0.037 -0.24,-0.056c-0.088,-0.018 -0.175,-0.042 -0.263,-0.07c-0.088,-0.029 -0.168,-0.067 -0.241,-0.113c-0.073,-0.047 -0.132,-0.108 -0.177,-0.184c-0.044,-0.076 -0.067,-0.172 -0.067,-0.288c0,-0.128 0.036,-0.246 0.107,-0.352c0.071,-0.106 0.177,-0.19 0.32,-0.254c0.142,-0.063 0.32,-0.095 0.534,-0.095c0.141,-0 0.28,0.016 0.418,0.047c0.137,0.032 0.259,0.079 0.367,0.143l-0.188,0.453c-0.103,-0.056 -0.206,-0.097 -0.307,-0.125c-0.101,-0.027 -0.199,-0.04 -0.295,-0.04c-0.084,-0 -0.152,0.008 -0.204,0.026c-0.051,0.017 -0.088,0.041 -0.111,0.07c-0.023,0.029 -0.034,0.061 -0.034,0.097c-0,0.047 0.022,0.085 0.067,0.113c0.045,0.028 0.103,0.051 0.176,0.069c0.073,0.017 0.153,0.035 0.241,0.053c0.088,0.018 0.176,0.042 0.263,0.07c0.087,0.028 0.167,0.065 0.24,0.112c0.073,0.046 0.132,0.107 0.176,0.182c0.045,0.076 0.067,0.17 0.067,0.284c0,0.126 -0.035,0.242 -0.106,0.348c-0.072,0.106 -0.178,0.191 -0.32,0.256c-0.142,0.064 -0.321,0.096 -0.536,0.096Z" style="fill:#fff;fill-rule:nonzero;"/></g><g><path d="M28.386,17.482l0,-1.682l-0.665,-0l0,-0.486l1.944,-0l-0,0.486l-0.665,-0l0,1.682l-0.614,0Z" style="fill:#fff;fill-rule:nonzero;"/><path d="M29.524,17.482l0.958,-2.168l0.604,-0l0.959,2.168l-0.637,0l-0.749,-1.868l0.241,-0l-0.75,1.868l-0.626,0Zm0.524,-0.422l0.158,-0.452l1.059,0l0.159,0.452l-1.376,-0Z" style="fill:#fff;fill-rule:nonzero;"/><path d="M32.98,17.525c-0.177,-0 -0.348,-0.022 -0.512,-0.066c-0.164,-0.044 -0.298,-0.101 -0.401,-0.171l0.202,-0.454c0.097,0.064 0.21,0.115 0.337,0.154c0.127,0.039 0.253,0.059 0.378,0.059c0.086,0 0.154,-0.007 0.205,-0.022c0.051,-0.015 0.088,-0.035 0.112,-0.062c0.023,-0.026 0.035,-0.057 0.035,-0.092c0,-0.049 -0.022,-0.088 -0.067,-0.117c-0.044,-0.028 -0.103,-0.052 -0.176,-0.071c-0.073,-0.019 -0.153,-0.037 -0.24,-0.056c-0.087,-0.018 -0.175,-0.042 -0.263,-0.07c-0.088,-0.029 -0.168,-0.067 -0.241,-0.113c-0.073,-0.047 -0.132,-0.108 -0.176,-0.184c-0.045,-0.076 -0.067,-0.172 -0.067,-0.288c-0,-0.128 0.035,-0.246 0.106,-0.352c0.071,-0.106 0.178,-0.19 0.32,-0.254c0.142,-0.063 0.321,-0.095 0.535,-0.095c0.14,-0 0.28,0.016 0.417,0.047c0.137,0.032 0.26,0.079 0.367,0.143l-0.188,0.453c-0.103,-0.056 -0.205,-0.097 -0.307,-0.125c-0.101,-0.027 -0.199,-0.04 -0.295,-0.04c-0.084,-0 -0.152,0.008 -0.203,0.026c-0.052,0.017 -0.089,0.041 -0.112,0.07c-0.022,0.029 -0.034,0.061 -0.034,0.097c0,0.047 0.022,0.085 0.067,0.113c0.045,0.028 0.104,0.051 0.176,0.069c0.073,0.017 0.154,0.035 0.242,0.053c0.088,0.018 0.175,0.042 0.262,0.07c0.088,0.028 0.168,0.065 0.24,0.112c0.073,0.046 0.132,0.107 0.177,0.182c0.044,0.076 0.067,0.17 0.067,0.284c-0,0.126 -0.036,0.242 -0.107,0.348c-0.071,0.106 -0.178,0.191 -0.32,0.256c-0.142,0.064 -0.321,0.096 -0.536,0.096Z" style="fill:#fff;fill-rule:nonzero;"/><path d="M34.773,17.001l-0.034,-0.687l0.931,-1l0.674,-0l-0.926,1.008l-0.342,0.354l-0.303,0.325Zm-0.548,0.481l-0,-2.168l0.605,-0l-0,2.168l-0.605,0Zm1.455,0l-0.707,-0.894l0.4,-0.428l1.02,1.322l-0.713,0Z" style="fill:#fff;fill-rule:nonzero;"/><path d="M37.124,16.264l1,-0l-0,0.475l-1,0l0,-0.475Zm0.044,1.218l-0.614,0l0,-2.168l1.698,-0l0,0.475l-1.084,0l0,1.693Z" style="fill:#fff;fill-rule:nonzero;"/><path d="M39.618,17.525c-0.173,-0 -0.334,-0.028 -0.481,-0.084c-0.147,-0.055 -0.275,-0.134 -0.383,-0.236c-0.107,-0.101 -0.191,-0.221 -0.251,-0.358c-0.06,-0.137 -0.09,-0.287 -0.09,-0.45c-0,-0.163 0.03,-0.313 0.09,-0.449c0.06,-0.136 0.144,-0.255 0.251,-0.357c0.108,-0.102 0.236,-0.181 0.383,-0.237c0.147,-0.055 0.307,-0.083 0.48,-0.083c0.174,-0 0.335,0.028 0.481,0.083c0.146,0.056 0.273,0.134 0.381,0.236c0.108,0.102 0.192,0.221 0.252,0.358c0.06,0.136 0.09,0.286 0.09,0.449c-0,0.163 -0.03,0.313 -0.09,0.451c-0.06,0.137 -0.144,0.257 -0.252,0.358c-0.108,0.102 -0.235,0.18 -0.381,0.236c-0.146,0.055 -0.306,0.083 -0.48,0.083Zm-0.001,-0.506c0.083,-0 0.16,-0.015 0.231,-0.044c0.07,-0.03 0.132,-0.071 0.185,-0.126c0.053,-0.054 0.095,-0.12 0.124,-0.196c0.03,-0.076 0.044,-0.161 0.044,-0.255c0,-0.094 -0.014,-0.18 -0.044,-0.256c-0.029,-0.076 -0.071,-0.141 -0.124,-0.195c-0.053,-0.055 -0.115,-0.097 -0.185,-0.126c-0.071,-0.029 -0.148,-0.044 -0.231,-0.044c-0.083,-0 -0.16,0.015 -0.231,0.044c-0.071,0.029 -0.133,0.071 -0.186,0.126c-0.053,0.054 -0.094,0.12 -0.124,0.196c-0.029,0.076 -0.044,0.161 -0.044,0.255c-0,0.093 0.015,0.178 0.044,0.255c0.03,0.076 0.071,0.142 0.124,0.196c0.053,0.055 0.115,0.097 0.186,0.126c0.071,0.029 0.148,0.044 0.231,0.044Z" style="fill:#fff;fill-rule:nonzero;"/><path d="M41.145,17.482l0,-2.168l0.989,-0c0.199,-0 0.37,0.032 0.514,0.096c0.144,0.065 0.256,0.157 0.334,0.278c0.078,0.12 0.117,0.262 0.117,0.427c0,0.164 -0.039,0.306 -0.117,0.424c-0.078,0.119 -0.19,0.209 -0.334,0.273c-0.144,0.063 -0.315,0.094 -0.514,0.094l-0.648,0l0.273,-0.258l-0,0.834l-0.614,0Zm1.34,0l-0.538,-0.789l0.652,0l0.544,0.789l-0.658,0Zm-0.726,-0.767l-0.273,-0.282l0.612,-0c0.129,-0 0.224,-0.029 0.287,-0.085c0.064,-0.056 0.095,-0.134 0.095,-0.233c0,-0.099 -0.031,-0.177 -0.095,-0.233c-0.063,-0.056 -0.158,-0.084 -0.287,-0.084l-0.612,-0l0.273,-0.284l-0,1.201Z" style="fill:#fff;fill-rule:nonzero;"/><path d="M44.517,17.525c-0.171,-0 -0.329,-0.027 -0.475,-0.082c-0.145,-0.055 -0.271,-0.133 -0.378,-0.234c-0.107,-0.1 -0.19,-0.22 -0.249,-0.357c-0.06,-0.137 -0.089,-0.289 -0.089,-0.454c-0,-0.165 0.029,-0.317 0.089,-0.454c0.059,-0.138 0.142,-0.257 0.249,-0.358c0.107,-0.101 0.234,-0.178 0.379,-0.233c0.145,-0.055 0.304,-0.082 0.475,-0.082c0.199,-0 0.378,0.035 0.537,0.104c0.158,0.07 0.289,0.171 0.394,0.304l-0.39,0.353c-0.069,-0.083 -0.145,-0.146 -0.23,-0.189c-0.084,-0.044 -0.178,-0.066 -0.281,-0.066c-0.089,-0 -0.171,0.015 -0.244,0.044c-0.074,0.029 -0.137,0.071 -0.19,0.126c-0.054,0.055 -0.095,0.121 -0.125,0.197c-0.029,0.076 -0.044,0.161 -0.044,0.254c-0,0.093 0.015,0.177 0.044,0.254c0.03,0.076 0.071,0.142 0.125,0.197c0.053,0.055 0.116,0.097 0.19,0.126c0.073,0.029 0.155,0.044 0.244,0.044c0.103,-0 0.197,-0.022 0.281,-0.066c0.085,-0.044 0.161,-0.107 0.23,-0.19l0.39,0.353c-0.105,0.132 -0.236,0.233 -0.394,0.303c-0.159,0.071 -0.338,0.106 -0.538,0.106Z" style="fill:#fff;fill-rule:nonzero;"/><path d="M46.286,16.154l1.007,-0l-0,0.456l-1.007,0l0,-0.456Zm0.043,0.853l1.134,-0l0,0.475l-1.739,0l-0,-2.168l1.698,-0l-0,0.475l-1.093,0l-0,1.218Z" style="fill:#fff;fill-rule:nonzero;"/></g></g><g><path d="M0.025,17.603l7.414,-17.073l3.902,-0l4.978,11.274l-4.11,0l-2.85,-7.399l-5.291,13.198l-4.043,0Zm7.067,-5.799l1.169,-2.915l2.825,-0l1.123,2.915l-5.117,0Z" style="fill:#fff;fill-rule:nonzero;"/><path d="M27.051,0.528l-2.429,2.448c0,0 -3.561,0.002 -4.045,0.002c-0.307,-0 -0.559,0.037 -0.754,0.11c-0.195,0.073 -0.339,0.173 -0.432,0.298c-0.093,0.125 -0.141,0.268 -0.145,0.43c-0.007,0.132 0.017,0.251 0.072,0.357c0.056,0.105 0.145,0.2 0.266,0.284c0.122,0.084 0.278,0.16 0.467,0.228c0.19,0.068 0.415,0.129 0.677,0.183l0.902,0.193c0.608,0.129 1.129,0.299 1.562,0.51c0.433,0.211 0.787,0.459 1.063,0.744c0.276,0.284 0.479,0.604 0.609,0.958c0.131,0.354 0.198,0.741 0.202,1.16c-0.004,0.723 -0.185,1.335 -0.543,1.836c-0.358,0.501 -0.868,0.882 -1.532,1.143c-0.664,0.261 -1.462,0.392 -2.392,0.392l-3.538,0l-1.092,-2.448l4.587,-0c0.318,-0 0.585,-0.039 0.8,-0.118c0.215,-0.079 0.377,-0.188 0.488,-0.328c0.111,-0.139 0.169,-0.298 0.172,-0.477c-0.003,-0.169 -0.058,-0.316 -0.164,-0.443c-0.105,-0.127 -0.278,-0.242 -0.518,-0.344c-0.239,-0.102 -0.563,-0.198 -0.971,-0.287l-1.096,-0.236c-0.973,-0.212 -1.74,-0.565 -2.3,-1.061c-0.56,-0.495 -0.838,-1.173 -0.835,-2.032c-0.003,-0.698 0.184,-1.309 0.561,-1.833c0.378,-0.524 0.902,-0.933 1.573,-1.227c0.671,-0.293 1.442,-0.44 2.311,-0.44c0.888,-0 6.474,-0.002 6.474,-0.002Z" style="fill:#fff;fill-rule:nonzero;"/><path d="M40.4,11.711l-0,-8.676l-2.103,0l-2.187,-2.507l11.353,0l-1.861,2.507l-2.157,0l-0,8.676l-3.045,0Z" style="fill:#fff;fill-rule:nonzero;"/></g></g><circle cx="31.631" cy="6.109" r="5.581" style="fill:none;stroke:#fff;stroke-width:0.74px;"/><g id="Logo"><path d="M30.937,1.843l-0,0.27l0.256,-0.285c0.001,-0.084 0.002,-0.168 0.002,-0.252c-0.086,0.089 -0.172,0.178 -0.258,0.267" style="fill:#fff;fill-rule:nonzero;"/><path d="M30.937,2.142l-0,0.27l0.256,-0.285c0.001,-0.084 0.002,-0.168 0.002,-0.252c-0.086,0.089 -0.172,0.178 -0.258,0.267" style="fill:#fff;fill-rule:nonzero;"/><path d="M30.937,2.447l-0,0.27l0.256,-0.285c0.001,-0.084 0.002,-0.168 0.002,-0.252c-0.086,0.089 -0.172,0.178 -0.258,0.267" style="fill:#fff;fill-rule:nonzero;"/><path d="M30.937,3.016l0.256,-0.285c0.001,-0.084 0.002,-0.168 0.002,-0.252c-0.086,0.089 -0.172,0.178 -0.258,0.267l-0,0.27Z" style="fill:#fff;fill-rule:nonzero;"/><path d="M30.747,2.113l0,-0.27c-0.086,-0.089 -0.172,-0.178 -0.259,-0.267c0.001,0.084 0.002,0.168 0.002,0.252l0.257,0.285Z" style="fill:#fff;fill-rule:nonzero;"/><path d="M30.747,2.412l0,-0.27c-0.086,-0.089 -0.172,-0.178 -0.259,-0.267c0.001,0.084 0.002,0.168 0.002,0.252l0.257,0.285Z" style="fill:#fff;fill-rule:nonzero;"/><path d="M30.747,2.717l0,-0.27c-0.086,-0.089 -0.172,-0.178 -0.259,-0.267c0.001,0.084 0.002,0.168 0.002,0.252l0.257,0.285Z" style="fill:#fff;fill-rule:nonzero;"/><path d="M30.747,3.016l0,-0.27c-0.086,-0.089 -0.172,-0.178 -0.259,-0.267c0.001,0.084 0.002,0.168 0.002,0.252l0.257,0.285Z" style="fill:#fff;fill-rule:nonzero;"/><path d="M30.814,1.759l0,-0.545l-0.209,0.294l0.209,0.251Z" style="fill:#fff;fill-rule:nonzero;"/><path d="M30.869,1.214l0,0.545l0.21,-0.251l-0.21,-0.294Z" style="fill:#fff;fill-rule:nonzero;"/><path d="M29.404,5.547c-0.304,-1.833 0.41,-3.936 0.41,-3.936c-0.27,0.449 -0.56,1.074 -0.686,1.847c-0.063,0.385 -0.138,0.882 0.03,1.484c0.072,0.258 0.169,0.463 0.246,0.605" style="fill:#fff;fill-rule:nonzero;"/><path d="M29.244,6.04c-0.107,-0.292 -0.098,-0.567 -0.101,-0.508c-0.004,0.06 0.009,-0.198 0.023,-0.276c-0.547,-2.141 -0.418,-3.164 -0.418,-3.164c-0.142,0.462 -0.357,1.394 -0.1,2.508c0.143,0.623 0.132,0.905 0.596,1.44" style="fill:#fff;fill-rule:nonzero;"/><path d="M29.208,6.522c-0.093,-0.207 -0.125,-0.425 -0.136,-0.567c-0.81,-1.303 -0.863,-2.959 -0.863,-2.959c-0,-0 -0.229,1.217 0.103,2.166c0.332,0.95 0.557,1.199 0.896,1.36" style="fill:#fff;fill-rule:nonzero;"/><path d="M28.994,6.561l0.007,-0.096c-0.182,-0.096 -0.435,-0.503 -0.473,-0.553c-0.038,-0.05 -0.048,-0.172 -0.116,-0.296c-0.482,-0.564 -0.653,-1.578 -0.653,-1.578c0.1,1.114 0.382,1.62 0.639,2.091c0.371,0.357 0.596,0.432 0.596,0.432" style="fill:#fff;fill-rule:nonzero;"/><path d="M29.137,7.207l0.043,-0.021c-0,-0 -0.015,-0.068 -0.058,-0.143c0.065,-0.075 0.057,-0.114 0.057,-0.114c0,-0 -0.025,-0.029 -0.123,-0.261c-0.85,-0.415 -1.433,-1.303 -1.532,-1.46c-0.01,-0.016 -0.015,-0.024 -0.015,-0.024l0.005,0.008c0.502,1.524 1.623,2.015 1.623,2.015" style="fill:#fff;fill-rule:nonzero;"/><path d="M29.158,7.657c0.107,-0.164 0.057,-0.286 -0.018,-0.4c-0.635,-0.275 -1.231,-1.031 -1.231,-1.031l-0,0.018c0.186,0.992 1.135,1.377 1.249,1.413" style="fill:#fff;fill-rule:nonzero;"/><path d="M29.208,7.757c-0.243,-0.022 -1.046,-0.675 -1.046,-0.675l0,0.018c0.168,0.614 0.935,0.835 0.935,0.835c0,0 0.104,-0.071 0.111,-0.178" style="fill:#fff;fill-rule:nonzero;"/><path d="M29.208,8.367c0,0 0.025,-0.011 0.012,-0.082c-0.11,-0.143 -0.09,-0.221 -0.126,-0.285c-0.039,-0 -0.368,-0.182 -0.464,-0.218c-0.096,-0.036 -0.102,0.103 -0.102,0.103l0.177,0.257l0.503,0.225Z" style="fill:#fff;fill-rule:nonzero;"/><path d="M28.701,8.581l0.507,0.157l0,-0.321l-0.485,-0.207c-0,0 -0.015,-0.025 -0.107,0.125c-0.093,0.15 0.085,0.246 0.085,0.246" style="fill:#fff;fill-rule:nonzero;"/><path d="M29.244,9.17c0.103,-0.021 0.068,-0.125 0.068,-0.125c-0.029,-0.035 -0.104,-0.246 -0.104,-0.246l-0.475,-0.136l-0.078,0.132c-0,0 -0.082,0.104 -0.014,0.193c0.153,0.164 0.499,0.204 0.603,0.182" style="fill:#fff;fill-rule:nonzero;"/><path d="M29.294,9.552c0.107,-0.032 0.217,-0.032 0.299,-0.046c0.086,-0.057 0.075,-0.218 0.075,-0.218c0,-0 -0.067,-0.111 -0.182,-0.079c-0.114,0.033 -0.61,0 -0.61,0l-0.086,0.093c0,0 -0.124,0.086 0,0.168c0.125,0.082 0.397,0.114 0.504,0.082" style="fill:#fff;fill-rule:nonzero;"/><path d="M29.669,9.955c0.279,-0.057 0.271,-0.146 0.256,-0.264c-0.178,0.007 -0.174,-0.064 -0.256,-0.127c-0.271,0.073 -0.618,0.052 -0.618,0.052c-0,0 -0.046,0.079 -0.1,0.186c0.175,0.239 0.439,0.21 0.718,0.153" style="fill:#fff;fill-rule:nonzero;"/><path d="M30.4,10.094c0,0 -0.221,-0.078 -0.403,-0.146c-0.289,0.075 -0.596,0.107 -0.596,0.107c-0,0 -0.054,0.057 -0.107,0.15c0.185,0.154 0.26,0.218 0.671,0.129c0.41,-0.09 0.435,-0.24 0.435,-0.24" style="fill:#fff;fill-rule:nonzero;"/><path d="M30.768,10.223c-0,-0 -0.132,-0.032 -0.282,-0.062c-0.375,0.292 -0.639,0.29 -0.639,0.29l-0.072,0.136c0,0 -0.046,0.057 0.072,0.136c0.475,0.01 0.921,-0.5 0.921,-0.5" style="fill:#fff;fill-rule:nonzero;"/><path d="M30.507,10.537c0,0 -0.103,0.05 -0.068,0.096c0.436,0.04 0.621,-0.36 0.621,-0.36c0,-0 -0.068,-0.018 -0.15,-0.046c-0.103,0.117 -0.403,0.31 -0.403,0.31" style="fill:#fff;fill-rule:nonzero;"/><path d="M31.246,9.564c-0.025,0.266 -0.1,0.384 -0.1,0.384c-0,0 -0.068,0.243 0.139,0.1c0.207,-0.143 0.171,-0.507 0.171,-0.507l-0.21,0.023Z" style="fill:#fff;fill-rule:nonzero;"/><path d="M31.032,10.041c0.114,-0.132 0.128,-0.477 0.128,-0.477l-0.128,-0.041l-0,0.018c-0.222,0.486 -0.432,0.454 -0.432,0.454c-0,-0 -0.064,-0.015 -0.114,0.071c0.275,0.161 0.432,0.107 0.546,-0.025" style="fill:#fff;fill-rule:nonzero;"/><path d="M30.347,10.012c0.392,-0.046 0.588,-0.489 0.588,-0.489c0,0 -0.05,-0.067 -0.142,-0.096c-0.1,0.321 -0.732,0.254 -0.732,0.254l-0.046,0.203l0.274,0.089l0.058,0.039Z" style="fill:#fff;fill-rule:nonzero;"/><path d="M30.657,9.427c0,0 -0.107,-0.125 -0.257,-0.175c-0.307,0.143 -0.553,0.054 -0.553,0.054c-0,-0 -0.096,0.085 -0.157,0.192c0.632,0.34 0.967,-0.071 0.967,-0.071" style="fill:#fff;fill-rule:nonzero;"/><path d="M30.267,9.252c0.099,-0.028 0.094,-0.107 0.094,-0.107l-0.114,-0.107c-0.464,0.05 -0.775,-0.175 -0.775,-0.175c0,0 -0.071,-0.082 -0.155,-0.1c-0.086,0.528 0.851,0.518 0.95,0.489" style="fill:#fff;fill-rule:nonzero;"/><path d="M30.107,8.97c0.093,-0.007 0.066,-0.064 0.066,-0.064c0,0 -0.048,-0.053 -0.141,-0.168c-0.496,-0.117 -0.738,-0.342 -0.738,-0.342c-0.15,0.464 0.721,0.581 0.813,0.574" style="fill:#fff;fill-rule:nonzero;"/><path d="M29.931,8.663c-0,0 0.037,-0.1 0.03,-0.19c-0.268,-0.082 -0.753,-0.581 -0.753,-0.581c-0.186,0.547 0.723,0.771 0.723,0.771" style="fill:#fff;fill-rule:nonzero;"/><path d="M29.276,7.561c-0.213,0.41 0.686,0.856 0.686,0.856c-0,0 0.017,-0.05 -0,-0.153c-0.338,-0.193 -0.686,-0.703 -0.686,-0.703" style="fill:#fff;fill-rule:nonzero;"/><path d="M29.97,8.209c-0,-0 0.037,-0.149 0.045,-0.202c-0.229,-0.129 -0.791,-0.925 -0.791,-0.925c-0.013,0.636 0.746,1.127 0.746,1.127" style="fill:#fff;fill-rule:nonzero;"/><path d="M29.094,6.561c0.157,0.76 0.946,1.396 0.946,1.396c-0,-0 0.042,-0.082 0.103,-0.181c-0.057,-0.084 0.054,0.063 -0.157,-0.18c-0.211,-0.242 -0.757,-0.938 -0.892,-1.035" style="fill:#fff;fill-rule:nonzero;"/><path d="M29.64,6.758c-0,-0 -0.129,-0.261 -0.179,-0.375c-0.05,-0.114 -0.314,-0.378 -0.314,-0.378c0.029,0.217 0.168,0.778 0.426,0.999c0.257,0.221 0.438,0.699 0.604,0.714c0.166,0.014 0.13,-0.061 0.141,-0.157c-0.621,-0.525 -0.678,-0.803 -0.678,-0.803" style="fill:#fff;fill-rule:nonzero;"/><path d="M29.224,5.405c0.119,1.06 0.844,1.827 1.062,2.016c-0.1,-0.11 -0.403,-0.803 -0.428,-0.935c-0.083,-0.082 -0.325,-0.517 -0.389,-0.681c-0.117,-0.096 -0.245,-0.4 -0.245,-0.4" style="fill:#fff;fill-rule:nonzero;"/><path d="M29.814,6.344c-0,-0 0.019,-0.14 0.036,-0.265c-0.221,-0.264 -0.371,-0.938 -0.371,-0.938c-0.107,0.453 0.335,1.203 0.335,1.203" style="fill:#fff;fill-rule:nonzero;"/><path d="M30.4,7.645l0.086,-0.017l0.253,0.264l0,-0.471c-0.717,-0.785 -0.808,-1.295 -0.808,-1.295c-0.201,0.228 0.291,1.049 0.387,1.235c0.096,0.185 0.082,0.284 0.082,0.284" style="fill:#fff;fill-rule:nonzero;"/><path d="M30.115,8.763c-0,0 -0.018,-0.203 0.062,-0.442c0.08,-0.239 0.384,0.018 0.384,0.018c-0,-0 -0.086,-0.375 -0.147,-0.586c-0.642,0.325 -0.299,1.01 -0.299,1.01" style="fill:#fff;fill-rule:nonzero;"/><path d="M31.342,9.238c-0.392,0.046 -0.435,-0.062 -0.435,-0.062l-0.084,0.062c-0,-0 -0.023,-0.057 -0.027,-0.104c-0.417,-0.31 -0.51,-0.817 -0.51,-0.817c-0.264,0.732 0.514,1.16 0.721,1.125c0.207,-0.034 0.3,-0.126 0.335,-0.204" style="fill:#fff;fill-rule:nonzero;"/><path d="M30.877,9.045l0.4,-1.326l-0.4,0.306l0,1.02Z" style="fill:#fff;fill-rule:nonzero;"/><path d="M30.842,9.045l-0,-1.02l-0.4,-0.306l0.4,1.326Z" style="fill:#fff;fill-rule:nonzero;"/><path d="M32.326,2.113l0,-0.27c-0.086,-0.089 -0.172,-0.178 -0.258,-0.267c0,0.084 0.001,0.168 0.001,0.252l0.257,0.285Z" style="fill:#fff;fill-rule:nonzero;"/><path d="M32.326,2.412l0,-0.27c-0.086,-0.089 -0.172,-0.178 -0.258,-0.267c0,0.084 0.001,0.168 0.001,0.252l0.257,0.285Z" style="fill:#fff;fill-rule:nonzero;"/><path d="M32.326,2.717l0,-0.27c-0.086,-0.089 -0.172,-0.178 -0.258,-0.267c0,0.084 0.001,0.168 0.001,0.252l0.257,0.285Z" style="fill:#fff;fill-rule:nonzero;"/><path d="M32.326,3.016l0,-0.27c-0.086,-0.089 -0.172,-0.178 -0.258,-0.267c0,0.084 0.001,0.168 0.001,0.252l0.257,0.285Z" style="fill:#fff;fill-rule:nonzero;"/><path d="M32.516,1.843l-0,0.27l0.257,-0.285c0,-0.084 0.001,-0.168 0.001,-0.252c-0.086,0.089 -0.172,0.178 -0.258,0.267" style="fill:#fff;fill-rule:nonzero;"/><path d="M32.516,2.142l-0,0.27l0.257,-0.285c0,-0.084 0.001,-0.168 0.001,-0.252c-0.086,0.089 -0.172,0.178 -0.258,0.267" style="fill:#fff;fill-rule:nonzero;"/><path d="M32.516,2.447l-0,0.27l0.257,-0.285c0,-0.084 0.001,-0.168 0.001,-0.252c-0.086,0.089 -0.172,0.178 -0.258,0.267" style="fill:#fff;fill-rule:nonzero;"/><path d="M32.516,3.016l0.257,-0.285c0,-0.084 0.001,-0.168 0.001,-0.252c-0.086,0.089 -0.172,0.178 -0.258,0.267l-0,0.27Z" style="fill:#fff;fill-rule:nonzero;"/><path d="M32.449,1.214l-0,0.545l0.209,-0.251l-0.209,-0.294Z" style="fill:#fff;fill-rule:nonzero;"/><path d="M32.393,1.759l0,-0.545l-0.209,0.294l0.209,0.251Z" style="fill:#fff;fill-rule:nonzero;"/><path d="M33.859,5.547c0.077,-0.142 0.173,-0.347 0.246,-0.605c0.168,-0.602 0.092,-1.099 0.03,-1.484c-0.126,-0.773 -0.416,-1.398 -0.686,-1.847c0,0 0.714,2.103 0.41,3.936" style="fill:#fff;fill-rule:nonzero;"/><path d="M34.096,5.256c0.015,0.078 0.028,0.336 0.024,0.276c-0.003,-0.059 0.006,0.216 -0.101,0.508c0.464,-0.535 0.453,-0.817 0.596,-1.44c0.257,-1.114 0.042,-2.046 -0.1,-2.508c0,-0 0.129,1.023 -0.419,3.164" style="fill:#fff;fill-rule:nonzero;"/><path d="M34.055,6.522c0.339,-0.161 0.564,-0.41 0.896,-1.36c0.332,-0.949 0.103,-2.166 0.103,-2.166c0,-0 -0.053,1.656 -0.864,2.959c-0.01,0.142 -0.042,0.36 -0.135,0.567" style="fill:#fff;fill-rule:nonzero;"/><path d="M34.735,5.912c-0.038,0.05 -0.291,0.457 -0.473,0.553l0.007,0.096c-0,0 0.225,-0.075 0.596,-0.432c0.257,-0.471 0.539,-0.977 0.639,-2.091c-0,0 -0.172,1.014 -0.653,1.577c-0.068,0.125 -0.078,0.247 -0.116,0.297" style="fill:#fff;fill-rule:nonzero;"/><path d="M35.739,5.208c-0.099,0.157 -0.683,1.045 -1.532,1.46c-0.099,0.232 -0.124,0.261 -0.124,0.261c0,-0 -0.007,0.039 0.057,0.114c-0.042,0.075 -0.057,0.143 -0.057,0.143l0.043,0.021c0,0 1.121,-0.491 1.623,-2.015l0.005,-0.008c-0,-0 -0.005,0.008 -0.015,0.024" style="fill:#fff;fill-rule:nonzero;"/><path d="M34.123,7.257c-0.075,0.114 -0.125,0.236 -0.018,0.4c0.114,-0.036 1.063,-0.421 1.249,-1.413l-0,-0.018c-0,-0 -0.596,0.756 -1.231,1.031" style="fill:#fff;fill-rule:nonzero;"/><path d="M34.165,7.935c0,0 0.768,-0.221 0.936,-0.835l-0,-0.018c-0,0 -0.803,0.653 -1.046,0.675c0.007,0.107 0.11,0.178 0.11,0.178" style="fill:#fff;fill-rule:nonzero;"/><path d="M34.633,7.782c-0.096,0.036 -0.425,0.218 -0.464,0.218c-0.036,0.064 -0.016,0.142 -0.126,0.285c-0.013,0.071 0.012,0.082 0.012,0.082l0.503,-0.225l0.177,-0.257c-0,0 -0.006,-0.139 -0.102,-0.103" style="fill:#fff;fill-rule:nonzero;"/><path d="M34.54,8.21l-0.485,0.207l-0,0.321l0.507,-0.157c-0,0 0.178,-0.096 0.085,-0.246c-0.093,-0.15 -0.107,-0.125 -0.107,-0.125" style="fill:#fff;fill-rule:nonzero;"/><path d="M34.529,8.663l-0.474,0.136c-0,-0 -0.075,0.211 -0.104,0.246c0,0 -0.035,0.104 0.068,0.125c0.104,0.022 0.45,-0.018 0.603,-0.182c0.068,-0.089 -0.014,-0.193 -0.014,-0.193l-0.079,-0.132Z" style="fill:#fff;fill-rule:nonzero;"/><path d="M34.472,9.302l-0.085,-0.093c0,0 -0.496,0.033 -0.611,0c-0.114,-0.032 -0.182,0.079 -0.182,0.079c0,-0 -0.01,0.161 0.075,0.218c0.082,0.014 0.193,0.014 0.3,0.046c0.107,0.032 0.378,0 0.503,-0.082c0.125,-0.082 0,-0.168 0,-0.168" style="fill:#fff;fill-rule:nonzero;"/><path d="M33.594,9.564c-0.082,0.063 -0.078,0.134 -0.257,0.127c-0.014,0.118 -0.022,0.207 0.257,0.264c0.279,0.057 0.543,0.086 0.718,-0.153c-0.054,-0.107 -0.1,-0.186 -0.1,-0.186c-0,0 -0.347,0.021 -0.618,-0.052" style="fill:#fff;fill-rule:nonzero;"/><path d="M33.266,9.948c-0.182,0.068 -0.403,0.146 -0.403,0.146c-0,0 0.025,0.15 0.435,0.24c0.411,0.089 0.486,0.025 0.671,-0.129c-0.053,-0.093 -0.107,-0.15 -0.107,-0.15c0,0 -0.307,-0.032 -0.596,-0.107" style="fill:#fff;fill-rule:nonzero;"/><path d="M33.416,10.451c-0,0 -0.264,0.002 -0.639,-0.29c-0.15,0.03 -0.282,0.062 -0.282,0.062c0,-0 0.446,0.51 0.921,0.5c0.118,-0.079 0.071,-0.136 0.071,-0.136l-0.071,-0.136Z" style="fill:#fff;fill-rule:nonzero;"/><path d="M32.756,10.537c-0,0 -0.3,-0.193 -0.404,-0.31c-0.082,0.028 -0.149,0.046 -0.149,0.046c-0,-0 0.185,0.4 0.621,0.36c0.035,-0.046 -0.068,-0.096 -0.068,-0.096" style="fill:#fff;fill-rule:nonzero;"/><path d="M32.017,9.564l-0.211,-0.023c0,0 -0.035,0.364 0.172,0.507c0.207,0.143 0.139,-0.1 0.139,-0.1c-0,0 -0.075,-0.118 -0.1,-0.384" style="fill:#fff;fill-rule:nonzero;"/><path d="M32.777,10.066c-0.05,-0.086 -0.114,-0.071 -0.114,-0.071c-0,-0 -0.211,0.032 -0.432,-0.454l0,-0.018l-0.128,0.041c-0,0 0.014,0.345 0.128,0.477c0.114,0.132 0.271,0.186 0.546,0.025" style="fill:#fff;fill-rule:nonzero;"/><path d="M32.973,9.973l0.275,-0.089l-0.046,-0.203c-0,-0 -0.632,0.067 -0.732,-0.254c-0.093,0.029 -0.143,0.096 -0.143,0.096c0,0 0.197,0.443 0.589,0.489l0.057,-0.039Z" style="fill:#fff;fill-rule:nonzero;"/><path d="M33.416,9.306c-0,-0 -0.246,0.089 -0.553,-0.054c-0.15,0.05 -0.257,0.175 -0.257,0.175c-0,0 0.335,0.411 0.967,0.071c-0.061,-0.107 -0.157,-0.192 -0.157,-0.192" style="fill:#fff;fill-rule:nonzero;"/><path d="M33.945,8.763c-0.083,0.018 -0.154,0.1 -0.154,0.1c-0,0 -0.311,0.225 -0.775,0.175l-0.114,0.107c0,0 -0.005,0.079 0.094,0.107c0.099,0.029 1.036,0.039 0.949,-0.489" style="fill:#fff;fill-rule:nonzero;"/><path d="M33.969,8.396c0,-0 -0.243,0.225 -0.739,0.342c-0.092,0.115 -0.141,0.168 -0.141,0.168c0,0 -0.026,0.057 0.066,0.064c0.093,0.007 0.964,-0.11 0.814,-0.574" style="fill:#fff;fill-rule:nonzero;"/><path d="M34.055,7.892c-0,0 -0.486,0.499 -0.753,0.581c-0.007,0.09 0.03,0.19 0.03,0.19c-0,0 0.908,-0.224 0.723,-0.771" style="fill:#fff;fill-rule:nonzero;"/><path d="M33.986,7.561c0,-0 -0.347,0.51 -0.685,0.703c-0.017,0.103 -0,0.153 -0,0.153c-0,0 0.899,-0.446 0.685,-0.856" style="fill:#fff;fill-rule:nonzero;"/><path d="M33.248,8.007c0.007,0.053 0.045,0.202 0.045,0.202c0,-0 0.759,-0.491 0.746,-1.127c0,0 -0.562,0.796 -0.791,0.925" style="fill:#fff;fill-rule:nonzero;"/><path d="M33.277,7.596c-0.211,0.243 -0.1,0.096 -0.157,0.18c0.06,0.099 0.103,0.181 0.103,0.181c0,-0 0.789,-0.636 0.946,-1.396c-0.136,0.097 -0.682,0.793 -0.892,1.035" style="fill:#fff;fill-rule:nonzero;"/><path d="M33.086,7.718c0.166,-0.015 0.347,-0.493 0.604,-0.714c0.258,-0.221 0.397,-0.782 0.425,-0.999c0,-0 -0.264,0.264 -0.314,0.378c-0.05,0.114 -0.178,0.375 -0.178,0.375c-0,-0 -0.057,0.278 -0.678,0.803c0.011,0.096 -0.025,0.171 0.141,0.157" style="fill:#fff;fill-rule:nonzero;"/><path d="M34.039,5.405c0,-0 -0.128,0.304 -0.245,0.4c-0.064,0.164 -0.307,0.599 -0.389,0.681c-0.025,0.132 -0.328,0.825 -0.428,0.935c0.218,-0.189 0.943,-0.956 1.062,-2.016" style="fill:#fff;fill-rule:nonzero;"/><path d="M33.784,5.141c-0,-0 -0.15,0.674 -0.372,0.938c0.018,0.125 0.037,0.265 0.037,0.265c0,-0 0.442,-0.75 0.335,-1.203" style="fill:#fff;fill-rule:nonzero;"/><path d="M32.524,7.421l-0,0.471l0.253,-0.264l0.086,0.017c-0,0 -0.014,-0.099 0.082,-0.284c0.096,-0.186 0.588,-1.007 0.387,-1.235c-0,-0 -0.091,0.51 -0.808,1.295" style="fill:#fff;fill-rule:nonzero;"/><path d="M32.702,8.339c0,-0 0.304,-0.257 0.384,-0.018c0.08,0.239 0.062,0.442 0.062,0.442c0,0 0.343,-0.685 -0.299,-1.01c-0.061,0.211 -0.147,0.586 -0.147,0.586" style="fill:#fff;fill-rule:nonzero;"/><path d="M32.256,9.442c0.207,0.035 0.985,-0.393 0.721,-1.125c0,0 -0.093,0.507 -0.51,0.817c-0.004,0.047 -0.027,0.104 -0.027,0.104l-0.084,-0.062c0,-0 -0.043,0.108 -0.435,0.062c0.035,0.078 0.128,0.17 0.335,0.204" style="fill:#fff;fill-rule:nonzero;"/><path d="M32.386,9.045l-0,-1.02l-0.4,-0.306l0.4,1.326Z" style="fill:#fff;fill-rule:nonzero;"/><path d="M32.421,9.045l0.4,-1.326l-0.4,0.306l0,1.02Z" style="fill:#fff;fill-rule:nonzero;"/><path d="M31.924,6.684c0,-0 -0.057,-0.105 -0.19,-0.034c-0.119,0.124 0.076,0.359 0.076,0.359c0.147,-0.165 0.114,-0.325 0.114,-0.325" style="fill:#fff;fill-rule:nonzero;"/><path d="M31.38,6.679c-0.097,0.133 -0.03,0.167 -0.03,0.167l0.06,0.185c0.157,-0.171 0.143,-0.352 0.143,-0.352c-0,0 -0.076,-0.133 -0.173,0" style="fill:#fff;fill-rule:nonzero;"/><path d="M32.326,7.026l0,-0.478c-0.04,-0.033 -0.098,-0.052 -0.173,-0.012c-0.162,0.086 -0.134,0.238 -0.077,0.429c0.058,0.19 0.077,0.38 0.077,0.38c0.081,-0.118 0.136,-0.226 0.173,-0.319" style="fill:#fff;fill-rule:nonzero;"/><path d="M32.538,6.37c0,-0 -0.005,0.008 -0.022,0.01l-0,0.19c0.004,-0.003 0.008,-0.005 0.013,-0.009c0.128,-0.118 0.009,-0.191 0.009,-0.191" style="fill:#fff;fill-rule:nonzero;"/><path d="M30.747,6.58l0,-0.208l-0.036,0.022c-0,-0 -0.091,0.114 0.036,0.186" style="fill:#fff;fill-rule:nonzero;"/><path d="M31.981,6.608c0.166,-0.155 0.269,-0.145 0.345,-0.106l0,-0.21c-0.038,-0.062 -0.008,-0.141 0,-0.161l0,-0.391c-0.186,-0.025 -0.392,-0.234 -0.392,-0.234c-0,0 -0.081,-0.017 0.033,0.207c-0.19,-0.128 -0.362,-0.413 -0.362,-0.413c0,-0 -0.023,0.085 -0.038,0.161c-0.109,0.054 -0.119,0.133 -0.1,0.195c0.019,0.062 0.038,-0.176 0.21,-0.067c0.171,0.11 0.276,0.4 0.276,0.537c-0,0.137 -0.186,0.158 -0.186,0.158l-0.062,-0.089c-0.062,-0.088 -0.033,-0.073 -0.08,-0.19c-0.105,0.272 -0.205,0.251 -0.205,0.251c-0,-0 -0.167,0.033 -0.167,-0.167c0,-0.2 0.152,-0.433 0.152,-0.433c0,-0 -0.085,0.062 -0.171,0.086c0.008,-0.052 0.039,-0.156 0.047,-0.187c-0.009,0.022 -0.05,0.079 -0.242,0.139c-0.037,0.011 -0.071,0.02 -0.102,0.026l-0,0.8c0.253,-0.065 0.273,0.073 0.292,0.188c0.162,-0.196 0.267,-0.11 0.405,-0.067c0.091,-0.071 0.138,-0.095 0.347,-0.033" style="fill:#fff;fill-rule:nonzero;"/><path d="M30.031,4.858c-0.224,0.135 -0.054,0.422 -0.054,0.422c-0,0 0.096,0.129 0.054,0.224c0.086,0.062 0.09,0.209 0.09,0.209l-0.053,0.01c0,-0 0,-0.11 -0.037,-0.129c-0.095,0.071 -0.191,0.314 0.033,0.532c0.223,0.218 0.456,0.039 0.504,-0c0.048,-0.039 0.157,-0 0.157,-0l0,-0.011l0.022,0.009l0,-0.391c-0.007,-0 -0.016,-0 -0.022,-0.001l0,-0.028c0,-0 -0.124,-0.029 -0.328,-0.196c-0.205,-0.166 -0.057,-0.395 -0,-0.466c-0.115,0.033 -0.157,0.048 -0.247,0.099c-0.06,-0.187 0.394,-0.327 0.575,-0.137c0.021,0.022 0.041,0.041 0.062,0.06l-0,2.871l0.11,0l0,-2.783c0.107,0.075 0.187,0.104 0.187,0.104c0,0 0.236,0.072 0.36,-0.072c0.123,-0.144 -0.034,-0.299 -0.034,-0.299c0,0 -0.066,-0.086 0.038,-0.027c0.105,0.059 0.105,0.326 0.105,0.326l0.081,-0.113c0,-0 0.005,0.09 0.035,0.113c-0.017,-0.059 0.051,-0.304 0.051,-0.304c-0,0 0.033,-0.019 0.09,0.038c-0.1,0.3 0.033,0.414 0.128,0.382c0.096,-0.033 0.248,-0.087 0.248,-0.087c-0,0 0.07,-0.051 0.18,-0.122l-0,2.844l0.11,0l0,-2.913c0.041,-0.024 0.083,-0.05 0.129,-0.075c0.238,-0.133 0.399,0.067 0.409,0.194c-0.072,-0.082 -0.238,-0.123 -0.238,-0.123l0.048,0.062c-0,0 -0.024,-0.009 -0.062,-0.009c0.195,0.276 0.138,0.361 0.066,0.476c-0.058,0.092 -0.244,0.163 -0.312,0.187l-0,0.379c0.031,0.011 0.083,0.027 0.17,0.052c0.299,0.086 0.59,-0.057 0.604,-0.29c0.014,-0.233 -0.071,-0.305 -0.071,-0.305l-0.053,0.072l-0.076,-0c0,-0 0.048,-0.062 0.086,-0.148c0.038,-0.085 0.014,-0.194 0.014,-0.194l0.114,-0.159c0,-0 0.124,-0.175 -0.046,-0.283c-0.479,-0.222 -0.42,-0.544 -0.42,-0.544c-0,0 -0.005,-0.024 0.052,-0.024c0.004,0.068 0.024,0.22 0.139,0.347c0.031,0.035 0.064,0.061 0.094,0.082c0.018,0.022 0.043,0.045 0.062,0.04c0.065,-0.018 0.055,-0.341 -0.024,-0.588c-0.097,-0.306 -0.3,-0.494 -0.385,-0.571c-0.096,-0.086 -0.197,-0.155 -0.3,-0.21l0,-1.609l-0.11,0l-0,1.555c-0.431,-0.19 -0.854,-0.156 -0.947,-0.15c-0.171,0.011 -0.344,0.049 -0.522,0.119l0,-1.524l-0.11,0l-0,1.571c-0.072,0.033 -0.145,0.071 -0.219,0.115c-0.795,0.471 -0.537,1.318 -0.537,1.318c0.324,-0.252 0.268,-0.504 0.268,-0.504c0,-0 0.022,-0.053 0.083,0.033c-0.014,0.319 -0.152,0.49 -0.351,0.544" style="fill:#fff;fill-rule:nonzero;"/><path d="M31.039,6.561c0,0 -0.051,-0.001 -0.102,0.023l-0,0.493c0.069,0.121 0.147,0.216 0.147,0.216c0.045,-0.057 0.088,-0.519 0.084,-0.667c-0.057,-0.053 -0.129,-0.065 -0.129,-0.065" style="fill:#fff;fill-rule:nonzero;"/></g></g></svg>