<?xml version="1.0" encoding="UTF-8" standalone="no"?><!DOCTYPE svg PUBLIC "-//W3C//DTD SVG 1.1//EN" "http://www.w3.org/Graphics/SVG/1.1/DTD/svg11.dtd"><svg width="100%" height="100%" viewBox="0 0 45 17" version="1.1" xmlns="http://www.w3.org/2000/svg" xmlns:xlink="http://www.w3.org/1999/xlink" xml:space="preserve" xmlns:serif="http://www.serif.com/" style="fill-rule:evenodd;clip-rule:evenodd;stroke-linejoin:round;stroke-miterlimit:2;"><g><g id="ASOT"><g><g><path d="M5.693,14.328l1.033,-2.339l0.652,-0l1.034,2.339l-0.687,0l-0.808,-2.016l0.26,0l-0.808,2.016l-0.676,0Zm0.565,-0.455l0.17,-0.487l1.143,-0l0.171,0.487l-1.484,-0Z" style="fill:#fff;fill-rule:nonzero;"/><path d="M9.63,14.375c-0.345,-0 -0.614,-0.095 -0.808,-0.284c-0.194,-0.189 -0.29,-0.457 -0.29,-0.804l-0,-1.298l0.662,-0l-0,1.278c-0,0.2 0.039,0.344 0.117,0.431c0.079,0.087 0.187,0.131 0.324,0.131c0.139,-0 0.248,-0.044 0.325,-0.131c0.078,-0.087 0.117,-0.231 0.117,-0.431l-0,-1.278l0.651,-0l-0,1.298c-0,0.347 -0.097,0.615 -0.291,0.804c-0.193,0.189 -0.462,0.284 -0.807,0.284Z" style="fill:#fff;fill-rule:nonzero;"/><path d="M11.998,14.375c-0.191,-0 -0.376,-0.024 -0.553,-0.071c-0.177,-0.048 -0.321,-0.109 -0.432,-0.185l0.217,-0.489c0.106,0.068 0.227,0.123 0.364,0.165c0.138,0.043 0.274,0.064 0.408,0.064c0.093,-0 0.166,-0.008 0.221,-0.024c0.055,-0.016 0.095,-0.038 0.121,-0.067c0.025,-0.028 0.038,-0.061 0.038,-0.099c0,-0.053 -0.024,-0.095 -0.072,-0.126c-0.048,-0.031 -0.112,-0.057 -0.19,-0.077c-0.079,-0.02 -0.165,-0.04 -0.259,-0.06c-0.094,-0.02 -0.189,-0.045 -0.284,-0.076c-0.095,-0.031 -0.181,-0.072 -0.26,-0.122c-0.078,-0.05 -0.142,-0.116 -0.19,-0.198c-0.048,-0.083 -0.072,-0.186 -0.072,-0.311c-0,-0.138 0.038,-0.265 0.114,-0.379c0.077,-0.115 0.192,-0.206 0.346,-0.275c0.153,-0.068 0.345,-0.102 0.576,-0.102c0.152,-0 0.302,0.017 0.451,0.051c0.148,0.034 0.28,0.085 0.395,0.154l-0.202,0.488c-0.111,-0.06 -0.222,-0.105 -0.331,-0.134c-0.109,-0.029 -0.215,-0.044 -0.318,-0.044c-0.091,0 -0.165,0.01 -0.22,0.029c-0.056,0.018 -0.096,0.043 -0.12,0.075c-0.025,0.031 -0.037,0.066 -0.037,0.104c-0,0.052 0.024,0.092 0.072,0.123c0.048,0.03 0.112,0.055 0.19,0.074c0.079,0.019 0.166,0.038 0.261,0.058c0.094,0.019 0.189,0.044 0.283,0.075c0.094,0.03 0.181,0.07 0.259,0.12c0.079,0.05 0.142,0.116 0.19,0.197c0.048,0.081 0.073,0.183 0.073,0.306c-0,0.136 -0.039,0.262 -0.116,0.376c-0.077,0.114 -0.192,0.206 -0.345,0.276c-0.153,0.069 -0.346,0.104 -0.578,0.104Z" style="fill:#fff;fill-rule:nonzero;"/><path d="M13.803,14.328l-0,-1.815l-0.717,0l-0,-0.524l2.096,-0l0,0.524l-0.717,0l0,1.815l-0.662,0Z" style="fill:#fff;fill-rule:nonzero;"/><path d="M15.43,14.328l-0,-2.339l1.067,-0c0.214,-0 0.399,0.035 0.554,0.104c0.156,0.07 0.276,0.17 0.36,0.299c0.085,0.13 0.127,0.284 0.127,0.462c-0,0.177 -0.042,0.329 -0.127,0.457c-0.084,0.128 -0.204,0.226 -0.36,0.294c-0.155,0.068 -0.34,0.102 -0.554,0.102l-0.7,-0l0.295,-0.279l-0,0.9l-0.662,0Zm1.445,0l-0.581,-0.851l0.704,0l0.587,0.851l-0.71,0Zm-0.783,-0.827l-0.295,-0.305l0.661,0c0.138,0 0.241,-0.03 0.31,-0.091c0.068,-0.061 0.102,-0.145 0.102,-0.251c0,-0.108 -0.034,-0.192 -0.102,-0.252c-0.069,-0.061 -0.172,-0.091 -0.31,-0.091l-0.661,0l0.295,-0.306l-0,1.296Z" style="fill:#fff;fill-rule:nonzero;"/><path d="M17.621,14.328l1.033,-2.339l0.652,-0l1.034,2.339l-0.687,0l-0.808,-2.016l0.259,0l-0.808,2.016l-0.675,0Zm0.564,-0.455l0.171,-0.487l1.142,-0l0.172,0.487l-1.485,-0Z" style="fill:#fff;fill-rule:nonzero;"/><path d="M20.529,14.328l0,-2.339l0.663,-0l-0,1.815l1.115,-0l-0,0.524l-1.778,0Z" style="fill:#fff;fill-rule:nonzero;"/><rect x="22.568" y="11.989" width="0.662" height="2.339" style="fill:#fff;fill-rule:nonzero;"/><path d="M23.419,14.328l1.033,-2.339l0.652,-0l1.034,2.339l-0.687,0l-0.808,-2.016l0.26,0l-0.808,2.016l-0.676,0Zm0.565,-0.455l0.17,-0.487l1.143,-0l0.171,0.487l-1.484,-0Z" style="fill:#fff;fill-rule:nonzero;"/><path d="M26.328,14.328l-0,-2.339l0.544,-0l1.289,1.558l-0.258,0l0,-1.558l0.649,-0l-0,2.339l-0.545,0l-1.288,-1.558l0.257,-0l0,1.558l-0.648,0Z" style="fill:#fff;fill-rule:nonzero;"/></g><g><path d="M30.813,14.375c-0.191,-0 -0.375,-0.024 -0.552,-0.071c-0.177,-0.048 -0.322,-0.109 -0.433,-0.185l0.218,-0.489c0.105,0.068 0.226,0.123 0.364,0.165c0.137,0.043 0.273,0.064 0.408,0.064c0.092,-0 0.166,-0.008 0.221,-0.024c0.055,-0.016 0.095,-0.038 0.12,-0.067c0.026,-0.028 0.039,-0.061 0.039,-0.099c-0,-0.053 -0.024,-0.095 -0.073,-0.126c-0.048,-0.031 -0.111,-0.057 -0.19,-0.077c-0.078,-0.02 -0.165,-0.04 -0.259,-0.06c-0.094,-0.02 -0.188,-0.045 -0.283,-0.076c-0.095,-0.031 -0.182,-0.072 -0.26,-0.122c-0.079,-0.05 -0.142,-0.116 -0.191,-0.198c-0.048,-0.083 -0.072,-0.186 -0.072,-0.311c0,-0.138 0.038,-0.265 0.115,-0.379c0.076,-0.115 0.191,-0.206 0.345,-0.275c0.154,-0.068 0.346,-0.102 0.577,-0.102c0.152,-0 0.302,0.017 0.45,0.051c0.148,0.034 0.28,0.085 0.396,0.154l-0.202,0.488c-0.112,-0.06 -0.222,-0.105 -0.331,-0.134c-0.11,-0.029 -0.216,-0.044 -0.319,-0.044c-0.091,0 -0.164,0.01 -0.22,0.029c-0.055,0.018 -0.095,0.043 -0.12,0.075c-0.024,0.031 -0.037,0.066 -0.037,0.104c0,0.052 0.025,0.092 0.073,0.123c0.048,0.03 0.111,0.055 0.19,0.074c0.078,0.019 0.165,0.038 0.26,0.058c0.095,0.019 0.189,0.044 0.283,0.075c0.095,0.03 0.181,0.07 0.26,0.12c0.078,0.05 0.142,0.116 0.19,0.197c0.048,0.081 0.072,0.183 0.072,0.306c0,0.136 -0.038,0.262 -0.115,0.376c-0.077,0.114 -0.192,0.206 -0.345,0.276c-0.153,0.069 -0.346,0.104 -0.579,0.104Z" style="fill:#fff;fill-rule:nonzero;"/><path d="M32.156,14.328l0,-2.339l1.067,-0c0.215,-0 0.399,0.035 0.555,0.104c0.155,0.07 0.275,0.17 0.36,0.299c0.084,0.13 0.127,0.284 0.127,0.462c-0,0.177 -0.043,0.33 -0.127,0.459c-0.085,0.129 -0.205,0.228 -0.36,0.299c-0.156,0.07 -0.34,0.105 -0.555,0.105l-0.7,0l0.295,-0.289l0,0.9l-0.662,0Zm0.662,-0.827l-0.295,-0.306l0.662,-0c0.138,-0 0.241,-0.03 0.309,-0.091c0.069,-0.06 0.103,-0.144 0.103,-0.25c-0,-0.108 -0.034,-0.192 -0.103,-0.252c-0.068,-0.061 -0.171,-0.091 -0.309,-0.091l-0.662,0l0.295,-0.306l0,1.296Z" style="fill:#fff;fill-rule:nonzero;"/><path d="M35.193,12.895l1.086,0l-0,0.493l-1.086,-0l-0,-0.493Zm0.046,0.92l1.223,0l0,0.513l-1.876,0l-0,-2.339l1.832,-0l-0,0.513l-1.179,-0l-0,1.313Z" style="fill:#fff;fill-rule:nonzero;"/><path d="M37.996,14.375c-0.185,-0 -0.355,-0.03 -0.512,-0.089c-0.157,-0.059 -0.293,-0.143 -0.408,-0.252c-0.115,-0.109 -0.205,-0.237 -0.269,-0.385c-0.064,-0.149 -0.096,-0.312 -0.096,-0.49c0,-0.179 0.032,-0.342 0.096,-0.49c0.064,-0.149 0.154,-0.277 0.269,-0.386c0.116,-0.109 0.252,-0.193 0.409,-0.252c0.157,-0.059 0.328,-0.088 0.512,-0.088c0.216,-0 0.409,0.037 0.579,0.112c0.171,0.075 0.313,0.184 0.426,0.328l-0.42,0.381c-0.075,-0.089 -0.158,-0.157 -0.249,-0.204c-0.091,-0.048 -0.192,-0.071 -0.303,-0.071c-0.097,-0 -0.184,0.015 -0.264,0.047c-0.079,0.032 -0.147,0.077 -0.205,0.136c-0.057,0.059 -0.102,0.13 -0.134,0.213c-0.032,0.082 -0.048,0.173 -0.048,0.274c-0,0.1 0.016,0.191 0.048,0.274c0.032,0.082 0.077,0.153 0.134,0.212c0.058,0.059 0.126,0.105 0.205,0.136c0.08,0.032 0.167,0.048 0.264,0.048c0.111,-0 0.212,-0.024 0.303,-0.071c0.091,-0.048 0.174,-0.116 0.249,-0.206l0.42,0.382c-0.113,0.141 -0.255,0.25 -0.426,0.326c-0.17,0.076 -0.364,0.115 -0.58,0.115Z" style="fill:#fff;fill-rule:nonzero;"/><rect x="39.298" y="11.989" width="0.662" height="2.339" style="fill:#fff;fill-rule:nonzero;"/><path d="M40.149,14.328l1.033,-2.339l0.652,-0l1.034,2.339l-0.687,0l-0.808,-2.016l0.26,0l-0.808,2.016l-0.676,0Zm0.565,-0.455l0.17,-0.487l1.143,-0l0.171,0.487l-1.484,-0Z" style="fill:#fff;fill-rule:nonzero;"/><path d="M43.058,14.328l-0,-2.339l0.662,-0l0,1.815l1.115,-0l0,0.524l-1.777,0Z" style="fill:#fff;fill-rule:nonzero;"/></g><g><path d="M6.332,16.728c-0.163,-0 -0.313,-0.026 -0.451,-0.079c-0.138,-0.052 -0.258,-0.126 -0.359,-0.221c-0.101,-0.095 -0.18,-0.207 -0.236,-0.336c-0.056,-0.129 -0.085,-0.269 -0.085,-0.422c0,-0.153 0.029,-0.293 0.085,-0.421c0.056,-0.128 0.135,-0.24 0.236,-0.335c0.101,-0.096 0.221,-0.17 0.359,-0.222c0.137,-0.052 0.287,-0.078 0.45,-0.078c0.163,-0 0.314,0.026 0.451,0.078c0.137,0.052 0.256,0.126 0.357,0.221c0.101,0.096 0.18,0.207 0.236,0.335c0.056,0.128 0.084,0.269 0.084,0.422c0,0.153 -0.028,0.294 -0.084,0.423c-0.056,0.129 -0.135,0.241 -0.236,0.336c-0.101,0.095 -0.22,0.168 -0.357,0.221c-0.137,0.052 -0.287,0.078 -0.45,0.078Zm-0.001,-0.475c0.078,0 0.15,-0.014 0.216,-0.041c0.066,-0.028 0.124,-0.067 0.174,-0.118c0.05,-0.051 0.089,-0.112 0.116,-0.184c0.028,-0.071 0.042,-0.151 0.042,-0.24c-0,-0.088 -0.014,-0.168 -0.042,-0.239c-0.027,-0.071 -0.066,-0.132 -0.116,-0.183c-0.049,-0.051 -0.107,-0.091 -0.174,-0.118c-0.066,-0.028 -0.138,-0.042 -0.216,-0.042c-0.078,0 -0.15,0.014 -0.217,0.042c-0.066,0.027 -0.124,0.067 -0.174,0.118c-0.05,0.051 -0.089,0.112 -0.116,0.183c-0.028,0.072 -0.042,0.151 -0.042,0.239c-0,0.088 0.014,0.168 0.041,0.24c0.028,0.071 0.067,0.133 0.117,0.184c0.05,0.051 0.108,0.09 0.174,0.118c0.067,0.027 0.139,0.041 0.217,0.041Z" style="fill:#fff;fill-rule:nonzero;"/><path d="M7.764,16.688l-0,-2.034l0.928,-0c0.186,-0 0.346,0.03 0.482,0.091c0.135,0.06 0.239,0.147 0.313,0.26c0.073,0.112 0.11,0.246 0.11,0.401c-0,0.153 -0.037,0.286 -0.11,0.399c-0.074,0.112 -0.178,0.198 -0.313,0.26c-0.136,0.061 -0.296,0.091 -0.482,0.091l-0.609,0l0.257,-0.251l-0,0.783l-0.576,-0Zm0.576,-0.72l-0.257,-0.266l0.575,0c0.12,0 0.21,-0.026 0.269,-0.078c0.059,-0.053 0.089,-0.126 0.089,-0.218c0,-0.094 -0.03,-0.167 -0.089,-0.219c-0.059,-0.053 -0.149,-0.079 -0.269,-0.079l-0.575,-0l0.257,-0.266l-0,1.126Z" style="fill:#fff;fill-rule:nonzero;"/><path d="M10.403,15.442l0.945,-0l-0,0.428l-0.945,-0l0,-0.428Zm0.041,0.8l1.063,-0l0,0.446l-1.631,-0l-0,-2.034l1.593,-0l-0,0.446l-1.025,-0l-0,1.142Z" style="fill:#fff;fill-rule:nonzero;"/><path d="M11.828,16.688l0,-2.034l0.928,-0c0.186,-0 0.347,0.03 0.482,0.091c0.135,0.06 0.239,0.147 0.313,0.26c0.073,0.112 0.11,0.246 0.11,0.401c-0,0.153 -0.037,0.286 -0.11,0.397c-0.074,0.111 -0.178,0.197 -0.313,0.256c-0.135,0.059 -0.296,0.088 -0.482,0.088l-0.609,0l0.257,-0.242l-0,0.783l-0.576,-0Zm1.257,-0l-0.505,-0.74l0.612,-0l0.51,0.74l-0.617,-0Zm-0.681,-0.72l-0.257,-0.265l0.575,0c0.12,0 0.21,-0.026 0.269,-0.079c0.06,-0.053 0.089,-0.126 0.089,-0.218c0,-0.094 -0.029,-0.167 -0.089,-0.219c-0.059,-0.053 -0.149,-0.079 -0.269,-0.079l-0.575,-0l0.257,-0.266l-0,1.126Z" style="fill:#fff;fill-rule:nonzero;"/><path d="M13.733,16.688l0.898,-2.034l0.567,-0l0.899,2.034l-0.598,-0l-0.702,-1.753l0.226,0l-0.703,1.753l-0.587,-0Zm0.491,-0.396l0.148,-0.424l0.993,0l0.149,0.424l-1.29,-0Z" style="fill:#fff;fill-rule:nonzero;"/><path d="M16.591,16.688l-0,-1.578l-0.624,-0l0,-0.456l1.823,-0l-0,0.456l-0.624,-0l0,1.578l-0.575,-0Z" style="fill:#fff;fill-rule:nonzero;"/><rect x="18.005" y="14.654" width="0.576" height="2.034" style="fill:#fff;fill-rule:nonzero;"/><path d="M20.015,16.728c-0.162,-0 -0.313,-0.026 -0.451,-0.079c-0.138,-0.052 -0.258,-0.126 -0.359,-0.221c-0.101,-0.095 -0.18,-0.207 -0.236,-0.336c-0.056,-0.129 -0.084,-0.269 -0.084,-0.422c-0,-0.153 0.028,-0.293 0.084,-0.421c0.056,-0.128 0.135,-0.24 0.236,-0.335c0.101,-0.096 0.221,-0.17 0.359,-0.222c0.138,-0.052 0.288,-0.078 0.45,-0.078c0.164,-0 0.314,0.026 0.451,0.078c0.137,0.052 0.256,0.126 0.357,0.221c0.102,0.096 0.18,0.207 0.236,0.335c0.057,0.128 0.085,0.269 0.085,0.422c-0,0.153 -0.028,0.294 -0.085,0.423c-0.056,0.129 -0.134,0.241 -0.236,0.336c-0.101,0.095 -0.22,0.168 -0.357,0.221c-0.137,0.052 -0.287,0.078 -0.45,0.078Zm-0.001,-0.475c0.078,0 0.15,-0.014 0.216,-0.041c0.067,-0.028 0.125,-0.067 0.174,-0.118c0.05,-0.051 0.089,-0.112 0.117,-0.184c0.027,-0.071 0.041,-0.151 0.041,-0.24c0,-0.088 -0.014,-0.168 -0.041,-0.239c-0.028,-0.071 -0.067,-0.132 -0.116,-0.183c-0.05,-0.051 -0.108,-0.091 -0.175,-0.118c-0.066,-0.028 -0.138,-0.042 -0.216,-0.042c-0.078,0 -0.15,0.014 -0.216,0.042c-0.067,0.027 -0.125,0.067 -0.175,0.118c-0.05,0.051 -0.088,0.112 -0.116,0.183c-0.028,0.072 -0.042,0.151 -0.042,0.239c0,0.088 0.014,0.168 0.042,0.24c0.027,0.071 0.066,0.133 0.116,0.184c0.05,0.051 0.108,0.09 0.175,0.118c0.066,0.027 0.138,0.041 0.216,0.041Z" style="fill:#fff;fill-rule:nonzero;"/><path d="M21.447,16.688l0,-2.034l0.474,-0l1.12,1.355l-0.224,-0l-0,-1.355l0.564,-0l-0,2.034l-0.474,-0l-1.12,-1.355l0.224,-0l-0,1.355l-0.564,-0Z" style="fill:#fff;fill-rule:nonzero;"/><path d="M24.501,16.728c-0.166,-0 -0.326,-0.021 -0.48,-0.062c-0.154,-0.041 -0.28,-0.095 -0.376,-0.16l0.189,-0.426c0.091,0.059 0.197,0.107 0.316,0.144c0.12,0.037 0.238,0.056 0.355,0.056c0.08,-0 0.144,-0.007 0.192,-0.021c0.048,-0.014 0.083,-0.033 0.105,-0.058c0.022,-0.025 0.033,-0.054 0.033,-0.087c0,-0.046 -0.021,-0.082 -0.063,-0.109c-0.041,-0.027 -0.097,-0.049 -0.165,-0.067c-0.068,-0.017 -0.143,-0.035 -0.225,-0.052c-0.082,-0.018 -0.164,-0.04 -0.247,-0.066c-0.082,-0.027 -0.157,-0.063 -0.226,-0.106c-0.068,-0.044 -0.123,-0.101 -0.165,-0.173c-0.042,-0.071 -0.063,-0.161 -0.063,-0.27c0,-0.12 0.033,-0.23 0.1,-0.329c0.066,-0.1 0.166,-0.179 0.3,-0.239c0.133,-0.059 0.301,-0.089 0.501,-0.089c0.132,-0 0.263,0.015 0.392,0.044c0.128,0.03 0.243,0.074 0.344,0.134l-0.176,0.425c-0.097,-0.053 -0.193,-0.091 -0.288,-0.117c-0.095,-0.025 -0.187,-0.038 -0.277,-0.038c-0.079,-0 -0.142,0.008 -0.191,0.024c-0.048,0.017 -0.083,0.039 -0.104,0.066c-0.021,0.027 -0.032,0.057 -0.032,0.091c-0,0.044 0.021,0.08 0.063,0.106c0.042,0.026 0.097,0.048 0.165,0.064c0.068,0.017 0.144,0.034 0.226,0.051c0.083,0.017 0.165,0.039 0.247,0.065c0.081,0.027 0.157,0.062 0.225,0.105c0.068,0.043 0.123,0.1 0.165,0.171c0.042,0.071 0.063,0.159 0.063,0.266c-0,0.118 -0.033,0.227 -0.1,0.327c-0.067,0.099 -0.167,0.179 -0.3,0.239c-0.133,0.061 -0.301,0.091 -0.503,0.091Z" style="fill:#fff;fill-rule:nonzero;"/></g><g><path d="M26.945,16.688l-0,-1.578l-0.624,-0l0,-0.456l1.823,-0l-0,0.456l-0.624,-0l0,1.578l-0.575,-0Z" style="fill:#fff;fill-rule:nonzero;"/><path d="M28.012,16.688l0.898,-2.034l0.566,-0l0.899,2.034l-0.597,-0l-0.702,-1.753l0.226,0l-0.703,1.753l-0.587,-0Zm0.491,-0.396l0.148,-0.424l0.993,0l0.149,0.424l-1.29,-0Z" style="fill:#fff;fill-rule:nonzero;"/><path d="M31.253,16.728c-0.167,-0 -0.327,-0.021 -0.481,-0.062c-0.154,-0.041 -0.279,-0.095 -0.376,-0.16l0.19,-0.426c0.091,0.059 0.196,0.107 0.316,0.144c0.119,0.037 0.237,0.056 0.355,0.056c0.08,-0 0.144,-0.007 0.192,-0.021c0.047,-0.014 0.082,-0.033 0.104,-0.058c0.023,-0.025 0.034,-0.054 0.034,-0.087c-0,-0.046 -0.021,-0.082 -0.063,-0.109c-0.042,-0.027 -0.097,-0.049 -0.165,-0.067c-0.069,-0.017 -0.144,-0.035 -0.225,-0.052c-0.082,-0.018 -0.164,-0.04 -0.247,-0.066c-0.082,-0.027 -0.158,-0.063 -0.226,-0.106c-0.068,-0.044 -0.124,-0.101 -0.165,-0.173c-0.042,-0.071 -0.063,-0.161 -0.063,-0.27c-0,-0.12 0.033,-0.23 0.099,-0.329c0.067,-0.1 0.167,-0.179 0.3,-0.239c0.134,-0.059 0.301,-0.089 0.502,-0.089c0.132,-0 0.262,0.015 0.391,0.044c0.129,0.03 0.244,0.074 0.344,0.134l-0.175,0.425c-0.097,-0.053 -0.193,-0.091 -0.288,-0.117c-0.095,-0.025 -0.187,-0.038 -0.277,-0.038c-0.079,-0 -0.143,0.008 -0.191,0.024c-0.049,0.017 -0.083,0.039 -0.105,0.066c-0.021,0.027 -0.032,0.057 -0.032,0.091c0,0.044 0.021,0.08 0.063,0.106c0.042,0.026 0.097,0.048 0.166,0.064c0.068,0.017 0.143,0.034 0.226,0.051c0.082,0.017 0.164,0.039 0.246,0.065c0.082,0.027 0.157,0.062 0.225,0.105c0.069,0.043 0.124,0.1 0.166,0.171c0.042,0.071 0.063,0.159 0.063,0.266c-0,0.118 -0.034,0.227 -0.101,0.327c-0.066,0.099 -0.166,0.179 -0.3,0.239c-0.133,0.061 -0.3,0.091 -0.502,0.091Z" style="fill:#fff;fill-rule:nonzero;"/><path d="M32.934,16.236l-0.032,-0.644l0.874,-0.938l0.632,-0l-0.869,0.945l-0.32,0.333l-0.285,0.304Zm-0.514,0.452l-0,-2.034l0.568,-0l-0,2.034l-0.568,-0Zm1.365,-0l-0.663,-0.839l0.375,-0.402l0.956,1.241l-0.668,-0Z" style="fill:#fff;fill-rule:nonzero;"/><path d="M35.139,15.545l0.937,-0l0,0.446l-0.937,-0l0,-0.446Zm0.041,1.143l-0.575,-0l-0,-2.034l1.592,-0l0,0.446l-1.017,-0l0,1.588Z" style="fill:#fff;fill-rule:nonzero;"/><path d="M37.478,16.728c-0.162,-0 -0.313,-0.026 -0.451,-0.079c-0.138,-0.052 -0.258,-0.126 -0.359,-0.221c-0.101,-0.095 -0.18,-0.207 -0.236,-0.336c-0.056,-0.129 -0.084,-0.269 -0.084,-0.422c-0,-0.153 0.028,-0.293 0.084,-0.421c0.056,-0.128 0.135,-0.24 0.236,-0.335c0.101,-0.096 0.221,-0.17 0.359,-0.222c0.138,-0.052 0.288,-0.078 0.45,-0.078c0.164,-0 0.314,0.026 0.451,0.078c0.137,0.052 0.256,0.126 0.357,0.221c0.101,0.096 0.18,0.207 0.236,0.335c0.057,0.128 0.085,0.269 0.085,0.422c-0,0.153 -0.028,0.294 -0.085,0.423c-0.056,0.129 -0.135,0.241 -0.236,0.336c-0.101,0.095 -0.22,0.168 -0.357,0.221c-0.137,0.052 -0.287,0.078 -0.45,0.078Zm-0.001,-0.475c0.078,0 0.15,-0.014 0.216,-0.041c0.067,-0.028 0.125,-0.067 0.174,-0.118c0.05,-0.051 0.089,-0.112 0.116,-0.184c0.028,-0.071 0.042,-0.151 0.042,-0.24c0,-0.088 -0.014,-0.168 -0.041,-0.239c-0.028,-0.071 -0.067,-0.132 -0.117,-0.183c-0.049,-0.051 -0.107,-0.091 -0.174,-0.118c-0.066,-0.028 -0.138,-0.042 -0.216,-0.042c-0.078,0 -0.15,0.014 -0.216,0.042c-0.067,0.027 -0.125,0.067 -0.175,0.118c-0.05,0.051 -0.089,0.112 -0.116,0.183c-0.028,0.072 -0.042,0.151 -0.042,0.239c0,0.088 0.014,0.168 0.042,0.24c0.027,0.071 0.066,0.133 0.116,0.184c0.05,0.051 0.108,0.09 0.174,0.118c0.067,0.027 0.139,0.041 0.217,0.041Z" style="fill:#fff;fill-rule:nonzero;"/><path d="M38.91,16.688l0,-2.034l0.928,-0c0.186,-0 0.347,0.03 0.482,0.091c0.135,0.06 0.239,0.147 0.313,0.26c0.073,0.112 0.11,0.246 0.11,0.401c-0,0.153 -0.037,0.286 -0.11,0.397c-0.074,0.111 -0.178,0.197 -0.313,0.256c-0.135,0.059 -0.296,0.088 -0.482,0.088l-0.609,0l0.257,-0.242l-0,0.783l-0.576,-0Zm1.257,-0l-0.505,-0.74l0.612,-0l0.51,0.74l-0.617,-0Zm-0.681,-0.72l-0.257,-0.265l0.575,0c0.12,0 0.21,-0.026 0.269,-0.079c0.06,-0.053 0.089,-0.126 0.089,-0.218c0,-0.094 -0.029,-0.167 -0.089,-0.219c-0.059,-0.053 -0.149,-0.079 -0.269,-0.079l-0.575,-0l0.257,-0.266l-0,1.126Z" style="fill:#fff;fill-rule:nonzero;"/><path d="M42.072,16.728c-0.16,-0 -0.309,-0.026 -0.445,-0.077c-0.136,-0.052 -0.255,-0.125 -0.355,-0.219c-0.1,-0.095 -0.178,-0.207 -0.234,-0.335c-0.055,-0.129 -0.083,-0.271 -0.083,-0.426c0,-0.155 0.028,-0.297 0.083,-0.426c0.056,-0.129 0.134,-0.241 0.235,-0.335c0.1,-0.095 0.218,-0.168 0.355,-0.219c0.136,-0.052 0.285,-0.077 0.445,-0.077c0.187,-0 0.355,0.032 0.503,0.098c0.149,0.065 0.272,0.16 0.37,0.284l-0.365,0.331c-0.065,-0.077 -0.137,-0.136 -0.216,-0.177c-0.079,-0.041 -0.167,-0.062 -0.264,-0.062c-0.083,0 -0.16,0.014 -0.229,0.042c-0.068,0.027 -0.128,0.066 -0.178,0.118c-0.05,0.051 -0.089,0.113 -0.117,0.185c-0.027,0.071 -0.041,0.151 -0.041,0.238c-0,0.087 0.014,0.166 0.041,0.238c0.028,0.071 0.067,0.133 0.117,0.185c0.05,0.051 0.11,0.09 0.178,0.118c0.069,0.027 0.146,0.041 0.229,0.041c0.097,0 0.185,-0.02 0.264,-0.062c0.079,-0.041 0.151,-0.1 0.216,-0.178l0.365,0.331c-0.098,0.124 -0.221,0.218 -0.37,0.284c-0.148,0.067 -0.316,0.1 -0.504,0.1Z" style="fill:#fff;fill-rule:nonzero;"/><path d="M43.731,15.442l0.945,-0l-0,0.428l-0.945,-0l0,-0.428Zm0.041,0.8l1.063,-0l0,0.446l-1.631,-0l-0,-2.034l1.593,-0l-0,0.446l-1.025,-0l-0,1.142Z" style="fill:#fff;fill-rule:nonzero;"/></g></g><g><path d="M0.204,16.678l7.235,-16.628l3.902,-0l4.978,11.274l-4.11,0l-2.85,-7.399l-5.113,12.753l-4.042,0Zm6.888,-5.354l1.169,-2.915l2.825,-0l1.123,2.915l-5.117,0Z" style="fill:#fff;fill-rule:nonzero;"/><path d="M27.051,0.048l-2.429,2.448c0,0 -3.561,0.002 -4.045,0.002c-0.307,-0 -0.559,0.037 -0.754,0.11c-0.195,0.073 -0.339,0.173 -0.432,0.298c-0.093,0.125 -0.141,0.268 -0.145,0.43c-0.007,0.132 0.017,0.251 0.072,0.357c0.056,0.105 0.145,0.2 0.266,0.284c0.122,0.084 0.278,0.16 0.467,0.228c0.19,0.068 0.415,0.129 0.677,0.183l0.902,0.193c0.608,0.129 1.129,0.299 1.562,0.51c0.433,0.211 0.787,0.459 1.063,0.744c0.276,0.284 0.479,0.604 0.609,0.958c0.131,0.354 0.198,0.741 0.202,1.16c-0.004,0.723 -0.185,1.335 -0.543,1.836c-0.358,0.501 -0.868,0.882 -1.532,1.143c-0.664,0.261 -1.462,0.392 -2.392,0.392l-3.538,0l-1.092,-2.448l4.587,-0c0.318,-0 0.585,-0.039 0.8,-0.118c0.215,-0.079 0.377,-0.188 0.488,-0.328c0.111,-0.139 0.169,-0.298 0.172,-0.477c-0.003,-0.169 -0.058,-0.316 -0.164,-0.443c-0.105,-0.127 -0.278,-0.242 -0.518,-0.344c-0.239,-0.102 -0.563,-0.198 -0.971,-0.287l-1.096,-0.236c-0.973,-0.212 -1.74,-0.565 -2.3,-1.061c-0.56,-0.495 -0.838,-1.173 -0.835,-2.032c-0.003,-0.698 0.184,-1.309 0.561,-1.833c0.378,-0.524 0.902,-0.933 1.573,-1.227c0.671,-0.293 1.442,-0.44 2.311,-0.44c0.888,-0 6.474,-0.002 6.474,-0.002Z" style="fill:#fff;fill-rule:nonzero;"/><path d="M37.772,11.231l-0,-8.676l-2.103,0l-2.187,-2.507l11.353,0l-1.861,2.507l-2.157,0l0,8.676l-3.045,0Z" style="fill:#fff;fill-rule:nonzero;"/></g></g><g id="Logo"><path d="M29.415,0.768l-0,0.309l0.294,-0.326c0,-0.096 0.001,-0.192 0.002,-0.288c-0.099,0.101 -0.198,0.203 -0.296,0.305" style="fill:#fff;fill-rule:nonzero;"/><path d="M29.415,1.11l-0,0.309l0.294,-0.326c0,-0.096 0.001,-0.192 0.002,-0.288c-0.099,0.101 -0.198,0.203 -0.296,0.305" style="fill:#fff;fill-rule:nonzero;"/><path d="M29.415,1.459l-0,0.309l0.294,-0.326c0,-0.096 0.001,-0.192 0.002,-0.288c-0.099,0.102 -0.198,0.203 -0.296,0.305" style="fill:#fff;fill-rule:nonzero;"/><path d="M29.415,2.11l0.294,-0.326c0,-0.096 0.001,-0.192 0.002,-0.288c-0.099,0.102 -0.198,0.203 -0.296,0.305l-0,0.309Z" style="fill:#fff;fill-rule:nonzero;"/><path d="M29.198,1.077l0,-0.309c-0.099,-0.102 -0.197,-0.204 -0.296,-0.305c0.001,0.096 0.001,0.192 0.002,0.288l0.294,0.326Z" style="fill:#fff;fill-rule:nonzero;"/><path d="M29.198,1.419l0,-0.309c-0.099,-0.102 -0.197,-0.204 -0.296,-0.305c0.001,0.096 0.001,0.192 0.002,0.288l0.294,0.326Z" style="fill:#fff;fill-rule:nonzero;"/><path d="M29.198,1.768l0,-0.309c-0.099,-0.102 -0.197,-0.203 -0.296,-0.305c0.001,0.096 0.001,0.192 0.002,0.288l0.294,0.326Z" style="fill:#fff;fill-rule:nonzero;"/><path d="M29.198,2.11l0,-0.309c-0.099,-0.102 -0.197,-0.203 -0.296,-0.305c0.001,0.096 0.001,0.192 0.002,0.288l0.294,0.326Z" style="fill:#fff;fill-rule:nonzero;"/><path d="M29.275,0.672l-0,-0.624l-0.24,0.337l0.24,0.287Z" style="fill:#fff;fill-rule:nonzero;"/><path d="M29.338,0.048l0,0.624l0.239,-0.287l-0.239,-0.337Z" style="fill:#fff;fill-rule:nonzero;"/><path d="M27.662,5.006c-0.349,-2.097 0.468,-4.503 0.468,-4.503c-0.309,0.514 -0.64,1.229 -0.784,2.112c-0.072,0.442 -0.159,1.01 0.034,1.699c0.083,0.296 0.193,0.53 0.282,0.692" style="fill:#fff;fill-rule:nonzero;"/><path d="M27.478,5.571c-0.123,-0.335 -0.112,-0.649 -0.116,-0.582c-0.004,0.068 0.011,-0.226 0.027,-0.315c-0.626,-2.451 -0.479,-3.621 -0.479,-3.621c-0.162,0.529 -0.408,1.595 -0.114,2.869c0.164,0.714 0.151,1.036 0.682,1.649" style="fill:#fff;fill-rule:nonzero;"/><path d="M27.437,6.122c-0.106,-0.237 -0.143,-0.486 -0.155,-0.649c-0.927,-1.491 -0.988,-3.386 -0.988,-3.386c-0,0 -0.262,1.393 0.118,2.479c0.38,1.086 0.637,1.372 1.025,1.556" style="fill:#fff;fill-rule:nonzero;"/><path d="M27.192,6.167l0.008,-0.11c-0.208,-0.111 -0.498,-0.576 -0.541,-0.633c-0.043,-0.058 -0.055,-0.196 -0.133,-0.339c-0.551,-0.646 -0.747,-1.805 -0.747,-1.805c0.114,1.274 0.437,1.854 0.731,2.393c0.425,0.408 0.682,0.494 0.682,0.494" style="fill:#fff;fill-rule:nonzero;"/><path d="M27.355,6.906l0.05,-0.025c-0,0 -0.017,-0.077 -0.066,-0.163c0.074,-0.086 0.065,-0.131 0.065,-0.131c0,0 -0.028,-0.032 -0.141,-0.298c-0.972,-0.475 -1.64,-1.491 -1.753,-1.671c-0.011,-0.018 -0.017,-0.027 -0.017,-0.027l0.006,0.009c0.574,1.744 1.856,2.306 1.856,2.306" style="fill:#fff;fill-rule:nonzero;"/><path d="M27.38,7.42c0.122,-0.187 0.065,-0.326 -0.021,-0.457c-0.726,-0.314 -1.408,-1.18 -1.408,-1.18l-0,0.02c0.212,1.136 1.298,1.577 1.429,1.617" style="fill:#fff;fill-rule:nonzero;"/><path d="M27.437,7.535c-0.278,-0.025 -1.196,-0.772 -1.196,-0.772l-0,0.02c0.191,0.703 1.069,0.956 1.069,0.956c0,-0 0.119,-0.082 0.127,-0.204" style="fill:#fff;fill-rule:nonzero;"/><path d="M27.437,8.233c0,0 0.029,-0.012 0.013,-0.094c-0.125,-0.163 -0.103,-0.253 -0.144,-0.327c-0.045,0 -0.42,-0.208 -0.531,-0.249c-0.11,-0.04 -0.116,0.119 -0.116,0.119l0.202,0.294l0.576,0.257Z" style="fill:#fff;fill-rule:nonzero;"/><path d="M26.857,8.478l0.58,0.18l0,-0.368l-0.555,-0.237c-0,0 -0.017,-0.028 -0.123,0.143c-0.106,0.172 0.098,0.282 0.098,0.282" style="fill:#fff;fill-rule:nonzero;"/><path d="M27.478,9.152c0.118,-0.025 0.077,-0.143 0.077,-0.143c-0.032,-0.041 -0.118,-0.282 -0.118,-0.282l-0.543,-0.155l-0.09,0.151c0,0 -0.094,0.119 -0.016,0.221c0.175,0.187 0.571,0.232 0.69,0.208" style="fill:#fff;fill-rule:nonzero;"/><path d="M27.535,9.589c0.123,-0.037 0.249,-0.037 0.343,-0.053c0.098,-0.066 0.086,-0.249 0.086,-0.249c-0,-0 -0.078,-0.127 -0.208,-0.09c-0.131,0.037 -0.699,-0 -0.699,-0l-0.098,0.106c0,-0 -0.143,0.098 0,0.192c0.143,0.094 0.454,0.131 0.576,0.094" style="fill:#fff;fill-rule:nonzero;"/><path d="M27.964,10.05c0.319,-0.065 0.31,-0.167 0.294,-0.302c-0.204,0.008 -0.2,-0.073 -0.294,-0.145c-0.31,0.083 -0.707,0.059 -0.707,0.059c0,0 -0.053,0.09 -0.114,0.213c0.2,0.273 0.502,0.241 0.821,0.175" style="fill:#fff;fill-rule:nonzero;"/><path d="M28.801,10.21c-0,-0 -0.253,-0.09 -0.462,-0.168c-0.33,0.086 -0.681,0.123 -0.681,0.123c-0,-0 -0.062,0.065 -0.123,0.171c0.212,0.176 0.298,0.249 0.768,0.147c0.469,-0.102 0.498,-0.273 0.498,-0.273" style="fill:#fff;fill-rule:nonzero;"/><path d="M29.222,10.357c-0,-0 -0.152,-0.037 -0.323,-0.071c-0.429,0.333 -0.731,0.332 -0.731,0.332l-0.082,0.155c0,0 -0.053,0.065 0.082,0.155c0.543,0.013 1.054,-0.571 1.054,-0.571" style="fill:#fff;fill-rule:nonzero;"/><path d="M28.923,10.716c0,-0 -0.118,0.057 -0.077,0.11c0.498,0.045 0.71,-0.412 0.71,-0.412c0,-0 -0.077,-0.021 -0.171,-0.053c-0.119,0.134 -0.462,0.355 -0.462,0.355" style="fill:#fff;fill-rule:nonzero;"/><path d="M29.769,9.603c-0.029,0.304 -0.115,0.439 -0.115,0.439c0,0 -0.077,0.278 0.16,0.114c0.237,-0.163 0.196,-0.579 0.196,-0.579l-0.241,0.026Z" style="fill:#fff;fill-rule:nonzero;"/><path d="M29.524,10.148c0.13,-0.151 0.147,-0.545 0.147,-0.545l-0.147,-0.047l-0,0.021c-0.253,0.555 -0.494,0.519 -0.494,0.519c-0,-0 -0.074,-0.017 -0.131,0.081c0.314,0.184 0.494,0.122 0.625,-0.029" style="fill:#fff;fill-rule:nonzero;"/><path d="M28.74,10.116c0.449,-0.053 0.673,-0.56 0.673,-0.56c0,0 -0.057,-0.077 -0.163,-0.11c-0.114,0.367 -0.837,0.29 -0.837,0.29l-0.053,0.233l0.314,0.102l0.066,0.045Z" style="fill:#fff;fill-rule:nonzero;"/><path d="M29.095,9.446c-0,-0 -0.123,-0.143 -0.294,-0.2c-0.351,0.163 -0.633,0.061 -0.633,0.061c-0,0 -0.11,0.098 -0.18,0.221c0.723,0.388 1.107,-0.082 1.107,-0.082" style="fill:#fff;fill-rule:nonzero;"/><path d="M28.649,9.246c0.113,-0.033 0.107,-0.123 0.107,-0.123l-0.131,-0.122c-0.531,0.057 -0.886,-0.2 -0.886,-0.2c0,-0 -0.081,-0.094 -0.177,-0.115c-0.099,0.605 0.973,0.592 1.087,0.56" style="fill:#fff;fill-rule:nonzero;"/><path d="M28.466,8.923c0.106,-0.008 0.076,-0.073 0.076,-0.073c-0,-0 -0.056,-0.062 -0.162,-0.192c-0.567,-0.135 -0.845,-0.392 -0.845,-0.392c-0.172,0.531 0.825,0.665 0.931,0.657" style="fill:#fff;fill-rule:nonzero;"/><path d="M28.264,8.572c0,0 0.043,-0.114 0.035,-0.217c-0.307,-0.095 -0.862,-0.665 -0.862,-0.665c-0.212,0.625 0.827,0.882 0.827,0.882" style="fill:#fff;fill-rule:nonzero;"/><path d="M27.515,7.31c-0.244,0.47 0.785,0.98 0.785,0.98c-0,0 0.019,-0.057 -0,-0.175c-0.387,-0.221 -0.785,-0.805 -0.785,-0.805" style="fill:#fff;fill-rule:nonzero;"/><path d="M28.308,8.052c0,-0 0.044,-0.17 0.052,-0.231c-0.261,-0.147 -0.905,-1.058 -0.905,-1.058c-0.015,0.727 0.853,1.289 0.853,1.289" style="fill:#fff;fill-rule:nonzero;"/><path d="M27.306,6.167c0.18,0.87 1.082,1.596 1.082,1.596c0,0 0.049,-0.093 0.119,-0.206c-0.065,-0.097 0.061,0.072 -0.18,-0.206c-0.241,-0.278 -0.865,-1.074 -1.021,-1.184" style="fill:#fff;fill-rule:nonzero;"/><path d="M27.931,6.391c0,0 -0.147,-0.298 -0.204,-0.428c-0.057,-0.131 -0.359,-0.433 -0.359,-0.433c0.032,0.249 0.192,0.89 0.486,1.143c0.295,0.253 0.502,0.801 0.692,0.817c0.19,0.016 0.149,-0.07 0.161,-0.18c-0.711,-0.6 -0.776,-0.919 -0.776,-0.919" style="fill:#fff;fill-rule:nonzero;"/><path d="M27.455,4.844c0.136,1.213 0.966,2.091 1.215,2.307c-0.114,-0.127 -0.461,-0.919 -0.49,-1.07c-0.094,-0.094 -0.371,-0.592 -0.445,-0.78c-0.133,-0.11 -0.28,-0.457 -0.28,-0.457" style="fill:#fff;fill-rule:nonzero;"/><path d="M28.13,5.918c-0,-0 0.022,-0.16 0.042,-0.302c-0.253,-0.303 -0.425,-1.074 -0.425,-1.074c-0.122,0.518 0.383,1.376 0.383,1.376" style="fill:#fff;fill-rule:nonzero;"/><path d="M28.801,7.407l0.098,-0.019l0.29,0.302l-0,-0.539c-0.821,-0.898 -0.925,-1.482 -0.925,-1.482c-0.23,0.261 0.333,1.2 0.443,1.413c0.11,0.212 0.094,0.325 0.094,0.325" style="fill:#fff;fill-rule:nonzero;"/><path d="M28.474,8.686c0,0 -0.02,-0.232 0.072,-0.506c0.092,-0.274 0.439,0.02 0.439,0.02c-0,0 -0.098,-0.428 -0.168,-0.669c-0.735,0.371 -0.343,1.155 -0.343,1.155" style="fill:#fff;fill-rule:nonzero;"/><path d="M29.879,9.229c-0.449,0.054 -0.498,-0.071 -0.498,-0.071l-0.096,0.071c-0,0 -0.027,-0.065 -0.031,-0.118c-0.478,-0.355 -0.584,-0.935 -0.584,-0.935c-0.302,0.837 0.588,1.327 0.825,1.287c0.237,-0.039 0.343,-0.144 0.384,-0.234" style="fill:#fff;fill-rule:nonzero;"/><path d="M29.347,9.009l0.457,-1.517l-0.457,0.349l-0,1.168Z" style="fill:#fff;fill-rule:nonzero;"/><path d="M29.306,9.009l0,-1.168l-0.457,-0.349l0.457,1.517Z" style="fill:#fff;fill-rule:nonzero;"/><path d="M31.005,1.077l0,-0.309c-0.099,-0.102 -0.197,-0.204 -0.296,-0.305c0.001,0.096 0.001,0.192 0.002,0.288l0.294,0.326Z" style="fill:#fff;fill-rule:nonzero;"/><path d="M31.005,1.419l0,-0.309c-0.099,-0.102 -0.197,-0.204 -0.296,-0.305c0.001,0.096 0.001,0.192 0.002,0.288l0.294,0.326Z" style="fill:#fff;fill-rule:nonzero;"/><path d="M31.005,1.768l0,-0.309c-0.099,-0.102 -0.197,-0.203 -0.296,-0.305c0.001,0.096 0.001,0.192 0.002,0.288l0.294,0.326Z" style="fill:#fff;fill-rule:nonzero;"/><path d="M31.005,2.11l0,-0.309c-0.099,-0.102 -0.197,-0.203 -0.296,-0.305c0.001,0.096 0.001,0.192 0.002,0.288l0.294,0.326Z" style="fill:#fff;fill-rule:nonzero;"/><path d="M31.222,0.768l-0,0.309l0.294,-0.326c0,-0.096 0.001,-0.192 0.002,-0.288c-0.099,0.101 -0.198,0.203 -0.296,0.305" style="fill:#fff;fill-rule:nonzero;"/><path d="M31.222,1.11l-0,0.309l0.294,-0.326c0,-0.096 0.001,-0.192 0.002,-0.288c-0.099,0.101 -0.198,0.203 -0.296,0.305" style="fill:#fff;fill-rule:nonzero;"/><path d="M31.222,1.459l-0,0.309l0.294,-0.326c0,-0.096 0.001,-0.192 0.002,-0.288c-0.099,0.102 -0.198,0.203 -0.296,0.305" style="fill:#fff;fill-rule:nonzero;"/><path d="M31.222,2.11l0.294,-0.326c0,-0.096 0.001,-0.192 0.002,-0.288c-0.099,0.102 -0.198,0.203 -0.296,0.305l-0,0.309Z" style="fill:#fff;fill-rule:nonzero;"/><path d="M31.145,0.048l-0,0.624l0.239,-0.287l-0.239,-0.337Z" style="fill:#fff;fill-rule:nonzero;"/><path d="M31.082,0.672l-0,-0.624l-0.24,0.337l0.24,0.287Z" style="fill:#fff;fill-rule:nonzero;"/><path d="M32.758,5.006c0.088,-0.162 0.199,-0.396 0.282,-0.692c0.192,-0.689 0.106,-1.257 0.034,-1.699c-0.144,-0.883 -0.475,-1.598 -0.784,-2.112c-0,-0 0.817,2.406 0.468,4.503" style="fill:#fff;fill-rule:nonzero;"/><path d="M33.03,4.674c0.017,0.089 0.031,0.383 0.028,0.315c-0.004,-0.067 0.006,0.247 -0.116,0.582c0.531,-0.613 0.518,-0.935 0.682,-1.649c0.293,-1.274 0.048,-2.34 -0.114,-2.869c-0,-0 0.147,1.17 -0.48,3.621" style="fill:#fff;fill-rule:nonzero;"/><path d="M32.983,6.122c0.388,-0.184 0.645,-0.47 1.025,-1.556c0.38,-1.086 0.118,-2.479 0.118,-2.479c0,0 -0.061,1.895 -0.988,3.386c-0.012,0.163 -0.049,0.412 -0.155,0.649" style="fill:#fff;fill-rule:nonzero;"/><path d="M33.761,5.424c-0.043,0.057 -0.333,0.522 -0.541,0.633l0.008,0.11c-0,-0 0.257,-0.086 0.682,-0.494c0.294,-0.539 0.616,-1.119 0.731,-2.393c-0,-0 -0.196,1.159 -0.748,1.805c-0.077,0.143 -0.089,0.281 -0.132,0.339" style="fill:#fff;fill-rule:nonzero;"/><path d="M34.91,4.618c-0.114,0.18 -0.781,1.196 -1.753,1.671c-0.113,0.266 -0.142,0.298 -0.142,0.298c0,0 -0.008,0.045 0.066,0.131c-0.049,0.086 -0.066,0.163 -0.066,0.163l0.049,0.025c0,-0 1.283,-0.562 1.857,-2.306l0.006,-0.009c-0,-0 -0.006,0.009 -0.017,0.027" style="fill:#fff;fill-rule:nonzero;"/><path d="M33.06,6.963c-0.085,0.131 -0.143,0.27 -0.02,0.457c0.131,-0.04 1.217,-0.481 1.429,-1.617l0,-0.02c0,-0 -0.682,0.866 -1.409,1.18" style="fill:#fff;fill-rule:nonzero;"/><path d="M33.109,7.739c0,-0 0.878,-0.253 1.07,-0.956l0,-0.02c0,-0 -0.919,0.747 -1.196,0.772c0.008,0.122 0.126,0.204 0.126,0.204" style="fill:#fff;fill-rule:nonzero;"/><path d="M33.644,7.563c-0.11,0.041 -0.486,0.249 -0.531,0.249c-0.04,0.074 -0.018,0.164 -0.144,0.327c-0.015,0.082 0.014,0.094 0.014,0.094l0.576,-0.257l0.202,-0.294c-0,-0 -0.006,-0.159 -0.117,-0.119" style="fill:#fff;fill-rule:nonzero;"/><path d="M33.538,8.053l-0.555,0.237l-0,0.368l0.58,-0.18c-0,0 0.204,-0.11 0.098,-0.282c-0.107,-0.171 -0.123,-0.143 -0.123,-0.143" style="fill:#fff;fill-rule:nonzero;"/><path d="M33.526,8.572l-0.543,0.155c-0,0 -0.086,0.241 -0.119,0.282c0,-0 -0.04,0.118 0.078,0.143c0.118,0.024 0.514,-0.021 0.69,-0.208c0.078,-0.102 -0.016,-0.221 -0.016,-0.221l-0.09,-0.151Z" style="fill:#fff;fill-rule:nonzero;"/><path d="M33.461,9.303l-0.098,-0.106c-0,-0 -0.568,0.037 -0.699,-0c-0.13,-0.037 -0.208,0.09 -0.208,0.09c-0,-0 -0.012,0.183 0.086,0.249c0.094,0.016 0.22,0.016 0.343,0.053c0.122,0.037 0.433,-0 0.576,-0.094c0.142,-0.094 -0,-0.192 -0,-0.192" style="fill:#fff;fill-rule:nonzero;"/><path d="M32.455,9.603c-0.093,0.072 -0.089,0.153 -0.293,0.145c-0.016,0.135 -0.026,0.237 0.293,0.302c0.319,0.066 0.622,0.098 0.822,-0.175c-0.061,-0.123 -0.115,-0.213 -0.115,-0.213c0,0 -0.397,0.024 -0.707,-0.059" style="fill:#fff;fill-rule:nonzero;"/><path d="M32.08,10.042c-0.208,0.078 -0.461,0.168 -0.461,0.168c-0,-0 0.028,0.171 0.498,0.273c0.47,0.102 0.555,0.029 0.768,-0.147c-0.061,-0.106 -0.123,-0.171 -0.123,-0.171c0,-0 -0.351,-0.037 -0.682,-0.123" style="fill:#fff;fill-rule:nonzero;"/><path d="M32.252,10.618c-0,-0 -0.302,0.001 -0.731,-0.332c-0.172,0.034 -0.323,0.071 -0.323,0.071c0,-0 0.511,0.584 1.054,0.571c0.135,-0.09 0.081,-0.155 0.081,-0.155l-0.081,-0.155Z" style="fill:#fff;fill-rule:nonzero;"/><path d="M31.496,10.716c0,-0 -0.343,-0.221 -0.461,-0.355c-0.094,0.032 -0.172,0.053 -0.172,0.053c0,-0 0.213,0.457 0.711,0.412c0.041,-0.053 -0.078,-0.11 -0.078,-0.11" style="fill:#fff;fill-rule:nonzero;"/><path d="M30.651,9.603l-0.241,-0.026c0,-0 -0.041,0.416 0.196,0.579c0.237,0.164 0.159,-0.114 0.159,-0.114c0,0 -0.085,-0.135 -0.114,-0.439" style="fill:#fff;fill-rule:nonzero;"/><path d="M31.521,10.177c-0.057,-0.098 -0.131,-0.081 -0.131,-0.081c0,-0 -0.241,0.036 -0.494,-0.519l0,-0.021l-0.147,0.047c0,-0 0.016,0.394 0.147,0.545c0.131,0.151 0.31,0.213 0.625,0.029" style="fill:#fff;fill-rule:nonzero;"/><path d="M31.745,10.071l0.315,-0.102l-0.053,-0.233c-0,-0 -0.723,0.077 -0.837,-0.29c-0.107,0.033 -0.164,0.11 -0.164,0.11c0,0 0.225,0.507 0.674,0.56l0.065,-0.045Z" style="fill:#fff;fill-rule:nonzero;"/><path d="M32.252,9.307c-0,0 -0.282,0.102 -0.633,-0.061c-0.172,0.057 -0.294,0.2 -0.294,0.2c-0,-0 0.384,0.47 1.106,0.082c-0.069,-0.123 -0.179,-0.221 -0.179,-0.221" style="fill:#fff;fill-rule:nonzero;"/><path d="M32.858,8.686c-0.096,0.021 -0.177,0.115 -0.177,0.115c-0,-0 -0.356,0.257 -0.887,0.2l-0.13,0.122c-0,0 -0.006,0.09 0.107,0.123c0.113,0.032 1.186,0.045 1.087,-0.56" style="fill:#fff;fill-rule:nonzero;"/><path d="M32.885,8.266c-0,-0 -0.278,0.257 -0.846,0.392c-0.106,0.13 -0.161,0.192 -0.161,0.192c0,-0 -0.03,0.065 0.076,0.073c0.106,0.008 1.102,-0.126 0.931,-0.657" style="fill:#fff;fill-rule:nonzero;"/><path d="M32.983,7.69c-0,-0 -0.556,0.57 -0.862,0.665c-0.008,0.103 0.035,0.217 0.035,0.217c-0,0 1.039,-0.257 0.827,-0.882" style="fill:#fff;fill-rule:nonzero;"/><path d="M32.905,7.31c-0,0 -0.398,0.584 -0.785,0.805c-0.019,0.118 0,0.175 0,0.175c0,0 1.029,-0.51 0.785,-0.98" style="fill:#fff;fill-rule:nonzero;"/><path d="M32.06,7.821c0.008,0.061 0.051,0.231 0.051,0.231c0,-0 0.869,-0.562 0.854,-1.289c-0,-0 -0.644,0.911 -0.905,1.058" style="fill:#fff;fill-rule:nonzero;"/><path d="M32.093,7.351c-0.241,0.278 -0.115,0.109 -0.18,0.206c0.069,0.113 0.118,0.206 0.118,0.206c0,0 0.903,-0.726 1.082,-1.596c-0.155,0.11 -0.78,0.906 -1.02,1.184" style="fill:#fff;fill-rule:nonzero;"/><path d="M31.874,7.49c0.19,-0.016 0.397,-0.564 0.692,-0.817c0.294,-0.253 0.454,-0.894 0.486,-1.143c0,-0 -0.302,0.302 -0.359,0.433c-0.057,0.13 -0.204,0.428 -0.204,0.428c-0,0 -0.066,0.319 -0.776,0.919c0.012,0.11 -0.029,0.196 0.161,0.18" style="fill:#fff;fill-rule:nonzero;"/><path d="M32.965,4.844c-0,-0 -0.147,0.347 -0.28,0.457c-0.074,0.188 -0.352,0.686 -0.445,0.78c-0.029,0.151 -0.376,0.943 -0.49,1.07c0.249,-0.216 1.079,-1.094 1.215,-2.307" style="fill:#fff;fill-rule:nonzero;"/><path d="M32.672,4.542c0,-0 -0.171,0.771 -0.424,1.073c0.02,0.143 0.042,0.303 0.042,0.303c-0,-0 0.505,-0.858 0.382,-1.376" style="fill:#fff;fill-rule:nonzero;"/><path d="M31.231,7.151l-0,0.539l0.29,-0.302l0.098,0.019c-0,0 -0.016,-0.113 0.094,-0.325c0.11,-0.213 0.673,-1.152 0.443,-1.413c-0,-0 -0.104,0.584 -0.925,1.482" style="fill:#fff;fill-rule:nonzero;"/><path d="M31.435,8.2c0,0 0.347,-0.294 0.439,-0.02c0.092,0.274 0.072,0.506 0.072,0.506c-0,0 0.392,-0.784 -0.343,-1.155c-0.07,0.241 -0.168,0.669 -0.168,0.669" style="fill:#fff;fill-rule:nonzero;"/><path d="M30.925,9.463c0.236,0.04 1.127,-0.45 0.825,-1.287c-0,-0 -0.107,0.58 -0.584,0.935c-0.005,0.053 -0.031,0.118 -0.031,0.118l-0.096,-0.071c-0,0 -0.049,0.125 -0.498,0.071c0.041,0.09 0.147,0.195 0.384,0.234" style="fill:#fff;fill-rule:nonzero;"/><path d="M31.073,9.009l0,-1.168l-0.457,-0.349l0.457,1.517Z" style="fill:#fff;fill-rule:nonzero;"/><path d="M31.113,9.009l0.458,-1.517l-0.458,0.349l0,1.168Z" style="fill:#fff;fill-rule:nonzero;"/><path d="M30.545,6.307c-0,-0 -0.066,-0.119 -0.218,-0.038c-0.136,0.141 0.087,0.41 0.087,0.41c0.169,-0.188 0.131,-0.372 0.131,-0.372" style="fill:#fff;fill-rule:nonzero;"/><path d="M29.922,6.302c-0.111,0.152 -0.035,0.19 -0.035,0.19l0.07,0.212c0.179,-0.196 0.163,-0.402 0.163,-0.402c0,-0 -0.087,-0.153 -0.198,-0" style="fill:#fff;fill-rule:nonzero;"/><path d="M31.005,6.698l0,-0.546c-0.047,-0.039 -0.113,-0.059 -0.199,-0.014c-0.185,0.098 -0.152,0.272 -0.087,0.49c0.065,0.218 0.087,0.436 0.087,0.436c0.093,-0.135 0.156,-0.259 0.199,-0.366" style="fill:#fff;fill-rule:nonzero;"/><path d="M31.247,5.948c0,-0 -0.005,0.009 -0.025,0.011l-0,0.218c0.005,-0.003 0.009,-0.006 0.014,-0.01c0.147,-0.135 0.011,-0.219 0.011,-0.219" style="fill:#fff;fill-rule:nonzero;"/><path d="M29.198,6.188l0,-0.237l-0.042,0.024c0,-0 -0.104,0.131 0.042,0.213" style="fill:#fff;fill-rule:nonzero;"/><path d="M30.61,6.22c0.19,-0.177 0.308,-0.166 0.395,-0.121l0,-0.24c-0.044,-0.071 -0.01,-0.162 0,-0.185l0,-0.447c-0.214,-0.028 -0.449,-0.267 -0.449,-0.267c-0,-0 -0.093,-0.02 0.038,0.236c-0.218,-0.147 -0.414,-0.473 -0.414,-0.473c0,0 -0.027,0.098 -0.044,0.185c-0.125,0.062 -0.136,0.152 -0.114,0.223c0.022,0.071 0.044,-0.202 0.24,-0.076c0.196,0.125 0.316,0.457 0.316,0.614c-0,0.156 -0.213,0.181 -0.213,0.181l-0.071,-0.102c-0.07,-0.101 -0.038,-0.084 -0.092,-0.218c-0.119,0.311 -0.234,0.287 -0.234,0.287c-0,-0 -0.191,0.038 -0.191,-0.191c0,-0.228 0.174,-0.495 0.174,-0.495c0,-0 -0.098,0.071 -0.196,0.099c0.01,-0.06 0.044,-0.18 0.054,-0.214c-0.01,0.024 -0.057,0.09 -0.277,0.158c-0.042,0.014 -0.081,0.023 -0.117,0.03l-0,0.915c0.29,-0.073 0.312,0.084 0.335,0.215c0.185,-0.223 0.305,-0.125 0.463,-0.076c0.104,-0.082 0.158,-0.109 0.397,-0.038" style="fill:#fff;fill-rule:nonzero;"/><path d="M28.378,4.218c-0.255,0.155 -0.061,0.483 -0.061,0.483c-0,-0 0.11,0.147 0.061,0.256c0.099,0.07 0.103,0.239 0.103,0.239l-0.06,0.011c0,0 0,-0.125 -0.043,-0.147c-0.108,0.082 -0.218,0.359 0.038,0.609c0.256,0.249 0.523,0.045 0.577,-0c0.055,-0.045 0.18,-0 0.18,-0l-0,-0.013l0.025,0.01l0,-0.447c-0.008,-0 -0.018,-0 -0.025,-0.001l-0,-0.033c-0,0 -0.142,-0.032 -0.376,-0.223c-0.234,-0.19 -0.065,-0.452 0,-0.533c-0.131,0.038 -0.18,0.054 -0.282,0.113c-0.069,-0.214 0.451,-0.375 0.658,-0.157c0.023,0.025 0.047,0.047 0.07,0.069l0,3.285l0.127,-0l-0,-3.184c0.122,0.086 0.214,0.119 0.214,0.119c-0,-0 0.269,0.081 0.411,-0.083c0.141,-0.165 -0.038,-0.342 -0.038,-0.342c-0,-0 -0.076,-0.098 0.043,-0.031c0.12,0.068 0.12,0.373 0.12,0.373l0.093,-0.13c0,0 0.005,0.104 0.04,0.13c-0.019,-0.067 0.058,-0.348 0.058,-0.348c-0,0 0.038,-0.021 0.103,0.044c-0.114,0.343 0.038,0.474 0.147,0.436c0.109,-0.037 0.283,-0.098 0.283,-0.098c0,-0 0.08,-0.059 0.206,-0.141l0,3.255l0.126,-0l0,-3.333c0.047,-0.028 0.095,-0.057 0.147,-0.086c0.273,-0.153 0.458,0.076 0.469,0.222c-0.082,-0.094 -0.273,-0.141 -0.273,-0.141l0.055,0.071c-0,0 -0.027,-0.011 -0.071,-0.011c0.223,0.316 0.158,0.414 0.076,0.545c-0.066,0.106 -0.279,0.187 -0.357,0.214l-0,0.434c0.036,0.013 0.095,0.031 0.194,0.06c0.343,0.098 0.675,-0.066 0.692,-0.333c0.016,-0.266 -0.082,-0.348 -0.082,-0.348l-0.06,0.082l-0.087,-0c-0,-0 0.054,-0.071 0.098,-0.169c0.043,-0.098 0.016,-0.223 0.016,-0.223l0.131,-0.181c-0,-0 0.141,-0.201 -0.053,-0.324c-0.548,-0.254 -0.481,-0.623 -0.481,-0.623c0,0 -0.005,-0.027 0.06,-0.027c0.005,0.078 0.027,0.252 0.159,0.397c0.036,0.04 0.073,0.07 0.108,0.094c0.021,0.025 0.048,0.052 0.071,0.046c0.073,-0.021 0.063,-0.39 -0.028,-0.673c-0.111,-0.351 -0.343,-0.566 -0.441,-0.653c-0.109,-0.099 -0.225,-0.178 -0.343,-0.241l0,-1.841l-0.126,0l0,1.779c-0.492,-0.217 -0.977,-0.179 -1.083,-0.172c-0.195,0.013 -0.393,0.057 -0.597,0.137l-0,-1.744l-0.127,0l0,1.797c-0.082,0.038 -0.165,0.082 -0.25,0.132c-0.909,0.539 -0.615,1.509 -0.615,1.509c0.371,-0.289 0.308,-0.578 0.308,-0.578c-0,0 0.024,-0.06 0.095,0.038c-0.017,0.365 -0.174,0.561 -0.403,0.623" style="fill:#fff;fill-rule:nonzero;"/><path d="M29.532,6.167c0,-0 -0.058,-0.002 -0.117,0.026l-0,0.564c0.079,0.139 0.169,0.247 0.169,0.247c0.052,-0.065 0.101,-0.594 0.095,-0.763c-0.065,-0.061 -0.147,-0.074 -0.147,-0.074" style="fill:#fff;fill-rule:nonzero;"/></g></g></svg>